<?xml version="1.0" encoding="UTF-8"?>
<svg version="1.1" xmlns="http://www.w3.org/2000/svg" width="512" height="512">
<path d="M0 0 C1.27228809 -0.00453111 2.54457617 -0.00906223 3.85541844 -0.01373065 C7.37568355 -0.02593392 10.89585342 -0.02570335 14.41613483 -0.02334189 C18.21722685 -0.02293305 22.01828861 -0.03397936 25.81936646 -0.04345703 C33.26239376 -0.06005349 40.70538939 -0.06556597 48.14843366 -0.06668179 C54.20033211 -0.06763293 60.25222014 -0.07174657 66.3041153 -0.07808304 C83.47235012 -0.09569201 100.64055997 -0.10492249 117.80880389 -0.10342209 C119.19644615 -0.10330222 119.19644615 -0.10330222 120.61212158 -0.10317993 C121.53834947 -0.10309817 122.46457735 -0.10301641 123.41887274 -0.10293217 C138.42631408 -0.10211944 153.43365501 -0.12125469 168.44106731 -0.14945666 C183.86036839 -0.17820339 199.27962054 -0.19199596 214.6989491 -0.19026911 C223.35177937 -0.18960581 232.00450439 -0.19507171 240.65731049 -0.21662521 C248.02510847 -0.2348606 255.39275349 -0.23916507 262.7605643 -0.22560637 C266.51692706 -0.21908846 270.27299657 -0.21891648 274.02933121 -0.23631287 C278.10880461 -0.25501079 282.18760275 -0.24245846 286.26708984 -0.22705078 C287.44424962 -0.23733791 288.62140939 -0.24762503 289.83424067 -0.25822389 C302.12854594 -0.15583564 312.55899804 3.83405143 321.54766846 12.30258179 C330.32313155 21.6029324 334.72236954 32.25917368 334.64478111 45.05590343 C334.64828719 45.80074711 334.65179326 46.54559078 334.65540558 47.31300548 C334.66467952 49.79879822 334.65980669 52.28435462 334.65493774 54.77015686 C334.65867603 56.57446079 334.66327826 58.3787631 334.66866839 60.18306285 C334.68089184 65.13379802 334.68063869 70.08446558 334.67827964 75.0352124 C334.67787131 80.37757588 334.68891223 85.71991773 334.69839478 91.06227112 C334.71500235 101.52646474 334.72050422 111.99063582 334.72161953 122.45484152 C334.72257015 130.96188483 334.72668117 139.46892072 334.73302078 147.97596169 C334.75063281 172.10068409 334.75985975 196.22538871 334.75835983 220.35011759 C334.75827992 221.65048302 334.75820001 222.95084845 334.75811768 224.2906189 C334.75803591 225.59257412 334.75795415 226.89452934 334.75786991 228.23593775 C334.75705711 249.33341984 334.77619359 270.43083052 334.80439441 291.52829196 C334.83312946 313.19660088 334.84693435 334.86487497 334.84520686 356.53320342 C334.84454315 368.69604719 334.85002683 380.85881609 334.87156296 393.02164268 C334.88978292 403.37792227 334.89411535 413.73409308 334.88054411 424.09038176 C334.87401855 429.37199401 334.87388255 434.65339759 334.89125061 439.93498993 C334.90700438 444.77556809 334.90409405 449.61577255 334.88668235 454.45634172 C334.88361753 456.20194986 334.88722516 457.94758605 334.8984025 459.69316109 C334.99344391 475.59665596 332.52731158 488.45380352 321.32110596 500.48617554 C313.80121357 507.6966627 304.56041357 512.38165478 294.05622101 512.40164661 C292.96883778 512.40610446 291.88145455 512.4105623 290.76112032 512.41515523 C288.96991172 512.41487869 288.96991172 512.41487869 287.14251709 512.41459656 C285.87349784 512.41827325 284.6044786 512.42194993 283.29700422 512.42573804 C279.77191637 512.43574913 276.24684554 512.4394734 272.72174549 512.44212735 C268.92058909 512.44603313 265.11944614 512.45561138 261.31829834 512.46434021 C252.13629313 512.48409843 242.95428683 512.49417069 233.77226567 512.503068 C229.44633618 512.50745256 225.1204079 512.51281899 220.79447937 512.51805687 C206.41015121 512.53506964 192.0258238 512.54956274 177.64148712 512.55680561 C173.90904235 512.55871545 170.17659758 512.56063579 166.44415283 512.56259155 C165.51649075 512.56307529 164.58882868 512.56355903 163.63305563 512.56405743 C148.61317104 512.57235369 133.59336621 512.59768355 118.57351643 512.63017223 C103.14640096 512.66326921 87.71932597 512.68125682 72.29217482 512.68444985 C63.63311284 512.68661267 54.9741671 512.69532764 46.31513977 512.72091103 C38.93888819 512.74265422 31.56278108 512.75065075 24.18650109 512.74094424 C20.42597887 512.73640978 16.6657545 512.73823545 12.90527344 512.75770569 C8.81943332 512.77867681 4.73424921 512.76831916 0.64837646 512.75517273 C-1.11606347 512.7716266 -1.11606347 512.7716266 -2.91614866 512.78841287 C-16.20384516 512.68552923 -25.75731523 508.65519997 -35.36248779 499.70492554 C-47.13800247 486.94811797 -48.95781875 473.74743448 -48.80780029 456.84555054 C-48.8049704 455.61955139 -48.8021405 454.39355225 -48.79922485 453.13040161 C-48.78813386 449.25930536 -48.76305026 445.38845049 -48.73748779 441.51742554 C-48.72744366 438.87419974 -48.71832034 436.23097027 -48.71014404 433.58773804 C-48.68823094 427.14755313 -48.6548656 420.70750659 -48.61248779 414.26742554 C-52.48668101 415.55882328 -52.97257201 417.02289959 -55.11248779 420.45492554 C-59.85022916 427.7603844 -65.12224819 434.51604281 -70.61248779 441.26742554 C-71.0338501 441.7946521 -71.4552124 442.32187866 -71.88934326 442.86508179 C-78.92428634 451.63335133 -86.75523214 459.61839822 -94.67498779 467.57992554 C-95.43517715 468.34801544 -95.43517715 468.34801544 -96.21072388 469.13162231 C-120.94273184 494.06207819 -120.94273184 494.06207819 -135.48748779 494.57992554 C-144.78617373 494.29899847 -150.73337799 491.25312101 -157.43670654 484.77914429 C-163.20489169 478.12035964 -164.3059518 471.02206529 -163.99139404 462.37680054 C-162.70045152 451.78308666 -155.87901827 444.76147717 -147.79998779 438.39242554 C-135.44579754 428.55008309 -124.17939236 416.82398778 -114.61248779 404.26742554 C-113.80811279 403.25680054 -113.00373779 402.24617554 -112.17498779 401.20492554 C-107.70099222 395.56372639 -103.41876586 389.77886929 -99.36248779 383.82992554 C-98.75147217 382.97950684 -98.75147217 382.97950684 -98.12811279 382.11190796 C-96.84749475 380.27496759 -96.84749475 380.27496759 -95.61248779 377.26742554 C-96.12327288 374.23268406 -96.12327288 374.23268406 -97.61248779 371.26742554 C-98.46953879 368.76836094 -99.32363772 366.26842428 -100.17498779 363.76742554 C-100.39606201 363.1293396 -100.61713623 362.49125366 -100.84490967 361.83383179 C-103.39783697 354.29074145 -103.84667053 347.28680592 -103.92498779 339.39242554 C-103.9539917 338.45656616 -103.98299561 337.52070679 -104.01287842 336.55648804 C-104.1655674 319.07947194 -96.71515664 302.5883993 -90.7230835 286.47640991 C-89.53529345 283.28253145 -88.36252709 280.08337175 -87.19360161 276.88254929 C-81.91314857 262.44298271 -76.63000047 248.4363879 -68.61248779 235.26742554 C-69.33951904 234.74535522 -70.06655029 234.22328491 -70.81561279 233.68539429 C-88.04356077 221.07365289 -100.66439511 207.22889078 -110.61248779 188.26742554 C-111.09588623 187.35476929 -111.57928467 186.44211304 -112.07733154 185.50180054 C-115.88041003 177.78004848 -117.80892146 169.63986335 -119.61248779 161.26742554 C-119.90639404 159.91390991 -119.90639404 159.91390991 -120.20623779 158.53305054 C-123.85967966 129.16499859 -116.59117965 101.11796859 -98.79998779 77.57992554 C-87.29453701 62.91900854 -69.89638029 46.37962794 -51.54998779 41.01742554 C-47.99278254 38.89823943 -47.98127189 38.08774317 -46.98748779 34.20492554 C-46.77608154 33.23039429 -46.56467529 32.25586304 -46.34686279 31.25180054 C-43.66160348 20.33936374 -36.85257855 12.32481836 -27.61248779 6.26742554 C-18.45400912 0.91915364 -10.49034715 -0.02739332 0 0 Z " fill="#FAF0CE" transform="translate(170.61248779296875,-0.267425537109375)"/>
<path d="M0 0 C1.27228809 -0.00453111 2.54457617 -0.00906223 3.85541844 -0.01373065 C7.37568355 -0.02593392 10.89585342 -0.02570335 14.41613483 -0.02334189 C18.21722685 -0.02293305 22.01828861 -0.03397936 25.81936646 -0.04345703 C33.26239376 -0.06005349 40.70538939 -0.06556597 48.14843366 -0.06668179 C54.20033211 -0.06763293 60.25222014 -0.07174657 66.3041153 -0.07808304 C83.47235012 -0.09569201 100.64055997 -0.10492249 117.80880389 -0.10342209 C119.19644615 -0.10330222 119.19644615 -0.10330222 120.61212158 -0.10317993 C121.53834947 -0.10309817 122.46457735 -0.10301641 123.41887274 -0.10293217 C138.42631408 -0.10211944 153.43365501 -0.12125469 168.44106731 -0.14945666 C183.86036839 -0.17820339 199.27962054 -0.19199596 214.6989491 -0.19026911 C223.35177937 -0.18960581 232.00450439 -0.19507171 240.65731049 -0.21662521 C248.02510847 -0.2348606 255.39275349 -0.23916507 262.7605643 -0.22560637 C266.51692706 -0.21908846 270.27299657 -0.21891648 274.02933121 -0.23631287 C278.10880461 -0.25501079 282.18760275 -0.24245846 286.26708984 -0.22705078 C287.44424962 -0.23733791 288.62140939 -0.24762503 289.83424067 -0.25822389 C302.12854594 -0.15583564 312.55899804 3.83405143 321.54766846 12.30258179 C330.32313155 21.6029324 334.72236954 32.25917368 334.64478111 45.05590343 C334.64828719 45.80074711 334.65179326 46.54559078 334.65540558 47.31300548 C334.66467952 49.79879822 334.65980669 52.28435462 334.65493774 54.77015686 C334.65867603 56.57446079 334.66327826 58.3787631 334.66866839 60.18306285 C334.68089184 65.13379802 334.68063869 70.08446558 334.67827964 75.0352124 C334.67787131 80.37757588 334.68891223 85.71991773 334.69839478 91.06227112 C334.71500235 101.52646474 334.72050422 111.99063582 334.72161953 122.45484152 C334.72257015 130.96188483 334.72668117 139.46892072 334.73302078 147.97596169 C334.75063281 172.10068409 334.75985975 196.22538871 334.75835983 220.35011759 C334.75827992 221.65048302 334.75820001 222.95084845 334.75811768 224.2906189 C334.75803591 225.59257412 334.75795415 226.89452934 334.75786991 228.23593775 C334.75705711 249.33341984 334.77619359 270.43083052 334.80439441 291.52829196 C334.83312946 313.19660088 334.84693435 334.86487497 334.84520686 356.53320342 C334.84454315 368.69604719 334.85002683 380.85881609 334.87156296 393.02164268 C334.88978292 403.37792227 334.89411535 413.73409308 334.88054411 424.09038176 C334.87401855 429.37199401 334.87388255 434.65339759 334.89125061 439.93498993 C334.90700438 444.77556809 334.90409405 449.61577255 334.88668235 454.45634172 C334.88361753 456.20194986 334.88722516 457.94758605 334.8984025 459.69316109 C334.99344391 475.59665596 332.52731158 488.45380352 321.32110596 500.48617554 C313.80121357 507.6966627 304.56041357 512.38165478 294.05622101 512.40164661 C292.96883778 512.40610446 291.88145455 512.4105623 290.76112032 512.41515523 C288.96991172 512.41487869 288.96991172 512.41487869 287.14251709 512.41459656 C285.87349784 512.41827325 284.6044786 512.42194993 283.29700422 512.42573804 C279.77191637 512.43574913 276.24684554 512.4394734 272.72174549 512.44212735 C268.92058909 512.44603313 265.11944614 512.45561138 261.31829834 512.46434021 C252.13629313 512.48409843 242.95428683 512.49417069 233.77226567 512.503068 C229.44633618 512.50745256 225.1204079 512.51281899 220.79447937 512.51805687 C206.41015121 512.53506964 192.0258238 512.54956274 177.64148712 512.55680561 C173.90904235 512.55871545 170.17659758 512.56063579 166.44415283 512.56259155 C165.51649075 512.56307529 164.58882868 512.56355903 163.63305563 512.56405743 C148.61317104 512.57235369 133.59336621 512.59768355 118.57351643 512.63017223 C103.14640096 512.66326921 87.71932597 512.68125682 72.29217482 512.68444985 C63.63311284 512.68661267 54.9741671 512.69532764 46.31513977 512.72091103 C38.93888819 512.74265422 31.56278108 512.75065075 24.18650109 512.74094424 C20.42597887 512.73640978 16.6657545 512.73823545 12.90527344 512.75770569 C8.81943332 512.77867681 4.73424921 512.76831916 0.64837646 512.75517273 C-1.11606347 512.7716266 -1.11606347 512.7716266 -2.91614866 512.78841287 C-16.20384516 512.68552923 -25.75731523 508.65519997 -35.36248779 499.70492554 C-47.13800247 486.94811797 -48.95781875 473.74743448 -48.80780029 456.84555054 C-48.8049704 455.61955139 -48.8021405 454.39355225 -48.79922485 453.13040161 C-48.78813386 449.25930536 -48.76305026 445.38845049 -48.73748779 441.51742554 C-48.72744366 438.87419974 -48.71832034 436.23097027 -48.71014404 433.58773804 C-48.68823094 427.14755313 -48.6548656 420.70750659 -48.61248779 414.26742554 C-52.48668101 415.55882328 -52.97257201 417.02289959 -55.11248779 420.45492554 C-59.85022916 427.7603844 -65.12224819 434.51604281 -70.61248779 441.26742554 C-71.0338501 441.7946521 -71.4552124 442.32187866 -71.88934326 442.86508179 C-78.92428634 451.63335133 -86.75523214 459.61839822 -94.67498779 467.57992554 C-95.43517715 468.34801544 -95.43517715 468.34801544 -96.21072388 469.13162231 C-120.94273184 494.06207819 -120.94273184 494.06207819 -135.48748779 494.57992554 C-144.78617373 494.29899847 -150.73337799 491.25312101 -157.43670654 484.77914429 C-163.20489169 478.12035964 -164.3059518 471.02206529 -163.99139404 462.37680054 C-162.70045152 451.78308666 -155.87901827 444.76147717 -147.79998779 438.39242554 C-135.44579754 428.55008309 -124.17939236 416.82398778 -114.61248779 404.26742554 C-113.80811279 403.25680054 -113.00373779 402.24617554 -112.17498779 401.20492554 C-107.70099222 395.56372639 -103.41876586 389.77886929 -99.36248779 383.82992554 C-98.75147217 382.97950684 -98.75147217 382.97950684 -98.12811279 382.11190796 C-96.84749475 380.27496759 -96.84749475 380.27496759 -95.61248779 377.26742554 C-96.12327288 374.23268406 -96.12327288 374.23268406 -97.61248779 371.26742554 C-98.46953879 368.76836094 -99.32363772 366.26842428 -100.17498779 363.76742554 C-100.39606201 363.1293396 -100.61713623 362.49125366 -100.84490967 361.83383179 C-103.39783697 354.29074145 -103.84667053 347.28680592 -103.92498779 339.39242554 C-103.9539917 338.45656616 -103.98299561 337.52070679 -104.01287842 336.55648804 C-104.1655674 319.07947194 -96.71515664 302.5883993 -90.7230835 286.47640991 C-89.53529345 283.28253145 -88.36252709 280.08337175 -87.19360161 276.88254929 C-81.91314857 262.44298271 -76.63000047 248.4363879 -68.61248779 235.26742554 C-69.33951904 234.74535522 -70.06655029 234.22328491 -70.81561279 233.68539429 C-88.04356077 221.07365289 -100.66439511 207.22889078 -110.61248779 188.26742554 C-111.09588623 187.35476929 -111.57928467 186.44211304 -112.07733154 185.50180054 C-115.88041003 177.78004848 -117.80892146 169.63986335 -119.61248779 161.26742554 C-119.90639404 159.91390991 -119.90639404 159.91390991 -120.20623779 158.53305054 C-123.85967966 129.16499859 -116.59117965 101.11796859 -98.79998779 77.57992554 C-87.29453701 62.91900854 -69.89638029 46.37962794 -51.54998779 41.01742554 C-47.99278254 38.89823943 -47.98127189 38.08774317 -46.98748779 34.20492554 C-46.77608154 33.23039429 -46.56467529 32.25586304 -46.34686279 31.25180054 C-43.66160348 20.33936374 -36.85257855 12.32481836 -27.61248779 6.26742554 C-18.45400912 0.91915364 -10.49034715 -0.02739332 0 0 Z M-0.45623779 54.32601929 C-3.34304761 59.17312902 -3.86486633 63.83239558 -3.87991333 69.38897705 C-3.88444444 70.08266297 -3.88897556 70.7763489 -3.89364398 71.49105561 C-3.90625045 73.80313699 -3.90467007 76.11498168 -3.90301514 78.42709351 C-3.9090027 80.08985699 -3.91580877 81.75261769 -3.92337036 83.41537476 C-3.94101338 87.92369221 -3.945725 92.4319337 -3.94700193 96.94028234 C-3.94842493 99.75890356 -3.95269734 102.57750555 -3.95799637 105.39612198 C-3.9764903 115.23490879 -3.98466769 125.07364145 -3.98309326 134.91244507 C-3.9818917 144.07495 -4.00299851 153.23721942 -4.03458059 162.39966476 C-4.06075335 170.27416682 -4.07146015 178.148592 -4.07018244 186.02313721 C-4.06967315 190.72273234 -4.07533848 195.42211807 -4.09653854 200.12166977 C-4.11593806 204.54260424 -4.11603378 208.96312988 -4.10150528 213.38407898 C-4.09941828 215.00296248 -4.10411164 216.62187169 -4.1162262 218.24071121 C-4.17496822 226.63659074 -3.8439251 232.87219341 0.38751221 240.26742554 C-0.82583698 243.47722205 -2.7709932 245.74078884 -4.98748779 248.32992554 C-10.85304324 255.82412164 -13.35001783 263.62731604 -13.00311279 273.14242554 C-11.5985121 284.37923106 -7.7830112 292.5508201 0.38751221 300.26742554 C0.09876221 300.96867554 -0.18998779 301.66992554 -0.48748779 302.39242554 C-2.47410583 307.46933829 -3.86202396 311.72581324 -3.8731842 317.21882629 C-3.88026901 318.38652557 -3.88735382 319.55422485 -3.89465332 320.75730896 C-3.8921759 322.02449265 -3.88969849 323.29167633 -3.887146 324.59725952 C-3.89149708 325.95623046 -3.89668155 327.31519895 -3.90263367 328.67416382 C-3.91599191 332.35394103 -3.91660593 336.03361533 -3.91407037 339.71341205 C-3.91299856 342.78989803 -3.91788934 345.86636338 -3.92267579 348.94284493 C-3.93375985 356.20282835 -3.93421449 363.46276002 -3.92816162 370.7227478 C-3.92212108 378.20272137 -3.93443733 385.68250686 -3.95573169 393.16244835 C-3.97336573 399.59406017 -3.97934624 406.02561222 -3.97609395 412.45724732 C-3.97428392 416.29437474 -3.97688919 420.13136798 -3.99080849 423.96847343 C-4.00341177 427.57762507 -4.00141936 431.18648411 -3.9883976 434.79563141 C-3.98491616 436.74443326 -3.99619117 438.69324415 -4.00796509 440.64201355 C-3.9545199 449.56072307 -2.71950545 455.90382489 3.53120428 462.576024 C9.73534392 468.22901465 17.14062422 468.84830452 25.17268372 468.76863098 C26.22420197 468.77416538 27.27572022 468.77969977 28.35910267 468.78540188 C31.86434079 468.79895878 35.36886076 468.78406552 38.87408447 468.76913452 C41.39442242 468.77291946 43.91475828 468.77842093 46.43508911 468.7855072 C52.55877982 468.79800835 58.68220644 468.7919093 64.80588383 468.77683162 C71.94307698 468.75993046 79.08021919 468.76318691 86.21742617 468.7669257 C98.9547459 468.77279789 111.69196662 468.75865739 124.42926025 468.73397827 C136.77825633 468.71005432 149.12712017 468.70297679 161.47613525 468.71347046 C174.93723337 468.7248887 188.3982704 468.72679893 201.85936779 468.71237236 C203.29563359 468.71084659 204.73189939 468.70932623 206.16816521 468.70781136 C206.87476096 468.70705354 207.58135671 468.70629573 208.30936446 468.70551495 C213.28005454 468.70077952 218.25071728 468.70261826 223.22140694 468.70687675 C229.91505607 468.71232771 236.60849548 468.70152701 243.30212021 468.6799221 C245.75791113 468.67436011 248.21371965 468.67388352 250.6695118 468.67887497 C254.02298524 468.68483596 257.37590109 468.67230626 260.72932434 468.65510559 C261.69985624 468.66111564 262.67038815 468.66712568 263.67033011 468.67331785 C271.69544064 468.59852693 278.43245236 467.05706706 284.38751221 461.26742554 C290.77820563 453.05081971 290.68547378 445.25759895 290.67803955 435.23886108 C290.68475677 433.9371698 290.691474 432.63547852 290.69839478 431.29434204 C290.71599195 427.7383944 290.72074749 424.18254314 290.72202635 420.62655616 C290.72345211 418.40039375 290.72772973 416.17425552 290.73302078 413.94809914 C290.75150048 406.16886476 290.75969401 398.38969872 290.75811768 390.61044312 C290.75691693 383.37982531 290.77801131 376.14950632 290.809605 368.91896409 C290.83582884 362.69365093 290.84648242 356.468435 290.84520686 350.24306709 C290.844699 346.53267727 290.85028368 342.82255323 290.87156296 339.11221886 C290.89467636 334.9693321 290.8853873 330.82710743 290.87335205 326.68417358 C290.88459106 325.46877396 290.89583008 324.25337433 290.90740967 323.00114441 C290.83314556 312.91326186 288.78753344 305.08719425 281.65704346 297.74008179 C275.38773362 293.67204425 268.57047139 292.82664102 261.25688171 292.90666199 C260.38347879 292.90409871 259.51007587 292.90153544 258.61020619 292.89889449 C255.70822662 292.89398625 252.80677714 292.91040031 249.90484619 292.92684937 C247.81487541 292.92769628 245.72490374 292.92721924 243.63493347 292.92552185 C237.97854328 292.92466298 232.32234489 292.94227131 226.66599917 292.96324372 C220.74831544 292.98202854 214.83062704 292.98376239 208.91291809 292.98731995 C197.71464666 292.99663509 186.51646336 293.02124176 175.31823069 293.05136842 C162.56616092 293.08492888 149.81408689 293.10140259 137.06198394 293.11645472 C110.83711122 293.14779173 84.61231666 293.20054197 58.38751221 293.26742554 C58.73684814 292.44758179 59.08618408 291.62773804 59.44610596 290.78305054 C59.90114502 289.70539429 60.35618408 288.62773804 60.82501221 287.51742554 C61.27747314 286.45008179 61.72993408 285.38273804 62.19610596 284.28305054 C65.98838837 274.68422424 65.25943689 264.99956346 61.45782471 255.50961304 C60.35833741 253.0696633 60.35833741 253.0696633 58.38751221 250.26742554 C59.48726851 250.26688077 60.58702482 250.266336 61.72010708 250.26577473 C88.48641014 250.25137579 115.25255063 250.20834446 142.01875973 250.13533497 C154.96274129 250.10069006 167.90661641 250.07533008 180.85064697 250.0718689 C192.13339572 250.06882833 203.41595487 250.04832517 214.69863039 250.00690097 C220.67210339 249.98557797 226.64530689 249.97296695 232.61881828 249.98127174 C238.24383839 249.98881603 243.86831262 249.97297286 249.49323273 249.93936539 C251.55512191 249.93113681 253.61706542 249.93137659 255.67894936 249.94082832 C258.5009355 249.95248135 261.32114177 249.93328464 264.14299011 249.90666199 C264.95332842 249.91733525 265.76366673 249.92800851 266.59856075 249.9390052 C273.38839901 249.82001682 278.92554176 247.3956899 283.98396915 242.8248542 C288.76212312 237.49840381 289.63586772 232.01812446 289.66166687 225.06994629 C289.66690355 224.36809326 289.67214023 223.66624023 289.67753559 222.94311893 C289.69247573 220.60340872 289.69323941 218.26391836 289.69390869 215.92416382 C289.70153412 214.24169549 289.70996228 212.55923064 289.71913147 210.87677002 C289.74104327 206.31474342 289.7498707 201.75278382 289.75495791 197.19071054 C289.75860487 194.33858734 289.76484664 191.48648161 289.7719593 188.63436508 C289.79644055 178.6788735 289.80950321 168.72343395 289.81304932 158.76791382 C289.81668539 149.49630011 289.84658926 140.22501726 289.8884539 130.95350468 C289.92316772 122.98558487 289.93859793 115.01777468 289.93929535 107.04977977 C289.94008767 102.29423901 289.94880617 97.53903559 289.97729301 92.78357315 C290.00349302 88.31004882 290.00566824 83.83714111 289.98963737 79.36357498 C289.98782452 77.72533319 289.99449891 76.08705577 290.01045609 74.44889069 C290.24715071 62.40267555 290.24715071 62.40267555 284.38751221 52.26742554 C278.03271246 45.91262579 271.42624792 43.94452392 262.70116532 43.85687113 C261.73520648 43.86219905 260.76924765 43.86752698 259.77401733 43.87301636 C258.72884819 43.86692525 257.68367904 43.86083415 256.60683811 43.85455847 C253.11711398 43.8379569 249.62775587 43.84270035 246.13800049 43.84750366 C243.63090639 43.84016173 241.12381568 43.83157514 238.61672974 43.82183838 C232.5210305 43.80193277 226.42546513 43.796241 220.3297378 43.79802626 C215.37290872 43.79933604 210.41610924 43.7955188 205.45928574 43.7881012 C204.02921419 43.78600191 202.59914263 43.78390431 201.16907108 43.78180838 C200.457193 43.78076485 199.74531491 43.77972132 199.01186477 43.77864617 C185.56122052 43.75976153 172.11063086 43.7607886 158.65997885 43.7676155 C146.36782406 43.77319025 134.07587773 43.75236536 121.78377165 43.71925503 C109.14765349 43.68548349 96.51163511 43.67035396 83.875471 43.67497206 C76.78705252 43.67721318 69.69882674 43.67202605 62.61044693 43.64707947 C55.94381111 43.62381596 49.27767957 43.62669094 42.61101151 43.64700699 C40.16733971 43.65041688 37.72363871 43.64532899 35.28000641 43.63102341 C31.93782498 43.61281083 28.59711213 43.62559684 25.25497437 43.64596558 C23.81272828 43.6271888 23.81272828 43.6271888 22.34134591 43.6080327 C13.02396475 43.72934258 5.52325558 47.11238629 -0.45623779 54.32601929 Z " fill="#D1986F" transform="translate(170.61248779296875,-0.267425537109375)"/>
<path d="M0 0 C32.80780794 -0.09162512 65.61558261 -0.16207401 98.42348938 -0.20426132 C102.29982321 -0.20926394 106.17615678 -0.21444125 110.05249023 -0.21972656 C110.82417405 -0.2207758 111.59585786 -0.22182505 112.39092603 -0.22290608 C124.87362991 -0.2402948 137.35625985 -0.271824 149.83891992 -0.30861118 C162.65443905 -0.34606336 175.46991955 -0.36824488 188.28549117 -0.37635398 C196.18863127 -0.38183291 204.09156232 -0.39911569 211.99463805 -0.43166587 C218.06241487 -0.45537873 224.13001319 -0.45780908 230.19784164 -0.45243073 C232.68141019 -0.4535291 235.16498681 -0.46145806 237.64850807 -0.4768219 C241.04747905 -0.49681358 244.44556596 -0.49190496 247.84455872 -0.48101807 C248.82027307 -0.49266943 249.79598742 -0.5043208 250.80126888 -0.51632524 C262.44717108 -0.41595718 272.70646138 4.07064445 281.16015625 12.03515625 C289.93561935 21.33550686 294.33485733 31.99174814 294.25726891 44.7884779 C294.26077498 45.53332157 294.26428105 46.27816525 294.26789337 47.04557994 C294.27716731 49.53137269 294.27229448 52.01692909 294.26742554 54.50273132 C294.27116382 56.30703525 294.27576605 58.11133756 294.28115618 59.91563731 C294.29337963 64.86637249 294.29312648 69.81704005 294.29076743 74.76778686 C294.2903591 80.11015034 294.30140002 85.45249219 294.31088257 90.79484558 C294.32749014 101.2590392 294.33299201 111.72321028 294.33410732 122.18741598 C294.33505795 130.6944593 294.33916896 139.20149518 294.34550858 147.70853615 C294.3631206 171.83325855 294.37234755 195.95796317 294.37084763 220.08269205 C294.37076772 221.38305748 294.3706878 222.68342291 294.37060547 224.02319336 C294.37052371 225.32514858 294.37044195 226.6271038 294.37035771 227.96851221 C294.3695449 249.06599431 294.38868138 270.16340499 294.4168822 291.26086643 C294.44561726 312.92917534 294.45942214 334.59744944 294.45769465 356.26577789 C294.45703095 368.42862165 294.46251462 380.59139056 294.48405075 392.75421715 C294.50227072 403.11049674 294.50660315 413.46666754 294.4930319 423.82295623 C294.48650634 429.10456847 294.48637035 434.38597206 294.5037384 439.66756439 C294.51949217 444.50814255 294.51658184 449.34834701 294.49917014 454.18891618 C294.49610533 455.93452432 294.49971295 457.68016051 294.51089029 459.42573556 C294.60593171 475.32923042 292.13979938 488.18637799 280.93359375 500.21875 C272.76293101 508.05323162 263.37629379 512.06770938 252.13241577 512.20100403 C251.44184983 512.21032524 250.75128389 512.21964646 250.0397917 512.22925013 C247.72626561 512.25898992 245.4127294 512.28158636 243.09912109 512.30395508 C241.43989774 512.32331928 239.7806774 512.34294343 238.12145996 512.36280823 C222.97951035 512.53611442 207.83657767 512.62976159 192.69385338 512.70387745 C181.50578062 512.75978291 170.31943518 512.85452925 159.13215578 512.99953538 C151.25941081 513.09813764 143.38714016 513.1506357 135.51380599 513.16973227 C130.81434551 513.18248444 126.11712532 513.21573336 121.41834641 513.29932594 C116.99337084 513.37722342 112.57171852 513.39782278 108.14614868 513.37558556 C106.52795359 513.37728199 104.90962329 513.39933398 103.29204178 513.44392395 C91.42452593 513.75416012 91.42452593 513.75416012 87.36835718 510.81949592 C83.99857518 507.61245403 81.4904629 503.92255396 79 500 C78.05627079 498.6874418 77.10879078 497.37753871 76.15234375 496.07421875 C75.40575413 494.95078987 74.66726007 493.82193324 73.9375 492.6875 C73.53611816 492.07430908 73.13473633 491.46111816 72.72119141 490.8293457 C69.69300721 486.16508937 66.76155215 481.44050126 63.875 476.6875 C63.4843335 476.04707764 63.09366699 475.40665527 62.69116211 474.74682617 C60 470.2423873 60 470.2423873 60 468 C61.31087082 467.99641747 61.31087082 467.99641747 62.64822388 467.99276257 C83.923027 467.93359891 105.19771697 467.85803999 126.47239685 467.76428509 C136.76072159 467.71934011 147.04901181 467.67992241 157.33740234 467.65356445 C166.30588583 467.63057391 175.27425996 467.59716398 184.24265671 467.55129844 C188.99033983 467.52738054 193.73791476 467.50864235 198.48565674 467.50238609 C202.95739485 467.49632879 207.42885616 467.47630553 211.90049171 467.44572449 C213.53869516 467.43695463 215.17693479 467.4332195 216.81516075 467.43499184 C230.26023783 467.69152333 230.26023783 467.69152333 241.8125 461.5625 C242.534375 460.716875 243.25625 459.87125 244 459 C244.556875 458.38125 245.11375 457.7625 245.6875 457.125 C249.88347305 450.33151982 249.29624879 442.68193909 249.29052734 434.97143555 C249.29724457 433.66974426 249.30396179 432.36805298 249.31088257 431.0269165 C249.32847974 427.47096886 249.33323529 423.9151176 249.33451414 420.35913062 C249.3359399 418.13296821 249.34021753 415.90682998 249.34550858 413.6806736 C249.36398828 405.90143922 249.3721818 398.12227318 249.37060547 390.34301758 C249.36940472 383.11239978 249.39049911 375.88208078 249.4220928 368.65153855 C249.44831663 362.42622539 249.45897021 356.20100946 249.45769465 349.97564155 C249.45718679 346.26525173 249.46277148 342.55512769 249.48405075 338.84479332 C249.50716415 334.70190656 249.49787509 330.55968189 249.48583984 326.41674805 C249.49707886 325.20134842 249.50831787 323.98594879 249.51989746 322.73371887 C249.45898898 314.46003627 248.29252038 307.23614993 243.10546875 300.5625 C242.15607422 299.7890625 242.15607422 299.7890625 241.1875 299 C240.56230469 298.46375 239.93710937 297.9275 239.29296875 297.375 C233.53785432 293.9238922 227.6348368 293.70583512 221.10987854 293.7215271 C219.80233743 293.7128385 219.80233743 293.7128385 218.46838135 293.70397437 C215.56034451 293.68702872 212.65246691 293.68410254 209.74438477 293.68115234 C207.65470493 293.67185042 205.5650288 293.66168136 203.47535706 293.65071106 C197.81067084 293.62342683 192.14600947 293.60826626 186.48127484 293.59528303 C180.55820191 293.57964565 174.63517966 293.55285734 168.71214294 293.5272522 C157.49969989 293.48047523 146.28724729 293.44372583 135.07475656 293.41057932 C122.30817941 293.37235034 109.54165317 293.32294218 96.77511895 293.27259517 C70.51678371 293.16929137 44.25841576 293.08002587 18 293 C18.47466734 291.56751168 18.95007068 290.13526722 19.42578125 288.703125 C19.82277222 287.50671387 19.82277222 287.50671387 20.2277832 286.28613281 C20.8542483 284.43149509 21.51567057 282.58869106 22.1875 280.75 C24.73911434 268.97331841 22.29752108 259.5243531 17 249 C18.10491004 248.99945523 19.20982008 248.99891047 20.34821224 248.99834919 C47.23969292 248.98395038 74.1310118 248.9409196 101.02239895 248.86790943 C114.02691458 248.83326422 127.03132427 248.8079045 140.03588867 248.80444336 C151.37137473 248.80140284 162.70667206 248.78090025 174.04208523 248.73947543 C180.04350355 248.71815206 186.04465362 248.70554161 192.04611015 248.71384621 C197.6973941 248.72139025 203.34813467 248.7055483 208.99931908 248.67193985 C211.07088368 248.66371098 213.14250235 248.6639514 215.21406174 248.67340279 C218.04918221 248.68505499 220.88253076 248.66586027 223.71751404 248.63923645 C224.5317433 248.64990971 225.34597256 248.66058297 226.18487543 248.67157966 C233.50635213 248.54385478 239.26715695 245.73284305 244.4375 240.5625 C247.57298652 235.42030211 248.25201767 230.7644148 248.27415466 224.80252075 C248.27939134 224.10066772 248.28462802 223.39881469 248.29002339 222.67569339 C248.30496352 220.33598318 248.3057272 217.99649282 248.30639648 215.65673828 C248.31402191 213.97426995 248.32245007 212.2918051 248.33161926 210.60934448 C248.35353106 206.04731788 248.36235849 201.48535829 248.36744571 196.92328501 C248.37109266 194.07116181 248.37733444 191.21905607 248.3844471 188.36693954 C248.40892834 178.41144797 248.421991 168.45600842 248.42553711 158.50048828 C248.42917318 149.22887457 248.45907705 139.95759172 248.50094169 130.68607914 C248.53565551 122.71815933 248.55108572 114.75034915 248.55178314 106.78235424 C248.55257547 102.02681348 248.56129396 97.27161005 248.58978081 92.51614761 C248.61598081 88.04262328 248.61815603 83.56971557 248.60212517 79.09614944 C248.60031231 77.45790765 248.6069867 75.81963023 248.62294388 74.18146515 C248.85642132 62.13935835 248.85642132 62.13935835 243 52 C237.38612617 46.38612617 230.58742285 44.67485386 222.8951869 44.58658296 C221.57609099 44.59385432 221.57609099 44.59385432 220.23034668 44.60127258 C219.27612713 44.59462576 218.32190759 44.58797893 217.3387723 44.58113068 C214.15737884 44.56255271 210.97636321 44.56510251 207.79492188 44.56762695 C205.50805126 44.55860664 203.22118548 44.54827876 200.93432617 44.53674316 C194.73663766 44.50917887 188.53904092 44.49988935 182.34129906 44.49388909 C175.86034895 44.48450402 169.37946734 44.45830047 162.89855957 44.43388367 C152.02418022 44.39517842 141.14981916 44.3668239 130.27539062 44.34643555 C119.07744707 44.32541219 107.8795475 44.29812528 96.68164062 44.26245117 C95.99075944 44.26025235 95.29987825 44.25805352 94.58806127 44.25578807 C91.12192148 44.24471807 87.6557821 44.23352533 84.18964291 44.22227156 C55.45980179 44.12915095 26.72993279 44.05774444 -2 44 C-1.40928851 29.32908175 -0.76234816 14.6630369 0 0 Z " fill="#DAA985" transform="translate(211,0)"/>
<path d="M0 0 C0.86857311 -0.00809767 1.73714622 -0.01619534 2.63203973 -0.0245384 C5.53691439 -0.04306512 8.43906307 -0.01164413 11.34379578 0.01968384 C13.42857989 0.01674641 15.51336161 0.01077015 17.59812927 0.00198364 C23.25765921 -0.01284383 28.91621267 0.01599601 34.57560754 0.05341673 C40.50110218 0.0860363 46.42657445 0.08132471 52.35214233 0.08135986 C62.30639612 0.08692585 72.26027561 0.11925438 82.21440125 0.1690979 C93.71376721 0.2265104 105.21277577 0.24940928 116.71227676 0.25198209 C128.96229503 0.25491012 141.21218216 0.28074363 153.46215034 0.31454897 C156.98737562 0.32289788 160.51258775 0.32725174 164.03782082 0.33082199 C169.58567591 0.33774544 175.13326418 0.36022852 180.68101501 0.39459229 C182.71387997 0.40492372 184.7467776 0.41025573 186.77966881 0.41014481 C189.5615579 0.41091621 192.34273841 0.43020297 195.12451172 0.45410156 C195.92297541 0.45013788 196.72143911 0.44617419 197.54409868 0.44209039 C203.96635454 0.52948365 210.07291463 1.79864559 215.52226257 5.33462524 C223.71791887 13.7792635 224.84535321 22.84749572 224.75444031 34.24697876 C224.76254478 36.20258224 224.76254478 36.20258224 224.77081299 38.19769287 C224.78467321 41.74528509 224.77366581 45.29238719 224.75710177 48.83995175 C224.743159 52.56864294 224.74972167 56.29730832 224.75323486 60.02601624 C224.75592941 66.28415746 224.7425256 72.54210605 224.71928406 78.80020142 C224.69266736 86.01667243 224.69093371 93.23282184 224.70267242 100.44932514 C224.71348209 107.41722096 224.70723895 114.38500141 224.69311714 121.35288811 C224.68738608 124.3068206 224.68741714 127.26066787 224.69218254 130.21460152 C224.69787704 134.34536115 224.67855859 138.4756476 224.65678406 142.60635376 C224.66353653 144.42777641 224.66353653 144.42777641 224.67042542 146.28599548 C224.60145086 154.18184641 223.74127467 160.80656503 219.56523132 167.61196899 C213.05375921 173.94745537 207.21416703 175.98876304 198.2419281 175.98222351 C197.18324504 175.98350515 197.18324504 175.98350515 196.10317445 175.98481268 C193.73861288 175.98645957 191.37412229 175.98095904 189.00956726 175.97549438 C187.31441754 175.97521232 185.61926769 175.97537063 183.92411804 175.97593689 C179.32118524 175.9762241 174.71827843 175.97033969 170.11535168 175.96336293 C165.3053723 175.9571167 160.49539235 175.95652459 155.68540955 175.95533752 C146.57655021 175.95222796 137.46770286 175.94401961 128.35884881 175.93398803 C117.98894289 175.92281527 107.6190364 175.91731351 97.24912596 175.9122926 C75.91698772 175.9018367 54.58486028 175.8842445 33.25273132 175.86196899 C31.49845993 172.2201625 29.74830413 168.57639228 27.99882507 164.93228149 C27.50716858 163.91174683 27.01551208 162.89121216 26.50895691 161.8397522 C12.23707293 132.08337935 2.48956964 100.00710312 -4.74726868 67.86196899 C-5.01233215 66.69343384 -5.27739563 65.52489868 -5.55049133 64.32095337 C-8.32589557 51.98805402 -10.88664697 39.61702814 -13.12226868 27.17446899 C-13.2900885 26.26076538 -13.45790833 25.34706177 -13.6308136 24.40567017 C-14.06472335 21.89470727 -14.4320411 19.3904206 -14.74726868 16.86196899 C-14.90050598 15.67740112 -14.90050598 15.67740112 -15.05683899 14.46890259 C-15.36414823 10.21060293 -14.96669216 7.534728 -12.26418781 4.14753151 C-8.51960463 0.04362719 -5.35303378 -0.12195594 0 0 Z " fill="#FAF0CE" transform="translate(236.7472686767578,292.1380310058594)"/>
<path d="M0 0 C1.57705557 -0.00384491 1.57705557 -0.00384491 3.18597084 -0.0077675 C6.70218622 -0.01270137 10.21797042 0.00378148 13.73414612 0.02018738 C16.25731394 0.02103373 18.78048251 0.02055834 21.3036499 0.01885986 C26.73240055 0.01817713 32.16101283 0.02667569 37.58973503 0.04357338 C45.43865619 0.06798835 53.28752509 0.0757712 61.1364801 0.07953735 C73.87186462 0.08609793 86.60719138 0.10604838 99.34254456 0.13444519 C111.71135673 0.16199597 124.08015319 0.18322456 136.44898987 0.19596863 C137.21182167 0.1967568 137.97465348 0.19754497 138.76060139 0.19835702 C142.5876291 0.20227223 146.41465691 0.20606333 150.24168479 0.20979273 C181.97432168 0.24087637 213.70688604 0.29392493 245.43946838 0.36076355 C245.43946838 0.69076355 245.43946838 1.02076355 245.43946838 1.36076355 C168.87946838 1.36076355 92.31946838 1.36076355 13.43946838 1.36076355 C12.67740195 90.51543234 12.67740195 90.51543234 17.07228088 179.2709198 C17.45838296 183.98332235 17.5072028 188.63386893 17.43946838 193.36076355 C18.17294495 193.61857605 18.90642151 193.87638855 19.66212463 194.14201355 C29.25434642 198.35125855 34.93850821 207.33572314 38.81446838 216.67326355 C40.78087226 228.27504641 39.39004979 238.57070177 33.43946838 248.79826355 C31.43946838 251.36076355 31.43946838 251.36076355 29.18946838 253.67326355 C24.1584494 261.39947127 28.87038475 274.46289031 30.50196838 283.04826355 C30.65941528 283.88712097 30.81686218 284.72597839 30.9790802 285.59025574 C39.64045606 331.64454311 51.67845426 378.65738963 73.53248596 420.40641785 C74.43946838 422.36076355 74.43946838 422.36076355 74.43946838 424.36076355 C63.51235458 424.45365226 52.58533551 424.52462421 41.65790653 424.56801224 C36.58324244 424.58884172 31.5088495 424.61707434 26.43434143 424.66252136 C21.53247875 424.70614491 16.63087605 424.72993552 11.72883415 424.74027252 C9.86341195 424.74763433 7.99800315 424.76201006 6.13269234 424.78368378 C-13.92627486 425.0073793 -13.92627486 425.0073793 -21.90037537 418.43107605 C-22.69121521 417.46814636 -22.69121521 417.46814636 -23.49803162 416.48576355 C-24.04330505 415.84896667 -24.58857849 415.2121698 -25.15037537 414.55607605 C-28.02232085 410.0850695 -28.81051448 405.66763021 -28.82795715 400.42282104 C-28.83648712 399.25801208 -28.84501709 398.09320313 -28.85380554 396.89309692 C-28.85244598 394.99703453 -28.85244598 394.99703453 -28.85105896 393.06266785 C-28.85704877 391.70694104 -28.86385536 390.35121763 -28.87141418 388.99549866 C-28.88903611 385.3238608 -28.89376797 381.65231624 -28.89504576 377.98064017 C-28.89647016 375.68329961 -28.90074524 373.38598255 -28.90604019 371.08864784 C-28.92452839 363.06418484 -28.93271239 355.03978816 -28.93113708 347.01530457 C-28.92993625 339.55122835 -28.95103021 332.08744155 -28.98262441 324.62343854 C-29.00883092 318.20198486 -29.01950254 311.78062546 -29.01822627 305.35911876 C-29.01771788 301.5297008 -29.02333201 297.70054016 -29.04458237 293.87117577 C-29.06403873 290.26688069 -29.06403945 286.66308645 -29.0495491 283.05877304 C-29.04648274 281.11749578 -29.06308588 279.17621808 -29.08042908 277.23501587 C-29.03405344 270.74899619 -28.49243583 265.81357448 -25.41845131 260.04366779 C-24.40914021 258.37862027 -24.40914021 258.37862027 -24.56053162 256.36076355 C-25.28240662 255.65951355 -26.00428162 254.95826355 -26.74803162 254.23576355 C-34.51310515 246.66866639 -37.58257856 237.05175561 -37.99803162 226.36076355 C-37.70041408 216.77499889 -34.32403204 209.54956863 -28.14646912 202.3334198 C-26.55378593 200.35237298 -25.45903287 198.73749828 -24.56053162 196.36076355 C-25.16860657 195.29591232 -25.77668152 194.2310611 -26.40318298 193.13394165 C-29.94942458 186.63844529 -29.1175602 179.18358092 -29.07810974 171.98991394 C-29.08353569 170.32847481 -29.09066101 168.6670405 -29.09934998 167.00561523 C-29.11753149 162.50963949 -29.1105369 158.01403234 -29.09783363 153.51805043 C-29.0876774 148.80304962 -29.09710674 144.0880795 -29.1033783 139.37307739 C-29.11064779 131.4552598 -29.10108609 123.53759164 -29.08201599 115.61979675 C-29.06025611 106.47996793 -29.06729499 97.34049618 -29.08932161 88.20067602 C-29.10750451 80.33968627 -29.1100196 72.4788037 -29.09956694 64.6177997 C-29.09334691 59.9288466 -29.09245506 55.24006103 -29.10571289 50.55111885 C-29.11731265 46.14078723 -29.10917076 41.73091346 -29.08613586 37.32063103 C-29.0808704 35.70701735 -29.08232532 34.09336479 -29.09118652 32.47976685 C-29.18142149 14.37137497 -29.18142149 14.37137497 -22.86919403 7.52678013 C-15.99533266 0.99274366 -9.13642019 -0.08182783 0 0 Z " fill="#F6DEB6" transform="translate(195.56053161621094,43.63923645019531)"/>
<path d="M0 0 C0 123.75 0 247.5 0 375 C-1.32 375.33 -2.64 375.66 -4 376 C-5.86425504 378.2811631 -5.86425504 378.2811631 -7.5625 381.1875 C-12.25527099 388.51724396 -17.51254 395.25203537 -23 402 C-23.4213623 402.52722656 -23.84272461 403.05445313 -24.27685547 403.59765625 C-31.31179855 412.3659258 -39.14274435 420.35097268 -47.0625 428.3125 C-47.82268936 429.0805899 -47.82268936 429.0805899 -48.59823608 429.86419678 C-73.33024405 454.79465265 -73.33024405 454.79465265 -87.875 455.3125 C-97.17368594 455.03157293 -103.12089019 451.98569547 -109.82421875 445.51171875 C-115.5924039 438.8529341 -116.69346401 431.75463976 -116.37890625 423.109375 C-115.08796373 412.51566112 -108.26653047 405.49405163 -100.1875 399.125 C-87.83330975 389.28265756 -76.56690456 377.55656224 -67 365 C-66.195625 363.989375 -65.39125 362.97875 -64.5625 361.9375 C-60.08850443 356.29630085 -55.80627807 350.51144375 -51.75 344.5625 C-51.13898438 343.7120813 -51.13898438 343.7120813 -50.515625 342.84448242 C-49.23500696 341.00754206 -49.23500696 341.00754206 -48 338 C-48.51078509 334.96525853 -48.51078509 334.96525853 -50 332 C-50.857051 329.5009354 -51.71114992 327.00099874 -52.5625 324.5 C-52.78357422 323.86191406 -53.00464844 323.22382813 -53.23242188 322.56640625 C-55.78534918 315.02331591 -56.23418273 308.01938039 -56.3125 300.125 C-56.34150391 299.18914062 -56.37050781 298.25328125 -56.40039062 297.2890625 C-56.55307961 279.81204641 -49.10266885 263.32097376 -43.1105957 247.20898438 C-41.92280565 244.01510592 -40.7500393 240.81594621 -39.58111382 237.61512375 C-34.30066078 223.17555717 -29.01751268 209.16896236 -21 196 C-21.72703125 195.47792969 -22.4540625 194.95585937 -23.203125 194.41796875 C-40.43107297 181.80622735 -53.05190732 167.96146524 -63 149 C-63.48339844 148.08734375 -63.96679688 147.1746875 -64.46484375 146.234375 C-68.26792223 138.51262294 -70.19643367 130.37243781 -72 122 C-72.29390625 120.64648438 -72.29390625 120.64648438 -72.59375 119.265625 C-76.24719187 89.89757305 -68.97869185 61.85054305 -51.1875 38.3125 C-41.43393626 25.88393973 -17.42956304 0 0 0 Z " fill="#E7889D" transform="translate(123,39)"/>
<path d="M0 0 C0.14695313 1.16789062 0.29390625 2.33578125 0.4453125 3.5390625 C2.54528926 19.5122036 5.66158728 35.24426981 9 51 C9.35384766 52.68150146 9.35384766 52.68150146 9.71484375 54.39697266 C17.68955648 91.85446866 29.28824562 130.03216255 47.09301758 164.0456543 C48 166 48 166 48 168 C37.0728862 168.09288871 26.14586713 168.16386066 15.21843815 168.20724869 C10.14377406 168.22807817 5.06938112 168.25631079 -0.00512695 168.30175781 C-4.90698964 168.34538136 -9.80859233 168.36917197 -14.71063423 168.37950897 C-16.57605644 168.38687078 -18.44146523 168.40124651 -20.30677605 168.42292023 C-40.36574325 168.64661575 -40.36574325 168.64661575 -48.33984375 162.0703125 C-48.86707031 161.42835938 -49.39429688 160.78640625 -49.9375 160.125 C-50.48277344 159.48820313 -51.02804688 158.85140625 -51.58984375 158.1953125 C-54.46178924 153.72430595 -55.24998286 149.30686666 -55.26742554 144.0620575 C-55.27595551 142.89724854 -55.28448547 141.73243958 -55.29327393 140.53233337 C-55.29236755 139.26829178 -55.29146118 138.00425018 -55.29052734 136.7019043 C-55.29651716 135.34617749 -55.30332374 133.99045408 -55.31088257 132.63473511 C-55.32850449 128.96309725 -55.33323635 125.29155269 -55.33451414 121.61987662 C-55.33593854 119.32253606 -55.34021362 117.025219 -55.34550858 114.72788429 C-55.36399677 106.70342129 -55.37218077 98.67902461 -55.37060547 90.65454102 C-55.36940463 83.1904648 -55.39049859 75.726678 -55.4220928 68.26267499 C-55.44829931 61.84122131 -55.45897093 55.41986191 -55.45769465 48.99835521 C-55.45718627 45.16893725 -55.46280039 41.33977661 -55.48405075 37.51041222 C-55.50350711 33.90611714 -55.50350784 30.3023229 -55.48901749 26.69800949 C-55.48595113 24.75673223 -55.50255427 22.81545453 -55.51989746 20.87425232 C-55.46853508 13.69079534 -54.61478658 8.26786716 -51 2 C-47.263486 2 -45.35935704 3.20552937 -42.0625 4.9375 C-33.4043026 9.47581165 -25.06017712 10.65941323 -15.43359375 8.0234375 C-11.48747819 6.55991797 -3.38957707 0 0 0 Z " fill="#F7DFB7" transform="translate(222,300)"/>
<path d="M0 0 C1.19036865 0.43699219 1.19036865 0.43699219 2.40478516 0.8828125 C5.47272286 2.00888861 8.54077201 3.13466019 11.60888672 4.26025391 C12.91361601 4.73898117 14.21830612 5.21781524 15.52294922 5.69677734 C27.67267295 10.15704225 39.8365616 14.57693149 52 19 C52 46.72 52 74.44 52 103 C50.68 103.33 49.36 103.66 48 104 C46.13574496 106.2811631 46.13574496 106.2811631 44.4375 109.1875 C39.74472901 116.51724396 34.48746 123.25203537 29 130 C28.5786377 130.52722656 28.15727539 131.05445313 27.72314453 131.59765625 C20.68820145 140.3659258 12.85725565 148.35097268 4.9375 156.3125 C4.43070709 156.82455994 3.92391418 157.33661987 3.40176392 157.86419678 C-21.33024405 182.79465265 -21.33024405 182.79465265 -35.875 183.3125 C-45.17368594 183.03157293 -51.12089019 179.98569547 -57.82421875 173.51171875 C-63.5924039 166.8529341 -64.69346401 159.75463976 -64.37890625 151.109375 C-63.08796373 140.51566112 -56.26653047 133.49405163 -48.1875 127.125 C-35.83330975 117.28265756 -24.56690456 105.55656224 -15 93 C-14.195625 91.989375 -13.39125 90.97875 -12.5625 89.9375 C-8.08850443 84.29630085 -3.80627807 78.51144375 0.25 72.5625 C0.65734375 71.9955542 1.0646875 71.4286084 1.484375 70.84448242 C2.76499304 69.00754206 2.76499304 69.00754206 4 66 C3.48921491 62.96525853 3.48921491 62.96525853 2 60 C1.142949 57.5009354 0.28885008 55.00099874 -0.5625 52.5 C-0.78357422 51.86191406 -1.00464844 51.22382813 -1.23242188 50.56640625 C-6.74644613 34.27421374 -5.00172099 16.16213069 0 0 Z " fill="#8EAEDF" transform="translate(71,311)"/>
<path d="M0 0 C0 50.49 0 100.98 0 153 C-3.9790158 152.3368307 -7.0257729 151.7787593 -10.7043457 150.48120117 C-11.58157791 150.17385544 -12.45881012 149.8665097 -13.36262512 149.54985046 C-14.29096664 149.2175795 -15.21930817 148.88530853 -16.17578125 148.54296875 C-17.14154587 148.19873367 -18.10731049 147.8544986 -19.1023407 147.49983215 C-21.13479505 146.77228363 -23.16617481 146.04172698 -25.1965332 145.30834961 C-28.31394038 144.18698188 -31.43886154 143.08854787 -34.56445312 141.99023438 C-36.53956732 141.28004824 -38.51419475 140.56850658 -40.48828125 139.85546875 C-41.89597527 139.36617134 -41.89597527 139.36617134 -43.33210754 138.86698914 C-44.19357895 138.55018692 -45.05505035 138.2333847 -45.94262695 137.90698242 C-46.70396439 137.63464279 -47.46530182 137.36230316 -48.24971008 137.08171082 C-50 136 -50 136 -50.86102295 134.23104858 C-51.0463089 131.25658659 -50.29423181 129.19974867 -49.28100586 126.39624023 C-48.87986069 125.27084335 -48.47871552 124.14544647 -48.06541443 122.98594666 C-47.6197261 121.7724202 -47.17403778 120.55889374 -46.71484375 119.30859375 C-46.25627498 118.04053692 -45.79840549 116.77222701 -45.34120178 115.50367737 C-44.37865733 112.84062224 -43.40853725 110.18048803 -42.43286133 107.5222168 C-41.19467071 104.14724968 -39.97390005 100.76631114 -38.75878048 97.38297939 C-37.81391606 94.75767642 -36.86025325 92.13563442 -35.90402412 89.51445198 C-35.23391728 87.67349371 -34.57046521 85.83011738 -33.9072113 83.98667908 C-30.49285991 74.7292519 -26.08576404 66.43010487 -21 58 C-21.72703125 57.47792969 -22.4540625 56.95585937 -23.203125 56.41796875 C-40.08539837 44.05927888 -57.16780391 28.49658827 -64 8 C-63.37359619 7.9906543 -62.74719238 7.98130859 -62.10180664 7.97167969 C-49.80084315 7.74407002 -37.72027529 7.08643601 -25.5625 5.125 C-24.5526001 4.96354492 -23.5427002 4.80208984 -22.50219727 4.63574219 C-16.89950264 3.67594585 -11.56557498 2.38045604 -6.17163086 0.58154297 C-4 0 -4 0 0 0 Z " fill="#F5B78E" transform="translate(123,177)"/>
<path d="M0 0 C8.89468696 6.4280931 15.15729426 14.69468459 17.57421875 25.4921875 C18.91214235 36.67833224 16.58329572 47.51180763 9.57421875 56.4921875 C8.97996094 57.29527344 8.38570313 58.09835937 7.7734375 58.92578125 C1.53014588 66.21146969 -7.97830172 70.74306782 -17.41796875 71.83984375 C-28.72515119 72.36859689 -38.87364616 68.7809603 -47.49609375 61.421875 C-55.57073417 53.34723458 -59.48388862 42.72382797 -59.92578125 31.3671875 C-59.46226028 20.01839994 -54.49473345 11.18888055 -46.32421875 3.51953125 C-32.88314408 -7.66553265 -15.05592176 -9.35843124 0 0 Z " fill="#F5ED86" transform="translate(217.42578125,238.5078125)"/>
<path d="M0 0 C4.59914804 3.05896823 5.46334686 5.99512884 6.546875 11.359375 C6.96794226 13.81957303 7.36835258 16.2833794 7.75 18.75 C8.15859856 21.22443226 8.56990409 23.69841959 8.984375 26.171875 C9.24299316 27.8130127 9.24299316 27.8130127 9.50683594 29.48730469 C9.7436213 31.92951589 9.7436213 31.92951589 11 33 C11.24645264 32.14245117 11.49290527 31.28490234 11.74682617 30.40136719 C12.67412352 27.20635713 13.61696412 24.01680547 14.57055664 20.82958984 C14.97917963 19.45220536 15.38161444 18.07296868 15.77758789 16.69189453 C16.34965232 14.70079451 16.94403592 12.71753493 17.54296875 10.734375 C17.89383545 9.54038086 18.24470215 8.34638672 18.60620117 7.11621094 C20.20872116 3.5333479 21.6735709 2.04149762 25 0 C28.625 0 28.625 0 32 1 C34.49996102 3.7274707 35.58021803 6.26596966 36.53515625 9.80859375 C36.78716797 10.72060547 37.03917969 11.63261719 37.29882812 12.57226562 C37.55083984 13.51779297 37.80285156 14.46332031 38.0625 15.4375 C38.57182062 17.31185121 39.08346754 19.18557215 39.59765625 21.05859375 C39.81945557 21.88673584 40.04125488 22.71487793 40.26977539 23.56811523 C40.96772172 26.05435469 40.96772172 26.05435469 42.08764648 28.55883789 C43 31 43 31 43 35 C43.66 35 44.32 35 45 35 C45.02578125 34.43796875 45.0515625 33.8759375 45.078125 33.296875 C45.52707102 26.64431132 46.55575411 20.11548089 47.75 13.5625 C47.89469727 12.68625977 48.03939453 11.81001953 48.18847656 10.90722656 C48.98611874 6.73531629 49.46529468 4.55151995 52.484375 1.4375 C55.41956087 -0.23974907 56.6910058 -0.7445237 60 0 C62.875 1.8125 62.875 1.8125 65 5 C65.17738511 12.09894004 63.49583721 19.29023129 62.00390625 26.19921875 C61.81030014 27.11911087 61.61669403 28.03900299 61.41722107 28.98677063 C60.80485563 31.88829453 60.18366375 34.78784855 59.5625 37.6875 C59.14984605 39.64116109 58.73773248 41.59493641 58.32617188 43.54882812 C57.9275672 45.43239413 57.52849471 47.31586121 57.12890625 49.19921875 C56.94550186 50.06399338 56.76209747 50.92876801 56.57313538 51.81974792 C53.43327443 66.46673916 53.43327443 66.46673916 51.375 69 C47.94142792 70.44571456 44.55260247 71.17096953 41 70 C35.93046687 65.27101566 34.53787132 60.22074656 32.875 53.625 C32.39642907 51.80384361 31.91469979 49.98351401 31.4296875 48.1640625 C31.19862305 47.29555664 30.96755859 46.42705078 30.72949219 45.53222656 C29.69174218 41.92996986 28.37915396 38.48460793 27 35 C26.49187906 36.625987 25.9838685 38.25200856 25.47631836 39.87817383 C25.02972515 41.30566247 24.58128695 42.73257507 24.13110352 44.15893555 C22.94238153 47.93446223 21.78537999 51.71424999 20.6953125 55.51953125 C20.48414795 56.23947266 20.2729834 56.95941406 20.05541992 57.70117188 C19.65091631 59.08329248 19.25739359 60.46868584 18.8762207 61.85742188 C18.01487162 64.75896424 17.2445053 66.75298438 15.09765625 68.921875 C12.87506306 70.0642134 11.48529186 70.43264591 9 70.4375 C8.34 70.45683594 7.68 70.47617188 7 70.49609375 C4.07635879 69.77089369 2.93557633 68.275879 1 66 C0.07446289 63.40405273 0.07446289 63.40405273 -0.52734375 60.43359375 C-0.7598584 59.32072998 -0.99237305 58.20786621 -1.23193359 57.0612793 C-1.58118896 55.26750854 -1.58118896 55.26750854 -1.9375 53.4375 C-2.18838379 52.20491455 -2.43926758 50.9723291 -2.69775391 49.70239258 C-3.35204763 46.45751626 -3.99142867 43.21060477 -4.61993408 39.96069336 C-4.9952537 38.02448535 -5.37625316 36.08938114 -5.75732422 34.15429688 C-6.47447629 30.50075546 -7.17853074 26.84503649 -7.875 23.1875 C-8.09019287 22.06851318 -8.30538574 20.94952637 -8.52709961 19.79663086 C-11.13366129 5.70049194 -11.13366129 5.70049194 -8.375 1.5625 C-5.24316508 -0.49791771 -3.68455227 -0.6767545 0 0 Z " fill="#707790" transform="translate(246,107)"/>
<path d="M0 0 C0 22.44 0 44.88 0 68 C-4.61198521 66.4626716 -7.76463883 65.13138941 -11.8125 62.6875 C-15.26745318 60.60860048 -18.6947905 58.64959614 -22.3125 56.875 C-40.82824013 46.59221147 -56.04546843 27.35279328 -64 8 C-63.37359619 7.9906543 -62.74719238 7.98130859 -62.10180664 7.97167969 C-49.80084315 7.74407002 -37.72027529 7.08643601 -25.5625 5.125 C-24.5526001 4.96354492 -23.5427002 4.80208984 -22.50219727 4.63574219 C-16.89950264 3.67594585 -11.56557498 2.38045604 -6.17163086 0.58154297 C-4 0 -4 0 0 0 Z " fill="#FED2BC" transform="translate(123,177)"/>
<path d="M0 0 C3.15398193 1.40033295 5.31944046 3.05426896 7.7746582 5.46826172 C8.49833084 6.17594696 9.22200348 6.8836322 9.96760559 7.61276245 C10.73755356 8.37734772 11.50750153 9.14193298 12.30078125 9.9296875 C13.09655075 10.71642853 13.89232025 11.50316956 14.71220398 12.31375122 C16.3900429 13.97709484 18.0650944 15.64325421 19.73754883 17.31201172 C22.30809058 19.87061107 24.89668781 22.40997011 27.48632812 24.94921875 C29.11312482 26.5665568 30.73881474 28.18500902 32.36328125 29.8046875 C33.14335037 30.5652243 33.92341949 31.32576111 34.72712708 32.10934448 C35.78899483 33.18032883 35.78899483 33.18032883 36.87231445 34.27294922 C37.50200638 34.8975705 38.1316983 35.52219177 38.7804718 36.16574097 C40 38 40 38 39.77397156 40.13592529 C38.87270566 42.30658253 37.87711043 43.42904867 36.15625 45.0234375 C35.28238647 45.83880981 35.28238647 45.83880981 34.39086914 46.6706543 C33.76688232 47.23308838 33.14289551 47.79552246 32.5 48.375 C31.86505615 48.95354736 31.2301123 49.53209473 30.57592773 50.12817383 C21.70287533 58.09578974 13.9180772 63.60836336 1.5390625 63.234375 C-7.73392935 62.37840652 -13.94224968 57.99305827 -20 51 C-24.53342856 43.97260303 -24.99369614 36.15445491 -24 28 C-21.21711408 17.26365907 -12.70511037 10.49342531 -4.35546875 3.8828125 C-1.9871554 2.0610445 -1.9871554 2.0610445 0 0 Z " fill="#6F7790" transform="translate(31,431)"/>
<path d="M0 0 C2 2 2 2 2.4375 5.375 C2 9 2 9 -0.0625 11.5 C-3.94940471 13.4848024 -5.80674438 13.08446266 -10 12 C-11.11375 11.484375 -12.2275 10.96875 -13.375 10.4375 C-18.49088806 8.40878577 -23.0348314 7.72696825 -28.2109375 9.94921875 C-33.653873 13.15630156 -37.48649263 17.15290023 -40 23 C-40.84795968 28.79767783 -40.36100185 34.08178924 -37.37109375 39.171875 C-33.9078429 43.7895428 -30.61744874 46.58453195 -24.80078125 47.5078125 C-18.30798701 47.72991493 -13.84818881 47.45509242 -9 43 C-8.34 42.34 -7.68 41.68 -7 41 C-3.10798594 40.56755399 -0.86769698 40.42153535 2.4375 42.625 C4 45 4 45 4.6875 47.75 C3.4671398 53.51897549 -0.26856581 57.17564657 -5.09375 60.3984375 C-13.60269217 64.50720752 -24.53522066 64.68052698 -33.48046875 61.9296875 C-44.01964985 57.0407898 -50.73927435 49.75238919 -55 39 C-57.64245421 30.83549406 -56.94798359 21.00484372 -53.3125 13.3046875 C-47.99181175 3.9618123 -40.57029797 -3.31199095 -30 -6.4375 C-18.89283299 -8.48176387 -9.03177729 -6.82890478 0 0 Z " fill="#707890" transform="translate(387,114)"/>
<path d="M0 0 C0.97169128 -0.00569504 0.97169128 -0.00569504 1.9630127 -0.01150513 C4.09229836 -0.01888091 6.22020207 0.00242491 8.34936523 0.02490234 C9.83479146 0.02728844 11.32022075 0.02819174 12.8056488 0.02767944 C15.9134317 0.03080219 19.02075154 0.04732762 22.12841797 0.07421875 C26.10868793 0.10822771 30.08845036 0.11584616 34.06884861 0.11432838 C37.13409759 0.11487258 40.199236 0.12584724 43.26444817 0.14033127 C44.73203635 0.14668734 46.19963704 0.15063538 47.66723824 0.15211868 C49.7184795 0.15646283 51.76918642 0.1739859 53.8203125 0.1953125 C54.98659683 0.2029361 56.15288116 0.21055969 57.35450745 0.21841431 C60.29185005 0.48104659 61.92745455 0.83925826 64.34545898 2.48583984 C66.34545898 5.48583984 66.34545898 5.48583984 66.22045898 8.98583984 C65.34545898 12.48583984 65.34545898 12.48583984 63.71105957 14.17933655 C60.55294013 15.92354201 58.22343102 15.87373703 54.62084961 15.88989258 C53.62011665 15.90018745 53.62011665 15.90018745 52.59916687 15.91069031 C50.39979613 15.92895165 48.20113907 15.92512257 46.00170898 15.91943359 C44.47000903 15.92399537 42.93831114 15.92930093 41.40661621 15.93531799 C38.19880856 15.94424745 34.99124989 15.94182756 31.78344727 15.93188477 C27.67403592 15.92038806 23.56548296 15.94061718 19.45618439 15.9698019 C16.29399159 15.98815233 13.13200502 15.98787396 9.96977234 15.98216438 C8.45471491 15.98201106 6.9396436 15.9880644 5.42463684 16.00045586 C3.30589997 16.01534548 1.18875558 16.0047071 -0.92993164 15.98754883 C-2.13476196 15.98738266 -3.33959229 15.98721649 -4.58093262 15.98704529 C-8.27270208 15.3850379 -9.45431861 14.46611501 -11.65454102 11.48583984 C-12.21704102 7.98583984 -12.21704102 7.98583984 -11.65454102 4.48583984 C-7.9190969 0.62853193 -5.2838922 -0.01290339 0 0 Z " fill="#DAA985" transform="translate(286.654541015625,372.51416015625)"/>
<path d="M0 0 C4.49318138 1.65767857 8.61219548 3.85027474 12.8125 6.125 C16.3703125 8.043125 16.3703125 8.043125 20 10 C20 20.89 20 31.78 20 43 C8.28276202 39.09425401 -2.62449241 34.74168926 -13 28 C-12.4960189 22.23806679 -10.84608763 17.97987426 -8.1875 12.875 C-7.84396484 12.18535156 -7.50042969 11.49570313 -7.14648438 10.78515625 C-5.12389358 6.81586925 -2.93398152 3.38891349 0 0 Z " fill="#F2A977" transform="translate(103,235)"/>
<path d="M0 0 C4.4158975 1.30841407 4.4158975 1.30841407 6.375 4 C6.80859375 6.77734375 6.80859375 6.77734375 6.8125 9.9375 C6.83183594 10.97777344 6.85117188 12.01804687 6.87109375 13.08984375 C6.26023303 16.67323933 5.25349626 17.83856686 2.375 20 C-3.62090164 20.7363388 -3.62090164 20.7363388 -6.5 18.625 C-9.42467802 14.40046508 -9.30498225 9.98653652 -8.625 5 C-5.98912169 0.92636988 -4.88199485 0 0 0 Z " fill="#70788E" transform="translate(197.625,261)"/>
<path d="M0 0 C0 3 0 3 -1.19335938 4.53393555 C-1.73798828 5.062854 -2.28261719 5.59177246 -2.84375 6.13671875 C-3.72353516 7.00200195 -3.72353516 7.00200195 -4.62109375 7.88476562 C-5.24113281 8.47966797 -5.86117188 9.07457031 -6.5 9.6875 C-7.12003906 10.29400391 -7.74007813 10.90050781 -8.37890625 11.52539062 C-9.91264707 13.02373743 -11.45548198 14.51276493 -13 16 C-13.33 15.34 -13.66 14.68 -14 14 C-9.67106815 8.81580806 -5.23435005 4.27293882 0 0 Z " fill="#868AA3" transform="translate(25,436)"/>
</svg>
