<?xml version="1.0" encoding="UTF-8"?>
<svg version="1.1" xmlns="http://www.w3.org/2000/svg" width="512" height="512">
<path d="M0 0 C1.30919403 -0.0076664 1.30919403 -0.0076664 2.64483643 -0.01548767 C5.51134231 -0.02930982 8.3776055 -0.02843135 11.24414062 -0.02612305 C13.25704028 -0.03001623 15.26993912 -0.03435217 17.28283691 -0.03910828 C21.49913189 -0.04655634 25.71534314 -0.04629108 29.93164062 -0.04101562 C35.29284717 -0.03524675 40.65370534 -0.05209631 46.01485443 -0.0753603 C50.17429557 -0.09021502 54.33365531 -0.09095311 58.49311829 -0.08785057 C60.4671548 -0.0883587 62.4411965 -0.09349907 64.41520691 -0.10366249 C79.68954985 -0.17261324 94.11845105 0.87959044 108.52539062 6.4621582 C109.31896973 6.76404053 110.11254883 7.06592285 110.93017578 7.37695312 C139.16028425 18.47161897 161.72826119 40.48934738 174.00097656 68.12573242 C180.37056519 83.34427724 183.29766568 97.80400336 183.27539062 114.3371582 C183.27457489 115.36137375 183.27457489 115.36137375 183.27374268 116.40628052 C183.23337171 127.45161435 182.3385914 137.72820784 178.90039062 148.2746582 C178.58690674 149.27891846 178.58690674 149.27891846 178.26708984 150.3034668 C173.35736664 165.70933235 165.58931861 179.15508976 154.90039062 191.2746582 C154.40152344 191.90500977 153.90265625 192.53536133 153.38867188 193.18481445 C148.97663701 198.73462335 143.46506399 202.93928288 137.90039062 207.2746582 C137.19720703 207.82621582 136.49402344 208.37777344 135.76953125 208.94604492 C133.46458044 210.75041072 131.15269003 212.5454484 128.83789062 214.3371582 C128.08725342 214.92190918 127.33661621 215.50666016 126.56323242 216.10913086 C125.85851807 216.64973145 125.15380371 217.19033203 124.42773438 217.74731445 C123.79601318 218.23466064 123.16429199 218.72200684 122.51342773 219.22412109 C120.90039062 220.2746582 120.90039062 220.2746582 118.90039062 220.2746582 C119.15626467 222.04771485 119.43066801 223.81810428 119.71289062 225.5871582 C119.86371094 226.57329102 120.01453125 227.55942383 120.16992188 228.57543945 C120.9724443 231.54091003 121.58847572 232.35043517 123.90039062 234.2746582 C125.78715105 235.11882658 125.78715105 235.11882658 127.90820312 235.67700195 C128.71733154 235.92087646 129.52645996 236.16475098 130.36010742 236.41601562 C131.23965088 236.67874268 132.11919434 236.94146973 133.02539062 237.2121582 C157.31936811 244.93771526 179.8045857 257.35258324 198.90039062 274.2746582 C199.45178711 274.76047363 200.00318359 275.24628906 200.57128906 275.74682617 C208.44875793 282.72824907 215.48330545 289.89842636 221.90039062 298.2746582 C223.09728516 299.74805664 223.09728516 299.74805664 224.31835938 301.2512207 C249.03315992 331.88351391 262.89005933 371.39337327 263.21289062 410.6496582 C263.24189453 411.81754883 263.27089844 412.98543945 263.30078125 414.1887207 C263.37292258 424.08873024 261.50398611 432.35502567 254.60351562 439.7434082 C247.51089218 446.12026231 240.33825494 448.6001018 230.90039062 448.2746582 C230.89652344 449.1099707 230.89652344 449.1099707 230.89257812 449.9621582 C230.50171415 457.67520723 227.49563279 461.86359852 221.99414062 467.08325195 C201.94747402 483.87607528 172.53319956 488.64645932 147.52539062 492.4621582 C146.52451416 492.61700684 145.5236377 492.77185547 144.49243164 492.93139648 C123.53653279 495.94972907 102.5709014 496.65179847 81.42191696 496.59271622 C79.36820141 496.5870697 77.31449414 496.58425316 75.26077271 496.58163452 C55.33616382 496.54470877 35.64976443 496.17731208 15.90039062 493.2746582 C14.68383789 493.10305176 13.46728516 492.93144531 12.21386719 492.75463867 C-51.09947718 483.58935635 -51.09947718 483.58935635 -69.97851562 461.01293945 C-73.92735547 454.89017384 -74.03924058 448.33867138 -73.09960938 441.2746582 C-71.64587961 437.71515811 -69.67869426 435.10495265 -67.09960938 432.2746582 C-66.5659375 431.67266602 -66.03226563 431.07067383 -65.48242188 430.45043945 C-53.2430557 418.34706624 -32.79802838 412.62263896 -16.36132812 409.20825195 C-13.02704852 407.83192583 -11.37524992 406.07211945 -9.09960938 403.2746582 C-8.66012071 400.41864345 -8.50940951 398.18412363 -8.61132812 395.34887695 C-8.61840286 394.60128616 -8.6254776 393.85369537 -8.63276672 393.08345032 C-8.66063293 390.70864418 -8.72334806 388.3362447 -8.78710938 385.9621582 C-8.81220269 384.34695802 -8.83501406 382.73172066 -8.85546875 381.11645508 C-8.9104329 377.16827001 -8.99664411 373.22187132 -9.09960938 369.2746582 C-10.69675781 370.41741211 -10.69675781 370.41741211 -12.32617188 371.58325195 C-16.89731676 374.8425249 -21.49411525 378.06416446 -26.09960938 381.2746582 C-26.72834961 381.71648437 -27.35708984 382.15831055 -28.00488281 382.61352539 C-50.68946748 398.43554663 -76.68361981 404.01398864 -104.16210938 399.58325195 C-108.25284498 398.76292092 -112.14436892 397.60269514 -116.09960938 396.2746582 C-117.06229736 395.95319824 -117.06229736 395.95319824 -118.04443359 395.62524414 C-132.07964887 390.81497081 -144.00236379 383.06318177 -155.09960938 373.2746582 C-156.03353516 372.46641602 -156.03353516 372.46641602 -156.98632812 371.6418457 C-178.79450949 351.40954691 -188.65838161 317.53347148 -200.23402405 290.85575867 C-200.55261887 290.1217836 -200.87121368 289.38780853 -201.19946289 288.6315918 C-201.50739777 287.92073425 -201.81533264 287.20987671 -202.13259888 286.47747803 C-202.8205056 284.91044791 -203.52079568 283.34882874 -204.22946167 281.79107666 C-204.77994675 280.57952911 -204.77994675 280.57952911 -205.34155273 279.34350586 C-205.67787216 278.61169098 -206.01419159 277.8798761 -206.36070251 277.12588501 C-207.09960938 275.2746582 -207.09960938 275.2746582 -207.09960938 273.2746582 C-214.09260618 277.57502446 -220.72587862 282.09698556 -227.09960938 287.2746582 C-230.98958128 285.77719114 -232.5690899 283.57043742 -234.84960938 280.1496582 C-235.46320313 279.23958008 -236.07679688 278.32950195 -236.70898438 277.3918457 C-237.39734375 276.34383789 -237.39734375 276.34383789 -238.09960938 275.2746582 C-236.64976131 271.74282832 -234.87904974 270.0615297 -231.81835938 267.8215332 C-230.97660156 267.2027832 -230.13484375 266.5840332 -229.26757812 265.9465332 C-228.38714844 265.31231445 -227.50671875 264.6780957 -226.59960938 264.0246582 C-225.71917969 263.3749707 -224.83875 262.7252832 -223.93164062 262.0559082 C-217.37248884 257.2746582 -217.37248884 257.2746582 -215.09960938 257.2746582 C-215.42960937 256.4084082 -215.75960937 255.5421582 -216.09960938 254.6496582 C-218.85840227 244.7739793 -217.80390123 234.32029951 -213.09960938 225.2746582 C-207.82075078 216.42521886 -200.06284747 210.9010015 -190.09960938 208.2746582 C-187.21801265 208.02870675 -184.3646495 208.03949261 -181.47460938 208.0871582 C-180.724375 208.08780273 -179.97414062 208.08844727 -179.20117188 208.08911133 C-175.671214 208.11727589 -172.49489667 208.32837644 -169.09960938 209.2746582 C-168.60460937 208.0990332 -168.10960937 206.9234082 -167.59960938 205.7121582 C-163.890693 198.32053688 -157.75446411 193.98575259 -150.09960938 191.2746582 C-150.31617188 190.73583008 -150.53273438 190.19700195 -150.75585938 189.6418457 C-156.01602044 174.10488849 -154.56515126 155.0501375 -147.70898438 140.27856445 C-144.26898845 134.04130869 -140.94648712 130.55695078 -134.09960938 128.2746582 C-118.94444089 127.01622191 -118.94444089 127.01622191 -113.05273438 131.5246582 C-112.40820312 132.1021582 -111.76367188 132.6796582 -111.09960938 133.2746582 C-110.22820312 134.0377832 -109.35679687 134.8009082 -108.45898438 135.5871582 C-105.63846365 138.11483798 -102.86955115 140.69181969 -100.09960938 143.2746582 C-98.75168581 144.46924 -97.39817309 145.65756965 -96.03710938 146.8371582 C-93.02887409 149.45167762 -90.05830688 152.10417476 -87.09960938 154.7746582 C-84.11898217 157.46449251 -81.12715705 160.13776184 -78.09960938 162.7746582 C-74.20448127 166.16718913 -70.37178175 169.62660021 -66.53710938 173.0871582 C-64.40543457 175.0001997 -62.25941827 176.89353432 -60.09960938 178.7746582 C-59.46410156 179.33282227 -58.82859375 179.89098633 -58.17382812 180.46606445 C-56.64544385 181.79872344 -55.10444848 183.1169526 -53.55664062 184.42700195 C-41.75356645 194.62611331 -41.75356645 194.62611331 -40.63085938 202.60668945 C-40.35570288 209.06598824 -40.63273196 214.16956696 -44.41992188 219.52856445 C-49.67380649 224.99016078 -54.11257858 227.41421907 -61.34960938 229.4621582 C-62.22641357 229.71481445 -63.10321777 229.9674707 -64.0065918 230.2277832 C-81.80069575 235.11928106 -98.08927138 235.7306128 -115.39257812 228.39575195 C-117.64136412 227.46443654 -119.7266849 226.77869228 -122.09960938 226.2746582 C-122.45152344 226.79415039 -122.8034375 227.31364258 -123.16601562 227.84887695 C-128.84055216 235.86434501 -133.61670832 239.09535796 -143.09960938 241.2746582 C-142.51228027 242.52448486 -142.51228027 242.52448486 -141.91308594 243.79956055 C-140.05769478 247.74917168 -138.20330943 251.69925315 -136.34960938 255.6496582 C-136.01246918 256.36806885 -135.67532898 257.08647949 -135.32797241 257.82666016 C-130.15838025 268.84604186 -125.02844971 279.88258439 -119.95800781 290.94799805 C-112.90636248 307.09683709 -112.90636248 307.09683709 -99.09960938 317.2746582 C-91.66128762 319.55784963 -85.32973469 318.36999583 -78.26367188 315.44262695 C-76.10930216 314.27988951 -74.796432 313.00621111 -73.09960938 311.2746582 C-72.43960938 311.2746582 -71.77960938 311.2746582 -71.09960938 311.2746582 C-70.84308594 310.71004883 -70.5865625 310.14543945 -70.32226562 309.5637207 C-55.78509656 282.34716776 -23.85532996 262.33288279 4.90039062 253.2746582 C13.29574635 250.80182272 21.75426095 248.945057 30.44726562 247.86450195 C33.29947071 247.17870105 34.80352488 246.31957457 36.90039062 244.2746582 C37.69662884 242.18050016 37.69662884 242.18050016 37.90039062 240.2746582 C36.66289062 240.2127832 35.42539062 240.1509082 34.15039062 240.0871582 C21.32337185 238.59938487 9.76415591 231.18204984 1.52539062 221.4621582 C-7.93734836 208.85810013 -11.11572453 193.8152429 -10.09960938 178.2746582 C-9.76960937 177.6146582 -9.43960938 176.9546582 -9.09960938 176.2746582 C-9.80085937 176.1921582 -10.50210938 176.1096582 -11.22460938 176.0246582 C-16.32540652 174.69401547 -19.8483122 172.02321714 -22.97460938 167.8371582 C-26.15068193 162.29196312 -26.16980179 156.46052215 -25.09960938 150.2746582 C-23.57078328 146.81523261 -21.56808354 144.12289762 -19.09960938 141.2746582 C-18.55046875 140.63786133 -18.00132812 140.00106445 -17.43554688 139.3449707 C-16.44234974 138.20499567 -15.43167736 137.07976283 -14.39648438 135.9777832 C-11.30980772 131.92419578 -10.67386722 127.40691012 -9.97460938 122.4621582 C-9.72324219 120.71999023 -9.72324219 120.71999023 -9.46679688 118.94262695 C-9.345625 118.06219727 -9.22445312 117.18176758 -9.09960938 116.2746582 C-9.6590625 116.21149414 -10.21851563 116.14833008 -10.79492188 116.08325195 C-25.92561187 113.77229448 -38.37060523 105.14370628 -47.48242188 93.1340332 C-57.28912764 78.15257126 -59.51110715 61.86304175 -56.40429688 44.35668945 C-51.89845758 28.51052352 -42.33722793 15.6296679 -28.09960938 7.2746582 C-18.87005073 2.42785087 -10.38669229 -0.03191116 0 0 Z " fill="#010101" transform="translate(241.099609375,7.725341796875)"/>
<path d="M0 0 C5.03589513 0.73018041 9.06602273 2.23796182 13.5625 4.5625 C14.26286377 4.92037598 14.96322754 5.27825195 15.68481445 5.64697266 C50.5153578 23.69671286 82.15194418 54.61024928 96 92 C96 92.66 96 93.32 96 94 C79.17 94 62.34 94 45 94 C45 76 45 76 49 69 C49 67.68 49 66.36 49 65 C48.4225 64.773125 47.845 64.54625 47.25 64.3125 C44.4336339 62.66961977 42.91922886 60.60466773 41 58 C39.08624923 58.0513974 39.08624923 58.0513974 37 59 C35.22867919 61.65366228 35.22867919 61.65366228 33.8125 64.875 C33.30332031 65.94492187 32.79414063 67.01484375 32.26953125 68.1171875 C30.26051219 72.67920617 29.83506239 76.40632199 29.79467773 81.31713867 C29.78477814 82.05884811 29.77487854 82.80055756 29.76467896 83.56474304 C29.73309743 86.01578583 29.70831979 88.466848 29.68359375 90.91796875 C29.66302133 92.61762495 29.64202478 94.31727607 29.62062073 96.016922 C29.5654298 100.49014163 29.51600738 104.96340721 29.46777344 109.43670654 C29.41753668 114.00146574 29.36186196 118.56615823 29.30664062 123.13085938 C29.19909548 132.08718259 29.0976424 141.04356373 29 150 C27.84661133 149.52506104 27.84661133 149.52506104 26.66992188 149.04052734 C24.03051766 147.94164504 24.03051766 147.94164504 21.28125 147.3515625 C16.87438699 146.20033143 13.85311297 145.38191908 11.38671875 141.38671875 C10.57609269 139.30866431 9.81136655 137.21220926 9.08984375 135.1015625 C6.13408296 126.6898275 0.61802646 120.53024651 -7 116 C-11.91863539 113.77160415 -16.950031 111.65242815 -22.24609375 110.51953125 C-25.17102837 109.65312523 -26.33819881 107.43335174 -28 105 C-28 104.34 -28 103.68 -28 103 C-28.556875 102.72285156 -29.11375 102.44570313 -29.6875 102.16015625 C-31.27500173 101.36372379 -32.8581404 100.55855278 -34.4375 99.74609375 C-35.283125 99.31425781 -36.12875 98.88242187 -37 98.4375 C-37.845625 98.00308594 -38.69125 97.56867188 -39.5625 97.12109375 C-46.37684409 93.98693229 -54.21507794 93.65565343 -61.27734375 96.1640625 C-67.53096117 99.17878536 -72.79162556 102.26416658 -76.40625 108.37890625 C-80.39481575 112.40952013 -85.19036076 113.62694368 -90.5 115.375 C-91.54542969 115.74238281 -92.59085937 116.10976563 -93.66796875 116.48828125 C-102.33623452 119.42949819 -102.33623452 119.42949819 -106 118 C-107.67523395 116.67744688 -109.34106818 115.34294481 -111 114 C-115.64752458 111.21282847 -118.98364633 110.65991452 -124.375 110.8125 C-125.62023437 110.83957031 -126.86546875 110.86664063 -128.1484375 110.89453125 C-129.55996094 110.94673828 -129.55996094 110.94673828 -131 111 C-131.00410889 109.94200195 -131.00821777 108.88400391 -131.01245117 107.79394531 C-131.0344687 103.81251417 -131.08898577 99.83203996 -131.15258789 95.85107422 C-131.175573 94.13860347 -131.19011715 92.42599527 -131.19555664 90.71337891 C-131.24215995 78.44595428 -132.06372706 68.01285122 -140 58 C-143.51149841 58.58395206 -145.29031758 59.83279645 -147.8125 62.3125 C-148.75029297 63.20388672 -148.75029297 63.20388672 -149.70703125 64.11328125 C-151.19837078 65.87506882 -151.19837078 65.87506882 -150.88671875 67.85546875 C-149.97735393 70.15137811 -149.97735393 70.15137811 -148.5 72.828125 C-145.80821373 78.52013138 -145.40190614 83.90978515 -147 90 C-150.3280881 93.76063777 -154.0066485 96.29845466 -158.26367188 98.91259766 C-160.81828103 100.51246115 -163.20439628 102.33103186 -165.625 104.125 C-169.61290323 107 -169.61290323 107 -173 107 C-173.34144043 106.36723145 -173.68288086 105.73446289 -174.03466797 105.08251953 C-175.06143524 103.18067824 -176.08883778 101.27917985 -177.11669922 99.37792969 C-178.2941406 97.19961409 -179.47023597 95.02057044 -180.64501953 92.84082031 C-183.41835589 87.70814604 -186.2109766 82.59342479 -189.125 77.5390625 C-189.59180176 76.72421387 -190.05860352 75.90936523 -190.53955078 75.06982422 C-191.41304907 73.55246028 -192.29647826 72.04075921 -193.19091797 70.53564453 C-196.07117119 65.51283682 -196.07117119 65.51283682 -195.71630859 62.95581055 C-190.53892865 48.81948105 -173.1581726 34.87849584 -161 27 C-160.44086914 26.63422852 -159.88173828 26.26845703 -159.30566406 25.89160156 C-145.78408751 17.12938493 -128.49293979 8 -112 8 C-111.1394317 14.137271 -110.28513119 20.27537039 -109.43652344 26.41430664 C-109.14721268 28.50080677 -108.85621707 30.58707402 -108.56347656 32.6730957 C-108.14200405 35.67859613 -107.72667953 38.6848932 -107.3125 41.69140625 C-107.18125732 42.61772354 -107.05001465 43.54404083 -106.91479492 44.49842834 C-106.24794504 49.38572571 -105.8583142 54.06756293 -106 59 C-105.06728271 58.44538086 -104.13456543 57.89076172 -103.17358398 57.31933594 C-99.68696074 55.24630841 -96.19987143 53.17406595 -92.71264648 51.10205078 C-91.20828898 50.20805659 -89.70405509 49.31385436 -88.19995117 48.41943359 C-86.0281633 47.12802244 -83.85592036 45.83737967 -81.68359375 44.546875 C-81.01976181 44.15191833 -80.35592987 43.75696167 -79.67198181 43.35003662 C-75.47211013 40.85628538 -71.24680247 38.41301057 -67 36 C-67 39.3 -67 42.6 -67 46 C-61.72 46 -56.44 46 -51 46 C-51 42.7 -51 39.4 -51 36 C-38.90172429 42.83366768 -26.94944768 49.91018915 -15 57 C-11.84445691 48.23123121 -9.72319697 39.22575634 -7.5 30.1875 C-7.1058018 28.59562061 -6.71127276 27.00382312 -6.31640625 25.41210938 C-5.55685712 22.34857075 -4.79907907 19.28460395 -4.04296875 16.22021484 C-2.70742808 10.8104473 -1.35567414 5.40475383 0 0 Z " fill="#B3DB7E" transform="translate(379,266)"/>
<path d="M0 0 C6.29096188 2.7786084 11.25530797 7.92682 13.79296875 14.33984375 C13.96083197 16.91519048 14.02614249 19.37738768 13.98828125 21.94921875 C13.98545135 22.67602844 13.98262146 23.40283813 13.97970581 24.15167236 C13.96854398 26.46456626 13.94344726 28.77706763 13.91796875 31.08984375 C13.90793376 32.66145273 13.89880881 34.23306779 13.890625 35.8046875 C13.86861779 39.64988997 13.8341159 43.49480039 13.79296875 47.33984375 C14.36740723 47.3241333 14.9418457 47.30842285 15.53369141 47.29223633 C18.16168184 47.22948862 20.78951412 47.19072869 23.41796875 47.15234375 C24.32160156 47.12720703 25.22523438 47.10207031 26.15625 47.07617188 C32.25937598 47.00934933 36.77270181 47.52044967 41.4375 51.875 C45.79057887 57.56748775 46.58250675 61.2120701 45.79296875 68.33984375 C43.58054436 72.76469253 40.84497259 75.53461032 36.79296875 78.33984375 C33.91031726 79.30072758 32.11634604 79.45655316 29.125 79.4375 C28.23232422 79.43427734 27.33964844 79.43105469 26.41992188 79.42773438 C25.02676758 79.41516602 25.02676758 79.41516602 23.60546875 79.40234375 C22.66509766 79.39783203 21.72472656 79.39332031 20.75585938 79.38867188 C18.43483163 79.37689001 16.11393231 79.36043933 13.79296875 79.33984375 C13.87761446 88.57218206 13.97259028 97.80434109 14.08049583 107.03643703 C14.13028996 111.32398221 14.1766205 115.61150474 14.21484375 119.89916992 C14.25191109 124.04251732 14.29832708 128.18566713 14.35103226 132.32884407 C14.36946291 133.90391613 14.38461196 135.47903036 14.39631271 137.05416679 C14.45770358 145.0378867 14.61205333 152.59185475 16.79296875 160.33984375 C11.11312497 164.81900091 11.11312497 164.81900091 8.70336914 166.69799805 C5.47986364 169.21261493 2.28454165 171.74879912 -0.85546875 174.3671875 C-1.43014893 174.83592285 -2.0048291 175.3046582 -2.59692383 175.78759766 C-3.69450154 176.68315442 -4.78085111 177.59268854 -5.85424805 178.51708984 C-7.3671875 179.734375 -7.3671875 179.734375 -10.20703125 181.33984375 C-13.79575237 180.2460996 -16.87439529 178.4577004 -20.0703125 176.51953125 C-20.95654297 175.98457031 -21.84277344 175.44960938 -22.75585938 174.8984375 C-23.66787109 174.34285156 -24.57988281 173.78726563 -25.51953125 173.21484375 C-26.45087891 172.65152344 -27.38222656 172.08820313 -28.34179688 171.5078125 C-30.63224267 170.12179915 -32.92055201 168.73238747 -35.20703125 167.33984375 C-34.87703125 164.36984375 -34.54703125 161.39984375 -34.20703125 158.33984375 C-33.60117187 158.10910156 -32.9953125 157.87835938 -32.37109375 157.640625 C-22.40591907 153.7618724 -13.9567567 149.85144914 -6.20703125 142.33984375 C-7.61547843 139.1246007 -9.31047911 137.01800507 -11.83203125 134.58984375 C-12.77949219 133.66945312 -12.77949219 133.66945312 -13.74609375 132.73046875 C-14.22820312 132.2715625 -14.7103125 131.81265625 -15.20703125 131.33984375 C-18.12921165 132.69402491 -20.50888629 134.26780512 -23.01953125 136.27734375 C-30.20496678 141.75323328 -37.15162365 143.47852232 -46.14453125 143.52734375 C-47.32917969 143.54152344 -48.51382813 143.55570313 -49.734375 143.5703125 C-53.22470591 143.33867074 -55.95714065 142.59514501 -59.20703125 141.33984375 C-56.99895512 138.95009047 -54.74185459 137.37989547 -51.95703125 135.71484375 C-42.37886569 129.39169705 -37.92652577 120.21782182 -35.20703125 109.33984375 C-34.87703125 104.71984375 -34.54703125 100.09984375 -34.20703125 95.33984375 C-50.04703125 95.33984375 -65.88703125 95.33984375 -82.20703125 95.33984375 C-82.20703125 90.05984375 -82.20703125 84.77984375 -82.20703125 79.33984375 C-85.61015625 79.40171875 -85.61015625 79.40171875 -89.08203125 79.46484375 C-92.94921875 79.53515625 -92.94921875 79.53515625 -96.20703125 79.33984375 C-96.86703125 78.67984375 -97.52703125 78.01984375 -98.20703125 77.33984375 C-97.92734051 73.61063392 -96.02759813 71.89108306 -93.45703125 69.33984375 C-87.11777852 62.47706207 -83.12500831 53.22106042 -83.06640625 43.8125 C-82.82379577 30.59880603 -81.29372169 20.77801078 -74.20703125 9.33984375 C-71.22252827 9.97926054 -68.78251903 10.99492994 -66.06640625 12.37109375 C-61.11493011 14.60593826 -56.83885156 14.96090719 -51.45703125 14.83984375 C-50.14931763 14.82062866 -50.14931763 14.82062866 -48.81518555 14.80102539 C-36.73077086 14.42488724 -28.34904382 11.14223468 -19.20703125 3.33984375 C-13.27812312 -1.18936669 -7.12530507 -2.13128594 0 0 Z " fill="#EECEB2" transform="translate(330.20703125,88.66015625)"/>
<path d="M0 0 C0.80583527 -0.00511093 1.61167053 -0.01022186 2.44192505 -0.01548767 C5.09685784 -0.02934463 7.75152954 -0.02842838 10.40649414 -0.02612305 C12.26770625 -0.03001502 14.12891747 -0.03435072 15.99012756 -0.03910828 C19.89302443 -0.0465643 23.79583087 -0.04628581 27.69873047 -0.04101562 C32.66102718 -0.03525304 37.62294672 -0.05207685 42.58518124 -0.0753603 C46.43319304 -0.09021981 50.28111688 -0.09095235 54.1291523 -0.08785057 C55.95608829 -0.08835871 57.78302988 -0.09349928 59.60993767 -0.10366249 C85.94269344 -0.23206873 108.98949142 6.62348662 129.75415039 23.2746582 C130.54950195 23.90243164 131.34485352 24.53020508 132.16430664 25.17700195 C149.56286498 39.69114321 162.56794453 63.63429051 164.75415039 86.2746582 C165.67147346 100.47203496 165.35788311 113.74940619 160.75415039 127.2746582 C160.53984375 127.93755859 160.32553711 128.60045898 160.10473633 129.28344727 C152.53054791 152.55726348 137.35814621 170.15409889 117.75415039 184.2746582 C117.42415039 184.2746582 117.09415039 184.2746582 116.75415039 184.2746582 C116.75415039 176.3546582 116.75415039 168.4346582 116.75415039 160.2746582 C118.52790039 159.9034082 120.30165039 159.5321582 122.12915039 159.1496582 C130.38563183 157.04659218 137.1910904 154.02576335 142.19165039 146.8996582 C143.08316548 145.37928402 143.94026421 143.83796434 144.75415039 142.2746582 C145.09317383 141.64817383 145.43219727 141.02168945 145.78149414 140.3762207 C148.81840691 133.74259558 148.95153448 125.69889095 147.06274414 118.7199707 C146.11760064 116.43422618 145.03323133 114.39037071 143.75415039 112.2746582 C143.36485352 111.57598633 142.97555664 110.87731445 142.57446289 110.1574707 C137.66949803 102.46625361 129.52586098 99.04598938 120.86743164 97.1105957 C119.49756007 96.82600223 118.12685499 96.54525688 116.75415039 96.2746582 C116.7399707 95.04231445 116.72579102 93.8099707 116.71118164 92.5402832 C116.40570275 79.6383694 114.98138939 68.66938708 105.62915039 58.9543457 C97.1633948 51.37043965 87.33421482 48.55030856 76.05493164 48.8684082 C66.82978649 50.00381068 59.85202608 54.44861931 53.00805664 60.50512695 C47.91330578 64.50499202 43.06148497 64.66627779 36.81665039 64.7121582 C36.0309668 64.7450293 35.2452832 64.77790039 34.43579102 64.81176758 C30.33802158 64.84948763 27.56304743 64.57866299 24.26196289 62.0246582 C21.17566389 58.6403054 20.64957299 56.91713338 20.47290039 52.4855957 C20.83932085 49.60512374 21.91064351 47.62555672 23.95336914 45.55981445 C28.27057797 42.47876954 33.43427346 40.2746582 38.75415039 40.2746582 C38.46540039 39.35942383 38.17665039 38.44418945 37.87915039 37.5012207 C37.50790039 36.31270508 37.13665039 35.12418945 36.75415039 33.8996582 C36.38290039 32.71629883 36.01165039 31.53293945 35.62915039 30.3137207 C34.75415039 27.2746582 34.75415039 27.2746582 34.75415039 25.2746582 C23.26915948 28.65435605 13.99650163 31.5598376 7.66430664 42.44262695 C5.78799007 46.21941868 5.66890384 49.3087206 5.56665039 53.4621582 C5.16638708 59.12838562 4.16225873 61.96820964 0.44946289 66.1652832 C-3.48922116 71.06594999 -6.26325389 77.32687104 -8.24584961 83.2746582 C-19.32787749 82.91717343 -26.75343414 77.6013803 -34.26928711 69.70043945 C-42.45339704 59.65630454 -44.3632218 47.90096391 -43.24584961 35.2746582 C-40.47160741 23.04277214 -33.15077486 13.71455681 -23.24584961 6.2746582 C-20.32802617 4.61669754 -17.41672434 3.35972704 -14.24584961 2.2746582 C-12.9477964 1.76483147 -12.9477964 1.76483147 -11.6235199 1.2447052 C-7.6942758 0.11624946 -4.04947439 -0.01338211 0 0 Z " fill="#646C77" transform="translate(243.245849609375,23.725341796875)"/>
<path d="M0 0 C0.37060547 0.82161621 0.74121094 1.64323242 1.12304688 2.48974609 C8.51415332 18.85738297 15.97582515 35.18863182 23.625 51.4375 C23.95975342 52.14952576 24.29450684 52.86155151 24.6394043 53.59515381 C26.74484764 58.07058185 28.86691457 62.53767974 31 67 C31.70177368 68.48560425 31.70177368 68.48560425 32.41772461 70.0012207 C36.98565497 79.46717721 43.38247845 87.3609602 53 92 C53.61617188 92.31710937 54.23234375 92.63421875 54.8671875 92.9609375 C60.07356879 95.16909143 65.29996774 95.30749029 70.875 95.375 C71.6057373 95.38893799 72.33647461 95.40287598 73.08935547 95.41723633 C79.37226626 95.36392091 85.01936918 93.84417953 91 92 C91.34144043 92.63276855 91.68288086 93.26553711 92.03466797 93.91748047 C93.64699235 96.90392653 95.26081747 99.88955787 96.875 102.875 C97.75224731 104.49849365 97.75224731 104.49849365 98.6472168 106.15478516 C101.43146271 111.29743776 104.22810956 116.43124088 107.08984375 121.53125 C107.55213379 122.35512207 108.01442383 123.17899414 108.49072266 124.02783203 C109.35771131 125.56740147 110.22835925 127.10491716 111.10302734 128.64013672 C114 133.78289981 114 133.78289981 114 136 C94.76117226 145.87507936 72.95826541 148.40847047 52.1015625 141.8125 C38.54980134 137.21469688 27.16727756 130.15027542 17 120 C16.22914062 119.24074219 15.45828125 118.48148437 14.6640625 117.69921875 C3.41951304 105.97495302 -2.66786893 90.6410652 -9.1875 76 C-10.01761762 74.14692588 -10.8480245 72.29398131 -11.67871094 70.44116211 C-13.74124035 65.83370233 -15.7929815 61.22152862 -17.84100342 56.60760498 C-18.94271032 54.12889499 -20.04881746 51.65220722 -21.15673828 49.17626953 C-22.74624003 45.6224044 -24.32546328 42.06419444 -25.8944397 38.5012207 C-26.46173547 37.21571453 -27.0319981 35.93151328 -27.60531616 34.64868164 C-28.38695478 32.89627545 -29.1548297 31.13774902 -29.921875 29.37890625 C-30.35081055 28.4051001 -30.77974609 27.43129395 -31.22167969 26.42797852 C-32 24 -32 24 -31 21 C-29.51635742 19.70068359 -29.51635742 19.70068359 -27.60546875 18.3984375 C-26.90236572 17.91213867 -26.1992627 17.42583984 -25.47485352 16.92480469 C-24.72002686 16.41336914 -23.9652002 15.90193359 -23.1875 15.375 C-21.63690704 14.30630172 -20.08743503 13.2359753 -18.5390625 12.1640625 C-17.77110352 11.63329102 -17.00314453 11.10251953 -16.21191406 10.55566406 C-12.12013394 7.67786903 -8.17442293 4.61261972 -4.22265625 1.546875 C-2 0 -2 0 0 0 Z " fill="#EECEB2" transform="translate(79,247)"/>
<path d="M0 0 C6.66674659 1.16668065 10.21632629 5.75839697 14 11 C16.42539167 16.55818923 16.21600042 22.0359883 16 28 C17.59328125 28.36351562 17.59328125 28.36351562 19.21875 28.734375 C31.31462352 31.56851867 39.86169452 33.84958441 46.8125 44.875 C48.69554626 49.83038489 48.90758042 53.96874858 46.6875 58.9375 C45 61 45 61 42 62 C39.09378396 62.09159687 36.2119855 62.12596172 33.3059082 62.11352539 C32.4178952 62.11367142 31.5298822 62.11381744 30.61495972 62.1139679 C27.67687546 62.11327068 24.73885444 62.10548718 21.80078125 62.09765625 C19.76482681 62.09579139 17.72887192 62.09436781 15.69291687 62.09336853 C10.33188643 62.08954869 4.97088303 62.07972292 -0.39013672 62.06866455 C-5.8596968 62.05843899 -11.32926124 62.05386845 -16.79882812 62.04882812 C-27.53256397 62.03810021 -38.26627974 62.02103015 -49 62 C-48.98259766 61.04085693 -48.96519531 60.08171387 -48.94726562 59.09350586 C-48.93373047 57.83417236 -48.92019531 56.57483887 -48.90625 55.27734375 C-48.88884766 54.02945068 -48.87144531 52.78155762 -48.85351562 51.49584961 C-49.14171874 44.61788216 -51.93193318 40.75916927 -56.8125 36.125 C-62.52000761 31.51064302 -68.30936749 30.4987782 -75.515625 30.6953125 C-82.69795986 31.57616489 -86.99190098 35.56494463 -91.5546875 40.90234375 C-94.82070139 45.64247742 -95.23166943 49.60568535 -95.125 55.3125 C-95.10695313 56.56675781 -95.08890625 57.82101562 -95.0703125 59.11328125 C-95.04710937 60.06589844 -95.02390625 61.01851563 -95 62 C-99.58321382 62.08704 -104.16621534 62.14040632 -108.75 62.1875 C-110.70292969 62.22520508 -110.70292969 62.22520508 -112.6953125 62.26367188 C-113.94570312 62.27333984 -115.19609375 62.28300781 -116.484375 62.29296875 C-117.63647461 62.3086792 -118.78857422 62.32438965 -119.97558594 62.34057617 C-123.31537218 61.96448626 -124.65358981 61.36613664 -127 59 C-129.25852101 52.22443696 -128.42022412 47.19742321 -125.4375 40.875 C-122.72696996 35.88225482 -119.84282426 31.1593663 -115 28 C-112.6875 28.0625 -112.6875 28.0625 -110 29 C-102.67995058 29.78710209 -96.38940546 28.75198248 -90 25 C-85.44587969 21.12660083 -82.96124107 16.57405357 -81 11 C-80.95230469 10.16339844 -80.90460938 9.32679688 -80.85546875 8.46484375 C-80 6 -80 6 -76.9453125 4.41796875 C-75.67892162 3.98654628 -74.4048809 3.57708451 -73.125 3.1875 C-72.16787109 2.86362305 -72.16787109 2.86362305 -71.19140625 2.53320312 C-68.34753952 1.59811125 -66.01004294 1 -63 1 C-62.690625 2.918125 -62.690625 2.918125 -62.375 4.875 C-60.48265191 13.21972944 -56.20849914 20.05807402 -49.05078125 24.81640625 C-41.58902394 29.12290619 -34.61680544 30.07213708 -26 29 C-16.02329972 26.04914499 -9.56328413 21.76295601 -4.359375 12.75 C-2.33168096 8.64799826 -1.07601142 4.43618744 0 0 Z " fill="#FCE7A5" transform="translate(360,394)"/>
<path d="M0 0 C11.53619417 3.03024455 24.68836274 6.9957263 33 16 C34.3125 19.125 34.3125 19.125 34 22 C31.16716727 26.30452389 27.81621476 28.62735925 23.3125 30.9375 C22.65749512 31.27813477 22.00249023 31.61876953 21.32763672 31.96972656 C-16.16835749 50.88167448 -62.61578499 52.14728787 -103.6875 52.1875 C-104.60849487 52.18867828 -105.52948975 52.18985657 -106.47839355 52.19107056 C-125.19661808 52.18835195 -143.63613832 51.37026094 -162.1875 48.8125 C-163.37933395 48.65068237 -163.37933395 48.65068237 -164.59524536 48.4855957 C-221.58681552 40.66290215 -221.58681552 40.66290215 -237 24 C-238.125 21 -238.125 21 -238 18 C-235.20508355 13.74270673 -231.82983666 11.34268462 -227.4375 8.9375 C-226.82342285 8.59460938 -226.2093457 8.25171875 -225.57666016 7.8984375 C-219.0959065 4.366838 -212.48298601 1 -205 1 C-205.04640625 2.05058594 -205.0928125 3.10117187 -205.140625 4.18359375 C-205.42662872 13.27612856 -205.64984481 20.97156657 -199.12890625 28.0234375 C-193.39889073 33.33101331 -188.90467974 35.24602394 -181.01216125 35.26742554 C-179.9750307 35.27422221 -179.9750307 35.27422221 -178.91694802 35.28115618 C-176.60642877 35.29378858 -174.2961456 35.29218057 -171.9855957 35.29052734 C-170.32622475 35.29651347 -168.66685658 35.30331921 -167.00749207 35.31088257 C-162.50311322 35.32854474 -157.99881038 35.33323814 -153.49440026 35.33451414 C-150.67761144 35.33593658 -147.86084188 35.34020801 -145.04405785 35.34550858 C-135.20945384 35.36401203 -125.37490404 35.3721791 -115.5402832 35.37060547 C-106.38635922 35.36940511 -97.23267142 35.39048582 -88.07880718 35.4220928 C-80.21023877 35.44828937 -72.34174731 35.45897129 -64.47313565 35.45769465 C-59.77793303 35.45718586 -55.08294017 35.46282262 -50.38778114 35.48405075 C-45.96767462 35.50348929 -41.54797667 35.50351943 -37.1278553 35.48901749 C-35.51142527 35.48693499 -33.8949693 35.49159678 -32.27858353 35.5037384 C-18.24145126 35.697584 -18.24145126 35.697584 -6.10658741 29.32343102 C-0.06433893 22.92178457 1.33715485 16.46743623 1.203125 7.8671875 C1.01157574 5.16339606 0.59963004 2.64030645 0 0 Z " fill="#C9CDD5" transform="translate(422,436)"/>
<path d="M0 0 C18.81 0 37.62 0 57 0 C61.71056041 15.30932132 61.71056041 15.30932132 62.75 22.6875 C62.93103271 23.94663208 62.93103271 23.94663208 63.11572266 25.23120117 C63.89211886 31.08931367 64.30838423 36.90405134 64.375 42.8125 C64.39578613 43.89567505 64.39578613 43.89567505 64.41699219 45.00073242 C64.36661541 50.65154895 63.25307687 55.3831451 59.5 59.7421875 C54.04262025 63.86364617 49.84155083 64.52493921 43.1171875 64.4765625 C38.72662714 63.80532395 36.57496557 61.83396209 33.328125 58.9375 C24.17920837 51.3236365 11.15355598 47.66236166 0 44 C0 40.04 0 36.08 0 32 C17.25786509 31.29399643 17.25786509 31.29399643 25 36 C27.79461873 35.81109933 28.85549874 35.1336343 30.921875 33.22265625 C31.52515625 32.50980469 32.1284375 31.79695313 32.75 31.0625 C33.36359375 30.35222656 33.9771875 29.64195312 34.609375 28.91015625 C36.19618828 27.12430647 36.19618828 27.12430647 36 25 C25.98410663 16.30425304 12.47998478 16.49919939 0 16 C0 10.72 0 5.44 0 0 Z " fill="#EDCDB2" transform="translate(424,376)"/>
<path d="M0 0 C5.28 0 10.56 0 16 0 C16.42317708 3.3203125 16.84635417 6.640625 17.26953125 9.9609375 C17.70699334 13.29532084 17.70699334 13.29532084 21 15 C25.07490752 15.33957563 26.53001271 15.31332486 30 13 C30.80541207 9.89188713 30.80541207 9.89188713 31.1875 6.375 C31.5896875 3.219375 31.5896875 3.219375 32 0 C37.28 0 42.56 0 48 0 C48.52881697 9.94175896 48.11539102 17.13964912 41.390625 24.84375 C36.05628173 29.83552077 30.26065739 32.09281336 23 32.4375 C15.33403939 32.13273704 10.79987931 29.14425078 5.625 23.625 C-0.80185533 16.37878462 -0.18884707 9.25350664 0 0 Z " fill="#020101" transform="translate(264,120)"/>
<path d="M0 0 C-0.68704208 4.73611845 -2.48025502 8.79526259 -4.37890625 13.14453125 C-4.87619484 14.2992115 -4.87619484 14.2992115 -5.38352966 15.47721863 C-6.43865243 17.9243 -7.50046897 20.36841004 -8.5625 22.8125 C-9.28104324 24.47571959 -9.99914716 26.13912905 -10.71679688 27.80273438 C-12.47278311 31.8707066 -14.23477652 35.93602809 -16 40 C-25.06612179 38.40401019 -31.60061754 31.1338991 -37 24 C-41 17.96449704 -41 17.96449704 -41 15 C-35.81025579 12.68833617 -30.61417315 10.39182418 -25.41162109 8.10913086 C-23.64254102 7.33039161 -21.87526761 6.54753469 -20.10986328 5.76049805 C-17.5726697 4.63024177 -15.02935787 3.51492921 -12.484375 2.40234375 C-11.69569031 2.047202 -10.90700562 1.69206024 -10.09442139 1.32615662 C-9.35395569 1.00574905 -8.61348999 0.68534149 -7.85058594 0.35522461 C-7.20216736 0.06876572 -6.55374878 -0.21769318 -5.88568115 -0.51283264 C-3.59989277 -1.10336805 -2.21407075 -0.73582807 0 0 Z " fill="#FAE5A3" transform="translate(149,180)"/>
<path d="M0 0 C4.98669007 2.49334503 8.49675474 5.99350949 11 11 C11.54360446 15.95482094 11.56437074 19.87125852 9.3125 24.375 C6.14745126 27.96775803 2.78798338 31.69412413 -2.171875 32.23828125 C-8.01846537 32.40659218 -11.43192863 32.02425335 -16 28 C-20.39893104 23.00661882 -21.35676337 20.08984773 -21.28125 13.5390625 C-20.73016315 8.56397287 -17.99302299 5.87480597 -14.375 2.6875 C-9.71860985 -0.62098774 -5.60468123 -0.62082623 0 0 Z " fill="#F5D16D" transform="translate(333,376)"/>
<path d="M0 0 C2.5 0.125 2.5 0.125 3.5 1.125 C3.48851889 9.46373258 1.13248856 17.66169346 -0.875 25.6875 C-1.17921875 26.96947266 -1.4834375 28.25144531 -1.796875 29.57226562 C-2.09851563 30.78720703 -2.40015625 32.00214844 -2.7109375 33.25390625 C-2.98212402 34.35806885 -3.25331055 35.46223145 -3.53271484 36.59985352 C-3.85191895 37.43315186 -4.17112305 38.2664502 -4.5 39.125 C-7.5 40.125 -7.5 40.125 -9.9519043 39.00097656 C-13.03767265 37.13666364 -16.12085327 35.27067819 -19.1875 33.375 C-20.27095703 32.72789062 -21.35441406 32.08078125 -22.47070312 31.4140625 C-23.49486328 30.78757812 -24.51902344 30.16109375 -25.57421875 29.515625 C-26.51869873 28.93844727 -27.46317871 28.36126953 -28.4362793 27.76660156 C-29.11730713 27.22487305 -29.79833496 26.68314453 -30.5 26.125 C-30.5 25.135 -30.5 24.145 -30.5 23.125 C-28.66999638 21.32539511 -26.86450597 19.73147216 -24.875 18.125 C-24.29975586 17.64949707 -23.72451172 17.17399414 -23.13183594 16.68408203 C-17.56489561 12.1089874 -11.89324281 7.66258266 -6.203125 3.2421875 C-2.20437525 0.11021876 -2.20437525 0.11021876 0 0 Z " fill="#9BCE65" transform="translate(360.5,258.875)"/>
<path d="M0 0 C2.85145593 1.30415426 4.99702551 2.71720061 7.27734375 4.86328125 C7.87353516 5.42080078 8.46972656 5.97832031 9.08398438 6.55273438 C9.69564453 7.13345703 10.30730469 7.71417969 10.9375 8.3125 C11.54529297 8.88162109 12.15308594 9.45074219 12.77929688 10.03710938 C13.97132131 11.1571237 15.15848532 12.2823372 16.34033203 13.41308594 C17.85640548 14.86270015 19.39021938 16.29370215 20.92578125 17.72265625 C23 20 23 20 23.25 23.125 C22 26 22 26 18.90234375 27.54296875 C15.11674156 29.03359196 11.25590681 30.19487601 7.3125 31.1875 C6.62349609 31.3618457 5.93449219 31.53619141 5.22460938 31.71582031 C-0.8798169 33.15863337 -6.73654632 33.42705366 -13 33 C-10.66737643 25.63014946 -7.8202139 18.55561321 -4.8125 11.4375 C-4.11737305 9.78137695 -4.11737305 9.78137695 -3.40820312 8.09179688 C-2.27506147 5.39328426 -1.1389372 2.69607042 0 0 Z " fill="#F8E4A2" transform="translate(161,192)"/>
<path d="M0 0 C2.81640625 1.79296875 2.81640625 1.79296875 5.5625 4.1875 C6.47128906 4.96480469 7.38007812 5.74210938 8.31640625 6.54296875 C10.96217293 8.96536649 13.55732497 11.37180534 16 14 C16 14.66 16 15.32 16 16 C12.35506745 17.5734726 8.70717419 19.13984244 5.05639648 20.69970703 C3.81500279 21.23129273 2.5744337 21.76480845 1.3347168 22.30029297 C-0.44784809 23.06985843 -2.23365229 23.8319069 -4.01953125 24.59375 C-5.09307861 25.05458984 -6.16662598 25.51542969 -7.27270508 25.99023438 C-10 27 -10 27 -13 27 C-13.71165865 18.42055961 -12.57822669 8.4171915 -7.73828125 1.08984375 C-5.00179129 -0.62584321 -3.16479338 -0.44987792 0 0 Z " fill="#F7E3A2" transform="translate(117,152)"/>
<path d="M0 0 C4.432117 0.52358981 7.42150843 1.55194672 11.1796875 3.94140625 C12.571875 4.81635742 12.571875 4.81635742 13.9921875 5.70898438 C15.41917969 6.62647461 15.41917969 6.62647461 16.875 7.5625 C17.84953125 8.17802734 18.8240625 8.79355469 19.828125 9.42773438 C22.22449412 10.94308543 24.61469443 12.46731564 27 14 C25.73609097 17.79172709 24.52607996 18.16008189 21.125 20.13671875 C20.14015625 20.71357422 19.1553125 21.29042969 18.140625 21.88476562 C17.10421875 22.47966797 16.0678125 23.07457031 15 23.6875 C13.96359375 24.29400391 12.9271875 24.90050781 11.859375 25.52539062 C4.16848285 30 4.16848285 30 3 30 C2.29959257 25.75202223 1.61691386 21.50138178 0.9375 17.25 C0.73833984 16.0434375 0.53917969 14.836875 0.33398438 13.59375 C0.15029297 12.43359375 -0.03339844 11.2734375 -0.22265625 10.078125 C-0.48187866 8.47565918 -0.48187866 8.47565918 -0.74633789 6.84082031 C-0.98212697 4.20016422 -0.84161104 2.48550551 0 0 Z " fill="#9CCF65" transform="translate(283,269)"/>
<path d="M0 0 C9.57 0 19.14 0 29 0 C26.6573316 7.02800519 23.88064021 9.78296196 18 14 C13.53798971 15.81505503 9.79295613 16.23380274 5 16 C4.33806914 14.84239068 3.69645854 13.6731617 3.0625 12.5 C2.52302734 11.52546875 2.52302734 11.52546875 1.97265625 10.53125 C1 8 1 8 0 0 Z " fill="#FC806C" transform="translate(249,200)"/>
<path d="M0 0 C1.2684375 -0.02513672 1.2684375 -0.02513672 2.5625 -0.05078125 C5.46693361 0.38209107 6.73930516 1.50495977 9 3.3125 C8.49662109 3.6748877 7.99324219 4.03727539 7.47460938 4.41064453 C5.14915924 6.08545887 2.82457637 7.76147315 0.5 9.4375 C-0.29148437 10.00726563 -1.08296875 10.57703125 -1.8984375 11.1640625 C-2.68476562 11.73125 -3.47109375 12.2984375 -4.28125 12.8828125 C-5.06628906 13.4490332 -5.85132813 14.01525391 -6.66015625 14.59863281 C-9.61094848 16.76000191 -12.50609373 18.99032651 -15.38867188 21.24169922 C-17 22.3125 -17 22.3125 -19 22.3125 C-19.49613742 16.35885092 -18.39578225 12.27075874 -15 7.3125 C-10.69780166 2.75723117 -6.30153574 0.028818 0 0 Z " fill="#E4C5AB" transform="translate(59,231.6875)"/>
<path d="M0 0 C5.28 0 10.56 0 16 0 C16 5.28 16 10.56 16 16 C10.72 16 5.44 16 0 16 C0 10.72 0 5.44 0 0 Z " fill="#000000" transform="translate(312,328)"/>
<path d="M0 0 C4.0743356 0.84881992 5.54405875 2.30225596 8 5.625 C8.625 8.625 8.625 8.625 8 11.625 C5.54405875 14.94774404 4.0743356 16.40118008 0 17.25 C-4.0743356 16.40118008 -5.54405875 14.94774404 -8 11.625 C-8.625 8.625 -8.625 8.625 -8 5.625 C-5.54405875 2.30225596 -4.0743356 0.84881992 0 0 Z " fill="#F0CC6A" transform="translate(288,439.375)"/>
<path d="M0 0 C4.0743356 0.84881992 5.54405875 2.30225596 8 5.625 C8.625 8.625 8.625 8.625 8 11.625 C5.54405875 14.94774404 4.0743356 16.40118008 0 17.25 C-4.0743356 16.40118008 -5.54405875 14.94774404 -8 11.625 C-8.625 8.625 -8.625 8.625 -8 5.625 C-5.54405875 2.30225596 -4.0743356 0.84881992 0 0 Z " fill="#F0CC6A" transform="translate(256,391.375)"/>
<path d="M0 0 C4.0743356 0.84881992 5.54405875 2.30225596 8 5.625 C8.625 8.625 8.625 8.625 8 11.625 C5.54405875 14.94774404 4.0743356 16.40118008 0 17.25 C-4.0743356 16.40118008 -5.54405875 14.94774404 -8 11.625 C-8.625 8.625 -8.625 8.625 -8 5.625 C-5.54405875 2.30225596 -4.0743356 0.84881992 0 0 Z " fill="#F0CC6A" transform="translate(96,215.375)"/>
</svg>
