<?xml version="1.0" encoding="UTF-8"?>
<svg version="1.1" xmlns="http://www.w3.org/2000/svg" width="512" height="512">
<path d="M0 0 C10.7207076 8.55426446 18.14535899 18.68498629 24.89578247 30.54547119 C26.72272598 33.75406247 28.57820735 36.94615122 30.4296875 40.140625 C30.80861649 40.7960025 31.18754547 41.45138 31.57795715 42.12661743 C35.47491057 48.85274939 39.50914401 55.49236303 43.5625 62.125 C51.10744658 74.49050296 58.51221291 86.93589435 65.87841797 99.40869141 C69.72544055 105.9218517 73.57909928 112.43107411 77.4375 118.9375 C78.03485962 119.94493256 78.03485962 119.94493256 78.64428711 120.97271729 C84.68198058 131.14978344 90.79216509 141.28062755 96.94802856 151.38656616 C103.11118545 161.50646163 109.16297679 171.68791423 115.17285156 181.89941406 C118.85477594 188.14746852 122.55047419 194.38735446 126.25 200.625 C126.65355713 201.30548401 127.05711426 201.98596802 127.47290039 202.68707275 C133.21712233 212.36777619 139.01895097 222.01157265 144.875 231.625 C151.39682462 242.33160331 157.81414375 253.09520495 164.17285156 263.89941406 C167.44920483 269.45923321 170.73667508 275.01244504 174.02804565 280.56338501 C174.84118925 281.93527671 175.65379309 283.30748847 176.46585083 284.68002319 C180.84201921 292.07570054 185.25252709 299.44506964 189.78515625 306.74609375 C190.55510829 307.99196587 191.32496663 309.2378959 192.09472656 310.48388672 C193.51499702 312.78192785 194.94915005 315.06886118 196.39355469 317.35205078 C208.31644127 336.61960101 213.45518193 357.51054889 209.3828125 380.1796875 C204.0807746 400.496346 191.53052256 418.5204651 173.375 429.25 C162.02787389 435.66072587 149.30989123 439.11714607 136.27719879 439.13142776 C135.63541058 439.1334804 134.99362236 439.13553303 134.33238602 439.13764787 C132.19117551 439.14328273 130.05003004 439.14186499 127.90881348 439.14044189 C126.3542872 439.14302756 124.79976158 439.14604128 123.24523687 439.1494453 C118.98021328 439.15749507 114.71520653 439.15930374 110.45017624 439.16004276 C105.84737448 439.16189687 101.24458139 439.16944606 96.64178467 439.17617798 C86.57953066 439.18974796 76.51728064 439.19578408 66.455019 439.20018864 C60.16839133 439.2029536 53.88176519 439.20719144 47.59513855 439.21169281 C30.17910102 439.22388427 12.76306471 439.23418348 -4.65297699 439.2375679 C-5.76721476 439.23778747 -6.88145254 439.23800703 -8.0294551 439.23823325 C-9.70474772 439.23856067 -9.70474772 439.23856067 -11.41388464 439.2388947 C-13.67696476 439.23933816 -15.94004488 439.23978473 -18.203125 439.24023438 C-19.88696382 439.24056652 -19.88696382 439.24056652 -21.6048196 439.24090537 C-39.78459855 439.24485138 -57.96433738 439.26229995 -76.14410084 439.2855939 C-94.82237145 439.30933278 -113.50062194 439.32177093 -132.17890787 439.32293582 C-142.66060987 439.32385121 -153.14225958 439.32956914 -163.62394714 439.34775543 C-172.55140157 439.36319074 -181.47878756 439.36825672 -190.4062528 439.36001733 C-194.95696011 439.35612282 -199.50752973 439.3569815 -204.05821991 439.37107468 C-208.23335968 439.38388592 -212.40825934 439.38255334 -216.58339912 439.37048396 C-218.08479504 439.36853938 -219.5862084 439.37154733 -221.08757991 439.38032833 C-243.86960214 439.50501567 -263.70975481 433.35963217 -280.58984375 417.49609375 C-294.92894396 402.64571282 -302.64364503 384.33904481 -302.4375 363.6875 C-302.42847656 362.59445557 -302.41945313 361.50141113 -302.41015625 360.37524414 C-301.91144658 336.98956999 -289.55735027 318.99432959 -277.69140625 299.671875 C-272.92505503 291.9102713 -268.26567142 284.08721739 -263.625 276.25 C-262.8279224 274.90524881 -262.03080309 273.56052235 -261.23364258 272.21582031 C-258.82094287 268.14475917 -256.41028104 264.07249345 -254 260 C-250.79352543 254.58223068 -247.58582553 249.1651921 -244.375 243.75 C-243.98207764 243.0872406 -243.58915527 242.4244812 -243.18432617 241.74163818 C-237.20381284 231.65913765 -231.14947327 221.62365783 -225.05114746 211.61206055 C-218.88826244 201.49262456 -212.83675243 191.31162569 -206.82714844 181.10058594 C-203.14522406 174.85253148 -199.44952581 168.61264554 -195.75 162.375 C-195.14466431 161.35427399 -195.14466431 161.35427399 -194.52709961 160.31292725 C-188.78287767 150.63222381 -182.98104903 140.98842735 -177.125 131.375 C-170.60317538 120.66839669 -164.18585625 109.90479505 -157.82714844 99.10058594 C-147.31070368 81.2546682 -136.74406381 63.43868322 -125.93383789 45.76879883 C-122.79606403 40.63382172 -119.68599435 35.49180619 -116.6953125 30.26953125 C-104.53291133 9.1113745 -89.64635812 -6.17666822 -65.34375 -13.03125 C-42.21794955 -18.27828035 -19.24292059 -14.04365864 0 0 Z " fill="#FC003A" transform="translate(302,44)"/>
<path d="M0 0 C15.0711517 1.50711517 25.79477335 5.70102507 35.81616211 17.19604492 C40.10248091 22.69949617 43.46263836 28.78040679 46.9375 34.8125 C48.19237229 36.96382908 49.45097396 39.11294767 50.70977783 41.26197815 C51.5630835 42.71919097 52.41525429 44.17706892 53.26629639 45.63560486 C56.96250643 51.96432992 60.75614043 58.23018285 64.58132935 64.48153687 C71.03238542 75.02630384 77.33849431 85.6479438 83.56506348 96.32659912 C88.74742329 105.20992311 94.01847371 114.0331531 99.375 122.8125 C105.43927433 132.75410592 111.43681363 142.73253381 117.375 152.75 C117.76957397 153.41548859 118.16414795 154.08097717 118.57067871 154.76663208 C121.78569758 160.19011304 124.99705676 165.61575847 128.20825195 171.04150391 C131.01212998 175.77868049 133.8175436 180.51494318 136.625 185.25 C137.01925171 185.91508575 137.41350342 186.58017151 137.81970215 187.26541138 C143.70515175 197.18915284 149.66805784 207.06307152 155.67730713 216.91223145 C161.41485482 226.32168957 167.01387636 235.80623369 172.56506348 245.32659912 C177.74742064 254.20991856 183.01826776 263.0332812 188.375 271.8125 C194.69317217 282.16834035 200.93567027 292.56660617 207.125 303 C207.52096375 303.6671402 207.91692749 304.3342804 208.32489014 305.02163696 C210.54465358 308.76280024 212.75954841 312.50678597 214.96908569 316.2539978 C215.99008365 317.98320524 217.01516439 319.7099999 218.0402832 321.43676758 C218.66507568 322.49532959 219.28986816 323.5538916 219.93359375 324.64453125 C220.48072021 325.56854736 221.02784668 326.49256348 221.59155273 327.44458008 C227.01915332 337.29216118 227.67383042 349.28335808 225.30859375 360.1875 C224.38054764 362.92115882 223.29865281 365.42298582 222 368 C221.5875 368.84949219 221.175 369.69898438 220.75 370.57421875 C215.0956285 381.06372042 206.28411629 388.25866184 195 392 C186.07964017 394.6281318 177.11186958 394.26680432 167.90405273 394.22705078 C166.07023627 394.22648603 164.23641935 394.22680448 162.40260315 394.22793579 C157.44457654 394.22850779 152.4866474 394.21677817 147.52864337 394.20278788 C142.33966238 394.19025509 137.15067897 394.18910801 131.96168518 394.18673706 C122.1446573 394.18052977 112.32767416 394.16412913 102.51066595 394.14403808 C91.33050694 394.12165569 80.15034575 394.11067977 68.9701699 394.10064721 C45.98008766 394.07976223 22.99004823 394.04419631 0 394 C0 384.1 0 374.2 0 364 C-3.3 363.67 -6.6 363.34 -10 363 C-21.65076507 359.70154525 -31.98098528 352.87782379 -38.56640625 342.66015625 C-40.92385557 338.28570669 -42.58690022 333.75591646 -44 329 C-44.19335938 328.3709375 -44.38671875 327.741875 -44.5859375 327.09375 C-46.88500914 315.46825568 -44.46332762 304.27192987 -38.5 294.2265625 C-30.78669147 282.77712015 -20.49665022 276.03095183 -7 273 C-4.69 273 -2.38 273 0 273 C0 263.43 0 253.86 0 244 C-3.3 243.34 -6.6 242.68 -10 242 C-17.98694733 238.78137943 -23.7384623 234.26579108 -27.375 226.3125 C-29.27825512 221.65366246 -30.12429503 217.63396335 -30.16062927 212.58850098 C-30.17569771 210.94026337 -30.17569771 210.94026337 -30.19107056 209.25872803 C-30.19690155 208.05766418 -30.20273254 206.85660034 -30.20874023 205.61914062 C-30.21852402 204.35036072 -30.2283078 203.08158081 -30.23838806 201.77435303 C-30.2697194 197.56834958 -30.29004053 193.36232673 -30.30859375 189.15625 C-30.31189107 188.43900694 -30.31518839 187.72176388 -30.31858563 186.98278618 C-30.34937502 180.20895292 -30.37606325 173.43511498 -30.39300442 166.66123199 C-30.41487154 158.02113153 -30.45676269 149.38165554 -30.52644199 140.7418046 C-30.57385516 134.65411708 -30.59796124 128.56659694 -30.6052013 122.47873068 C-30.6101334 118.8496386 -30.62497656 115.22125099 -30.6649456 111.59236145 C-30.70906375 107.53320284 -30.70487716 103.47540681 -30.69702148 99.41601562 C-30.71702209 98.23114563 -30.73702271 97.04627563 -30.75762939 95.82550049 C-30.6779153 86.60351104 -28.25315229 78.66052371 -21.92899227 71.73062897 C-14.8765201 65.17487841 -9.91946099 63.9919461 0 63 C0 42.21 0 21.42 0 0 Z " fill="#E40027" transform="translate(256,59)"/>
<path d="M0 0 C10.7207076 8.55426446 18.14535899 18.68498629 24.89578247 30.54547119 C26.72272598 33.75406247 28.57820735 36.94615122 30.4296875 40.140625 C30.80861649 40.7960025 31.18754547 41.45138 31.57795715 42.12661743 C35.47491057 48.85274939 39.50914401 55.49236303 43.5625 62.125 C51.10744658 74.49050296 58.51221291 86.93589435 65.87841797 99.40869141 C69.72544055 105.9218517 73.57909928 112.43107411 77.4375 118.9375 C78.03485962 119.94493256 78.03485962 119.94493256 78.64428711 120.97271729 C84.68198058 131.14978344 90.79216509 141.28062755 96.94802856 151.38656616 C103.11118545 161.50646163 109.16297679 171.68791423 115.17285156 181.89941406 C118.85477594 188.14746852 122.55047419 194.38735446 126.25 200.625 C126.65355713 201.30548401 127.05711426 201.98596802 127.47290039 202.68707275 C133.21712233 212.36777619 139.01895097 222.01157265 144.875 231.625 C151.39682462 242.33160331 157.81414375 253.09520495 164.17285156 263.89941406 C167.44920483 269.45923321 170.73667508 275.01244504 174.02804565 280.56338501 C174.84118925 281.93527671 175.65379309 283.30748847 176.46585083 284.68002319 C180.84201921 292.07570054 185.25252709 299.44506964 189.78515625 306.74609375 C190.55510829 307.99196587 191.32496663 309.2378959 192.09472656 310.48388672 C193.51499702 312.78192785 194.94915005 315.06886118 196.39355469 317.35205078 C208.31644127 336.61960101 213.45518193 357.51054889 209.3828125 380.1796875 C204.0807746 400.496346 191.53052256 418.5204651 173.375 429.25 C162.02787389 435.66072587 149.30989123 439.11714607 136.27719879 439.13142776 C135.63541058 439.1334804 134.99362236 439.13553303 134.33238602 439.13764787 C132.19117551 439.14328273 130.05003004 439.14186499 127.90881348 439.14044189 C126.3542872 439.14302756 124.79976158 439.14604128 123.24523687 439.1494453 C118.98021328 439.15749507 114.71520653 439.15930374 110.45017624 439.16004276 C105.84737448 439.16189687 101.24458139 439.16944606 96.64178467 439.17617798 C86.57953066 439.18974796 76.51728064 439.19578408 66.455019 439.20018864 C60.16839133 439.2029536 53.88176519 439.20719144 47.59513855 439.21169281 C30.17910102 439.22388427 12.76306471 439.23418348 -4.65297699 439.2375679 C-5.76721476 439.23778747 -6.88145254 439.23800703 -8.0294551 439.23823325 C-9.70474772 439.23856067 -9.70474772 439.23856067 -11.41388464 439.2388947 C-13.67696476 439.23933816 -15.94004488 439.23978473 -18.203125 439.24023438 C-19.88696382 439.24056652 -19.88696382 439.24056652 -21.6048196 439.24090537 C-39.78459855 439.24485138 -57.96433738 439.26229995 -76.14410084 439.2855939 C-94.82237145 439.30933278 -113.50062194 439.32177093 -132.17890787 439.32293582 C-142.66060987 439.32385121 -153.14225958 439.32956914 -163.62394714 439.34775543 C-172.55140157 439.36319074 -181.47878756 439.36825672 -190.4062528 439.36001733 C-194.95696011 439.35612282 -199.50752973 439.3569815 -204.05821991 439.37107468 C-208.23335968 439.38388592 -212.40825934 439.38255334 -216.58339912 439.37048396 C-218.08479504 439.36853938 -219.5862084 439.37154733 -221.08757991 439.38032833 C-243.86960214 439.50501567 -263.70975481 433.35963217 -280.58984375 417.49609375 C-294.92894396 402.64571282 -302.64364503 384.33904481 -302.4375 363.6875 C-302.42847656 362.59445557 -302.41945313 361.50141113 -302.41015625 360.37524414 C-301.91144658 336.98956999 -289.55735027 318.99432959 -277.69140625 299.671875 C-272.92505503 291.9102713 -268.26567142 284.08721739 -263.625 276.25 C-262.8279224 274.90524881 -262.03080309 273.56052235 -261.23364258 272.21582031 C-258.82094287 268.14475917 -256.41028104 264.07249345 -254 260 C-250.79352543 254.58223068 -247.58582553 249.1651921 -244.375 243.75 C-243.98207764 243.0872406 -243.58915527 242.4244812 -243.18432617 241.74163818 C-237.20381284 231.65913765 -231.14947327 221.62365783 -225.05114746 211.61206055 C-218.88826244 201.49262456 -212.83675243 191.31162569 -206.82714844 181.10058594 C-203.14522406 174.85253148 -199.44952581 168.61264554 -195.75 162.375 C-195.14466431 161.35427399 -195.14466431 161.35427399 -194.52709961 160.31292725 C-188.78287767 150.63222381 -182.98104903 140.98842735 -177.125 131.375 C-170.60317538 120.66839669 -164.18585625 109.90479505 -157.82714844 99.10058594 C-147.31070368 81.2546682 -136.74406381 63.43868322 -125.93383789 45.76879883 C-122.79606403 40.63382172 -119.68599435 35.49180619 -116.6953125 30.26953125 C-104.53291133 9.1113745 -89.64635812 -6.17666822 -65.34375 -13.03125 C-42.21794955 -18.27828035 -19.24292059 -14.04365864 0 0 Z M-77.96484375 27.72265625 C-86.59634801 37.38132609 -92.60643201 49.38245814 -98.98754883 60.55932617 C-103.61835951 68.65850901 -108.38428618 76.66402436 -113.25 84.625 C-119.44709788 94.77054116 -125.56692667 104.9582992 -131.625 115.1875 C-133.23161962 117.8998292 -134.83833383 120.61210226 -136.4453125 123.32421875 C-136.83448853 123.98105652 -137.22366455 124.63789429 -137.62463379 125.31463623 C-141.82107007 132.39255462 -146.06067545 139.44437504 -150.30175781 146.49560547 C-153.73665938 152.21219766 -157.15513656 157.93812081 -160.5546875 163.67578125 C-160.94731781 164.33844498 -161.33994812 165.0011087 -161.74447632 165.68385315 C-162.54893803 167.04177184 -163.35337096 168.39970758 -164.15777588 169.75765991 C-164.55945984 170.43575714 -164.9611438 171.11385437 -165.375 171.8125 C-165.77652283 172.49035553 -166.17804565 173.16821106 -166.59173584 173.86660767 C-172.55154629 183.9235822 -178.58720597 193.93113971 -184.6762085 203.91030884 C-190.41346917 213.31936965 -196.01308713 222.80305224 -201.56304932 232.32357788 C-207.12533403 241.86081754 -212.80807222 251.3173995 -218.5625 260.73974609 C-224.3368722 270.20005717 -229.97465352 279.73348805 -235.55444336 289.30966187 C-240.58029828 297.93113552 -245.697371 306.49065671 -250.89837646 315.00759888 C-269.2185716 342.39638951 -269.2185716 342.39638951 -271.30859375 374.2421875 C-268.56480487 383.26569404 -264.01351556 390.67072986 -257 397 C-256.48824219 397.49242187 -255.97648437 397.98484375 -255.44921875 398.4921875 C-247.52685045 405.81354855 -239.01351136 408.0982387 -228.35491943 408.15821838 C-227.70946881 408.16315707 -227.06401819 408.16809575 -226.39900845 408.1731841 C-224.23964082 408.18850293 -222.08030323 408.19691664 -219.92089844 408.20532227 C-218.35600319 408.21491408 -216.7911104 408.22491398 -215.22622013 408.23528671 C-210.92941127 408.2624601 -206.63259142 408.28344477 -202.33574319 408.30327249 C-198.65195979 408.32101842 -194.96819987 408.34226234 -191.28443533 408.36352271 C-179.16171471 408.43343374 -167.0389492 408.4915558 -154.9161582 408.54769325 C-150.70898293 408.56736838 -146.50181161 408.58782447 -142.29464012 408.60829079 C-111.32902176 408.758715 -80.36333126 408.88226919 -49.39753056 408.98834324 C-46.00584186 408.99997996 -42.61415368 409.01175985 -39.22246552 409.02355194 C-12.98305698 409.11426264 13.2563148 409.18865495 39.49586296 409.22300434 C41.57231522 409.22572362 43.64876748 409.22844571 45.72521973 409.23117065 C46.74658339 409.23249935 47.76794705 409.23382805 48.82026112 409.23519701 C56.0051556 409.24524681 63.19000733 409.26290037 70.37487793 409.28372192 C79.13363399 409.30893038 87.89232713 409.32335424 96.65112084 409.32383865 C101.11372787 409.32432277 105.57619367 409.32945452 110.03876686 409.34760094 C114.12733289 409.364044 118.2156608 409.36630192 122.30424833 409.35758102 C123.7770877 409.35684039 125.24994064 409.36110266 126.72274637 409.37108433 C142.97872128 409.47491699 155.85603141 406.45884883 167.9296875 395.2265625 C171.37914714 391.51676628 173.76931117 387.52917975 176 383 C176.41378906 382.18015625 176.82757813 381.3603125 177.25390625 380.515625 C179.69825326 374.89447856 180.39874645 369.62218759 180.5 363.5625 C180.51853027 362.89532959 180.53706055 362.22815918 180.55615234 361.54077148 C180.40989034 349.57740027 174.34177942 339.44508868 168.3125 329.5 C167.55580308 328.23248174 166.80004474 326.96440273 166.04516602 325.69580078 C163.71352121 321.7870102 161.35889497 317.89238796 159 314 C158.26720758 312.78876422 157.53445915 311.57750182 156.80175781 310.36621094 C153.97594177 305.69791481 151.14442546 301.03312098 148.3034668 296.37402344 C141.47515466 285.17274018 134.79252211 273.88685102 128.12158203 262.59130859 C124.27455933 256.07814809 120.42080293 249.56898407 116.5625 243.0625 C116.16293091 242.38855194 115.76336182 241.71460388 115.35168457 241.02023315 C109.40906594 231.00191812 103.39037887 221.03259752 97.32351685 211.08914185 C91.58569707 201.67922416 85.98639262 192.19422762 80.43493652 182.67340088 C75.25258047 173.79008335 69.98180071 164.96667525 64.625 156.1875 C58.47204506 146.10312316 52.39556934 135.97649553 46.375 125.8125 C45.97331604 125.13440277 45.57163208 124.45630554 45.15777588 123.75765991 C44.7578241 123.08248322 44.35787231 122.40730652 43.94580078 121.71166992 C43.14880291 120.36635007 42.35176554 119.02105361 41.5546875 117.67578125 C41.16552155 117.01895859 40.77635559 116.36213593 40.37539673 115.68540955 C36.18195373 108.6125604 31.94588215 101.56547977 27.70703125 94.51977539 C23.80710267 88.03050718 19.93588809 81.52488416 16.08044434 75.00914001 C12.09317914 68.27102338 8.0942199 61.53994135 4.08312988 54.815979 C3.05555909 53.09315055 2.02920939 51.36959396 1.00292969 49.64599609 C-0.73628683 46.73585365 -2.48980099 43.83498577 -4.25 40.9375 C-4.73807129 40.11797852 -5.22614258 39.29845703 -5.72900391 38.45410156 C-12.31503529 27.71506596 -21.51640595 20.08708297 -33.74609375 16.53515625 C-49.118211 12.88527746 -66.32157654 16.7738185 -77.96484375 27.72265625 Z " fill="#E50027" transform="translate(302,44)"/>
<path d="M0 0 C20.83958269 0 37.95219605 7.51430436 53.41796875 21.30078125 C60.46747265 28.67023237 65.86112463 36.6995842 70.89578247 45.54547119 C72.72272598 48.75406247 74.57820735 51.94615122 76.4296875 55.140625 C76.80861649 55.7960025 77.18754547 56.45138 77.57795715 57.12661743 C81.47491057 63.85274939 85.50914401 70.49236303 89.5625 77.125 C97.10744658 89.49050296 104.51221291 101.93589435 111.87841797 114.40869141 C115.72544055 120.9218517 119.57909928 127.43107411 123.4375 133.9375 C124.03485962 134.94493256 124.03485962 134.94493256 124.64428711 135.97271729 C130.68198058 146.14978344 136.79216509 156.28062755 142.94802856 166.38656616 C149.11118545 176.50646163 155.16297679 186.68791423 161.17285156 196.89941406 C164.85477594 203.14746852 168.55047419 209.38735446 172.25 215.625 C172.65355713 216.30548401 173.05711426 216.98596802 173.47290039 217.68707275 C179.21712233 227.36777619 185.01895097 237.01157265 190.875 246.625 C197.39682462 257.33160331 203.81414375 268.09520495 210.17285156 278.89941406 C213.44920483 284.45923321 216.73667508 290.01244504 220.02804565 295.56338501 C220.84118925 296.93527671 221.65379309 298.30748847 222.46585083 299.68002319 C226.84201921 307.07570054 231.25252709 314.44506964 235.78515625 321.74609375 C236.55510829 322.99196587 237.32496663 324.2378959 238.09472656 325.48388672 C239.51499702 327.78192785 240.94915005 330.06886118 242.39355469 332.35205078 C254.31644127 351.61960101 259.45518193 372.51054889 255.3828125 395.1796875 C250.0807746 415.496346 237.53052256 433.5204651 219.375 444.25 C207.55801068 450.92618201 194.53395799 454.17545968 180.98304749 454.12025452 C180.20527512 454.12110894 179.42750275 454.12196337 178.62616152 454.12284368 C176.03598808 454.12448274 173.4458803 454.11900303 170.85571289 454.11352539 C168.99263511 454.11324315 167.12955721 454.11340197 165.26647949 454.1139679 C160.21952453 454.11425444 155.1725934 454.10838074 150.12564397 454.10139394 C144.84722722 454.09513667 139.5688099 454.09455472 134.29039001 454.09336853 C124.2997735 454.09026222 114.30916794 454.08205825 104.31855625 454.07201904 C92.9425538 454.06083619 81.56655083 454.05534198 70.19054425 454.05032361 C46.79368989 454.03987506 23.39684602 454.02208738 0 454 C0 444.1 0 434.2 0 424 C2.30357483 423.99413376 4.60714966 423.98826752 6.98052979 423.98222351 C28.6978942 423.92550748 50.41515954 423.8524026 72.13241959 423.76428509 C83.29725448 423.71937622 94.46205782 423.67995023 105.62695312 423.65356445 C115.36163149 423.63054462 125.09620961 423.59710211 134.8308084 423.55129844 C139.98215313 423.52741997 145.13339891 423.50865599 150.28479767 423.50238609 C155.14066054 423.49631089 159.99627038 423.47622347 164.85203934 423.44572449 C166.6272442 423.43698317 168.40248218 423.43321352 170.17770767 423.43499184 C186.55049376 423.44620741 200.63365438 421.5270736 213.15234375 410.00390625 C216.4930685 406.38066778 218.80676353 402.39296181 221 398 C221.41507813 397.17886719 221.83015625 396.35773438 222.2578125 395.51171875 C224.69724985 389.89077744 225.39877595 384.62042213 225.5 378.5625 C225.52779541 377.56174438 225.52779541 377.56174438 225.55615234 376.54077148 C225.40989034 364.57740027 219.34177942 354.44508868 213.3125 344.5 C212.55580308 343.23248174 211.80004474 341.96440273 211.04516602 340.69580078 C208.71352121 336.7870102 206.35889497 332.89238796 204 329 C203.26720758 327.78876422 202.53445915 326.57750182 201.80175781 325.36621094 C198.97594177 320.69791481 196.14442546 316.03312098 193.3034668 311.37402344 C186.47515466 300.17274018 179.79252211 288.88685102 173.12158203 277.59130859 C169.27455933 271.07814809 165.42080293 264.56898407 161.5625 258.0625 C161.16293091 257.38855194 160.76336182 256.71460388 160.35168457 256.02023315 C154.40906594 246.00191812 148.39037887 236.03259752 142.32351685 226.08914185 C136.58569707 216.67922416 130.98639262 207.19422762 125.43493652 197.67340088 C120.25258047 188.79008335 114.98180071 179.96667525 109.625 171.1875 C103.47204506 161.10312316 97.39556934 150.97649553 91.375 140.8125 C90.97331604 140.13440277 90.57163208 139.45630554 90.15777588 138.75765991 C89.7578241 138.08248322 89.35787231 137.40730652 88.94580078 136.71166992 C88.14880291 135.36635007 87.35176554 134.02105361 86.5546875 132.67578125 C86.16552155 132.01895859 85.77635559 131.36213593 85.37539673 130.68540955 C81.18195373 123.6125604 76.94588215 116.56547977 72.70703125 109.51977539 C68.8071804 103.03063652 64.93564227 96.52537508 61.08085632 90.00941467 C57.84666959 84.54307125 54.60128873 79.08348094 51.3483429 73.62828064 C48.96701617 69.63281652 46.60682042 65.625572 44.25390625 61.61328125 C36.22233411 48.06577307 29.28702672 38.64955335 14 33 C9.38 32.01 4.76 31.02 0 30 C0 20.1 0 10.2 0 0 Z " fill="#C1001F" transform="translate(256,29)"/>
<path d="M0 0 C6.59147587 5.11558564 10.94731131 12.57862611 12.35881424 20.80400658 C12.56847686 24.25563245 12.59742979 27.66024093 12.55322266 31.11791992 C12.56052399 32.41219406 12.56782532 33.7064682 12.5753479 35.03996277 C12.59397023 38.55254883 12.57548833 42.0640012 12.54868364 45.57649779 C12.52584901 49.27180749 12.53428499 52.9670697 12.53817749 56.66242981 C12.53993638 62.86164614 12.51792549 69.06042211 12.48095703 75.25952148 C12.43857565 82.40681814 12.43161785 89.55347186 12.44408095 96.70086879 C12.45550222 103.60687621 12.44414083 110.51265935 12.42173386 117.41863441 C12.41249229 120.3446706 12.41067199 123.27056849 12.41490555 126.19661522 C12.41940108 130.28660635 12.39034265 134.37571121 12.35791016 138.46557617 C12.36286499 139.66736511 12.36781982 140.86915405 12.3729248 142.10736084 C12.24340007 152.36839893 9.59786785 159.37149981 2.6015625 166.875 C-4.63178328 173.82468516 -12.00942159 175.07981318 -21.71875 174.90625 C-30.05640497 174.16533353 -36.74814086 169.87104926 -42.19140625 163.59765625 C-46.10885216 157.28891582 -48.29854826 151.61353047 -48.35203552 144.18615723 C-48.36208115 143.08733215 -48.37212677 141.98850708 -48.38247681 140.85638428 C-48.3883078 139.65532043 -48.39413879 138.45425659 -48.40014648 137.21679688 C-48.40993027 135.94801697 -48.41971405 134.67923706 -48.42979431 133.37200928 C-48.46112565 129.16600583 -48.48144678 124.95998298 -48.5 120.75390625 C-48.50329732 120.03666319 -48.50659464 119.31942013 -48.50999188 118.58044243 C-48.54078127 111.80660917 -48.5674695 105.03277123 -48.58441067 98.25888824 C-48.60627779 89.61878778 -48.64816894 80.97931179 -48.71784824 72.33946085 C-48.76526141 66.25177333 -48.78936749 60.16425319 -48.79660755 54.07638693 C-48.80153965 50.44729485 -48.81638281 46.81890724 -48.85635185 43.1900177 C-48.90047 39.13085909 -48.89628341 35.07306306 -48.88842773 31.01367188 C-48.90842834 29.82880188 -48.92842896 28.64393188 -48.94903564 27.42315674 C-48.86932596 18.20167736 -46.44534192 10.25629245 -40.11917782 3.32828522 C-28.55040869 -7.43247886 -13.21285853 -8.45528736 0 0 Z " fill="#C5C8F6" transform="translate(274.19140625,127.40234375)"/>
<path d="M0 0 C7.54637964 5.05767997 12.49798473 11.67949175 16.5703125 19.72265625 C16.91191406 20.39554687 17.25351562 21.0684375 17.60546875 21.76171875 C21.47195635 31.07725632 20.95631772 44.16047914 17.54296875 53.52734375 C11.8476025 66.38194548 4.03066643 74.6279761 -8.69140625 80.82421875 C-18.56394346 84.51134434 -32.13759283 84.50654662 -41.9296875 80.72265625 C-55.38572988 74.00404488 -63.89862603 65.49790915 -68.703125 51.16796875 C-68.94289062 50.36101562 -69.18265625 49.5540625 -69.4296875 48.72265625 C-69.62304688 48.09359375 -69.81640625 47.46453125 -70.015625 46.81640625 C-72.31469664 35.19091193 -69.89301512 23.99458612 -63.9296875 13.94921875 C-49.07045934 -8.10744805 -22.71814297 -13.171345 0 0 Z " fill="#C5C8F5" transform="translate(281.4296875,339.27734375)"/>
<path d="M0 0 C0 59.4 0 118.8 0 180 C-9.38359353 180 -15.32604071 177.42548533 -22.20703125 171.06640625 C-27.55921189 164.89798891 -30.10257345 157.65027526 -30.16062927 149.58850098 C-30.1706749 148.4896759 -30.18072052 147.39085083 -30.19107056 146.25872803 C-30.19690155 145.05766418 -30.20273254 143.85660034 -30.20874023 142.61914062 C-30.21852402 141.35036072 -30.2283078 140.08158081 -30.23838806 138.77435303 C-30.2697194 134.56834958 -30.29004053 130.36232673 -30.30859375 126.15625 C-30.31189107 125.43900694 -30.31518839 124.72176388 -30.31858563 123.98278618 C-30.34937502 117.20895292 -30.37606325 110.43511498 -30.39300442 103.66123199 C-30.41487154 95.02113153 -30.45676269 86.38165554 -30.52644199 77.7418046 C-30.57385516 71.65411708 -30.59796124 65.56659694 -30.6052013 59.47873068 C-30.6101334 55.8496386 -30.62497656 52.22125099 -30.6649456 48.59236145 C-30.70906375 44.53320284 -30.70487716 40.47540681 -30.69702148 36.41601562 C-30.71702209 35.23114563 -30.73702271 34.04627563 -30.75762939 32.82550049 C-30.67791971 23.60402111 -28.25393567 15.6586362 -21.92777157 8.73062897 C-15.32462501 2.58867026 -8.98337094 0 0 0 Z " fill="#E1E3FA" transform="translate(256,122)"/>
<path d="M0 0 C0 29.37 0 58.74 0 89 C-13.50267132 89 -22.93437525 85.04953645 -33 76 C-38.55016036 69.78959752 -41.64438299 62.92804435 -44 55 C-44.19335938 54.3709375 -44.38671875 53.741875 -44.5859375 53.09375 C-46.88500914 41.46825568 -44.46332762 30.27192987 -38.5 20.2265625 C-33.26218567 12.45168186 -27.37767789 7.1955626 -19 3 C-18.33097656 2.6596875 -17.66195312 2.319375 -16.97265625 1.96875 C-10.91639702 -0.70640745 -7.29656195 0 0 0 Z " fill="#E1E2F9" transform="translate(256,333)"/>
</svg>
