<?xml version="1.0" encoding="UTF-8"?>
<svg version="1.1" xmlns="http://www.w3.org/2000/svg" width="512" height="512">
<path d="M0 0 C2.50119875 2.70399865 4.96557309 5.42685505 7.359375 8.2265625 C9.47284501 10.68664159 11.63676992 13.09485621 13.8125 15.5 C17.07954335 19.12023723 20.30770776 22.76983565 23.5078125 26.44921875 C25.54208141 28.76088797 27.6147231 31.0353143 29.6875 33.3125 C32.74108867 36.68940982 35.65679205 40.13217132 38.5 43.6875 C43.40253486 49.75320218 48.73508037 55.38164977 54.08203125 61.0546875 C57.02282579 64.17775922 59.87649177 67.36272092 62.67578125 70.61328125 C64.69123772 72.93658787 66.75098462 75.21748465 68.8125 77.5 C72.07640848 81.11676345 75.30040949 84.76389608 78.5 88.4375 C80.58461164 90.80964429 82.69678644 93.15556065 84.8125 95.5 C88.07954335 99.12023723 91.30770776 102.76983565 94.5078125 106.44921875 C96.54208141 108.76088797 98.6147231 111.0353143 100.6875 113.3125 C103.74108867 116.68940982 106.65679205 120.13217132 109.5 123.6875 C114.40253486 129.75320218 119.73508037 135.38164977 125.08203125 141.0546875 C128.02282579 144.17775922 130.87649177 147.36272092 133.67578125 150.61328125 C135.69123772 152.93658787 137.75098462 155.21748465 139.8125 157.5 C143.68685316 161.79974667 147.53597587 166.11410043 151.3125 170.5 C152.51712891 171.85158203 152.51712891 171.85158203 153.74609375 173.23046875 C154.98552734 174.66326172 154.98552734 174.66326172 156.25 176.125 C157.02214844 177.00414062 157.79429687 177.88328125 158.58984375 178.7890625 C160.63026599 182.00006711 160.7895136 183.76251985 160.3125 187.5 C158.6875 189.4375 158.6875 189.4375 156.3125 190.5 C152.25708807 190.37591229 150.63259659 189.7845809 147.56640625 187.05859375 C146.65470341 186.03097108 145.75805269 184.98984423 144.875 183.9375 C144.39691895 183.39174316 143.91883789 182.84598633 143.42626953 182.28369141 C142.0422599 180.69962905 140.67655652 179.10123831 139.3125 177.5 C138.1055734 176.12376506 136.89747213 174.74855811 135.6875 173.375 C135.14867187 172.75367188 134.60984375 172.13234375 134.0546875 171.4921875 C131.99749601 169.13979365 129.90653085 166.81965034 127.8125 164.5 C123.01342208 159.17665307 118.2717205 153.81136661 113.6328125 148.34765625 C108.04990859 141.78089127 102.39372833 135.31485336 96.49731445 129.02661133 C96.03671631 128.53443115 95.57611816 128.04225098 95.1015625 127.53515625 C94.63508301 127.04982422 94.16860352 126.56449219 93.68798828 126.06445312 C92.3125 124.5 92.3125 124.5 91.08935547 122.62304688 C88.8781657 119.41067264 87.35883935 117.7678098 83.50146484 116.78051758 C80.06547921 116.37772226 76.63865232 116.11342965 73.1875 115.875 C64.52806485 114.95876701 57.79029822 114.23191757 52.0625 107.25 C50.37140581 105.05115036 48.84925391 102.81626677 47.3125 100.5 C46.08777134 99.06142983 44.84117504 97.64083952 43.5625 96.25 C41.76589825 94.21414136 40.05467196 92.16603129 38.39453125 90.015625 C34.27187152 84.65051953 34.27187152 84.65051953 28.1875 82.375 C25.61146063 82.79439435 24.51249397 83.29169439 22.68636703 85.19371414 C18.57121638 91.2047039 17.18112851 96.25665761 16.46972656 103.44824219 C16.34526657 104.50466415 16.22080658 105.56108612 16.09257507 106.64952087 C15.69000052 110.11313403 15.32167042 113.57949102 14.953125 117.046875 C14.67736034 119.4661076 14.399227 121.88507127 14.11883545 124.30377197 C13.38840225 130.65187597 12.68602077 137.00275411 11.99078369 143.35479736 C10.87136596 153.53580348 9.70799924 163.71189177 8.54698944 173.88822174 C8.14565828 177.43983264 7.75549687 180.99253112 7.36724854 184.54559326 C7.12424787 186.72019469 6.88107291 188.89477666 6.63769531 191.06933594 C6.53275253 192.05645065 6.42780975 193.04356537 6.31968689 194.06059265 C5.11123768 204.70126232 5.11123768 204.70126232 2.3125 207.5 C0.40847734 207.60314816 -1.49941205 207.63522177 -3.40621948 207.64044189 C-4.64855347 207.64615204 -5.89088745 207.65186218 -7.17086792 207.65774536 C-8.56036367 207.65899085 -9.94985953 207.66011592 -11.33935547 207.66113281 C-12.79274625 207.66575863 -14.2461358 207.67078296 -15.69952393 207.67617798 C-19.6582171 207.68932699 -23.6168933 207.69575181 -27.57560492 207.70018864 C-30.04657185 207.70311539 -32.5175341 207.70721943 -34.98849869 207.71169281 C-42.712953 207.72537443 -50.43739666 207.73503778 -58.16186225 207.7388947 C-67.09088892 207.74337702 -76.01976261 207.76093012 -84.94874275 207.7898953 C-91.84217421 207.81148408 -98.73556256 207.82159748 -105.62902749 207.82293582 C-109.75003753 207.82398589 -113.87090393 207.82993616 -117.99187851 207.84775543 C-121.86768125 207.8641878 -125.74323162 207.86641537 -129.6190567 207.85761642 C-131.04330494 207.85684344 -132.46756648 207.8612231 -133.89178085 207.87107468 C-135.83275085 207.88371552 -137.7738214 207.87615446 -139.71481323 207.86749268 C-140.80215193 207.86895924 -141.88949062 207.8704258 -143.00977898 207.8719368 C-145.6875 207.5 -145.6875 207.5 -147.56469917 206.19968796 C-148.6875 204.5 -148.6875 204.5 -148.625 200.9375 C-147.6875 197.5 -147.6875 197.5 -145.98403549 196.30018806 C-143.20170358 195.33073264 -140.95381434 195.254091 -138.00543213 195.25949097 C-136.26807549 195.25536697 -136.26807549 195.25536697 -134.49562073 195.25115967 C-132.59561562 195.2619455 -132.59561562 195.2619455 -130.65722656 195.27294922 C-129.30690011 195.2735135 -127.95657304 195.27319644 -126.60624695 195.27206421 C-122.94332369 195.27149036 -119.28053141 195.28324989 -115.61763859 195.29721212 C-111.78861721 195.30971407 -107.95959284 195.31088956 -104.1305542 195.31326294 C-96.88100995 195.31947928 -89.63152601 195.33589219 -82.38200831 195.35596192 C-74.12815121 195.37831611 -65.87429123 195.38931314 -57.6204114 195.39935279 C-40.64273938 195.42025828 -23.66512607 195.45543727 -6.6875 195.5 C-6.6875 194.18 -6.6875 192.86 -6.6875 191.5 C-53.2175 191.005 -53.2175 191.005 -100.6875 190.5 C-98.0475 185.55 -95.4075 180.6 -92.6875 175.5 C-91.18987 172.47116696 -89.71401023 169.45006136 -88.28515625 166.390625 C-87.91829208 165.6134613 -87.55142792 164.83629761 -87.17344666 164.0355835 C-86.02875867 161.60870317 -84.88920552 159.17945781 -83.75 156.75 C-82.6184542 154.34689821 -81.48584985 151.94429834 -80.35287476 149.54187012 C-79.60158646 147.94569437 -78.85256845 146.348448 -78.10586548 144.75012207 C-76.16623032 140.60334863 -74.19089777 136.47977537 -72.15185547 132.38085938 C-71.73866562 131.53956482 -71.32547577 130.69827026 -70.89976501 129.83148193 C-70.11580637 128.23793204 -69.32143767 126.64944075 -68.51441956 125.06744385 C-65.34546677 118.58032359 -63.60734841 112.25626893 -65.8125 105.1875 C-67.90112272 100.52044481 -70.51731624 98.38245424 -75.28125 96.4453125 C-77.16868965 95.75020704 -79.06437667 95.07696046 -80.96875 94.4296875 C-83.58133871 93.53630228 -86.13273527 92.54597252 -88.6875 91.5 C-85.47511211 87.04646224 -81.81077001 84.03124361 -77.4375 80.8125 C-76.73367187 80.29139648 -76.02984375 79.77029297 -75.3046875 79.23339844 C-58.85668161 67.21201335 -41.3871008 57.04823421 -21.6875 51.5 C-20.81480469 51.25378906 -19.94210937 51.00757813 -19.04296875 50.75390625 C-12.80737692 49.33003095 -6.49369446 49.27026081 -0.125 49.1875 C0.74979004 49.16969482 1.62458008 49.15188965 2.52587891 49.13354492 C11.7422484 49.14478229 19.67738971 50.86488971 26.3125 57.5 C26.6425 58.16 26.9725 58.82 27.3125 59.5 C29.9525 59.5 32.5925 59.5 35.3125 59.5 C34.73133423 58.88125 34.73133423 58.88125 34.13842773 58.25 C20.9846152 44.23386677 20.9846152 44.23386677 15.94921875 38.38671875 C13.93376228 36.06341213 11.87401538 33.78251535 9.8125 31.5 C-1.17705761 19.31633086 -1.17705761 19.31633086 -2.81152344 16.70239258 C-4.29876247 14.5454627 -5.55964686 13.04240927 -7.6875 11.5 C-11.71300602 10.78444554 -15.51342254 11.15110974 -19.5625 11.5625 C-20.63242187 11.64177734 -21.70234375 11.72105469 -22.8046875 11.80273438 C-25.43674758 12.00248893 -28.06126553 12.23572283 -30.6875 12.5 C-28.6875 10.5 -28.6875 10.5 -25.3125 9.75 C-20.8545724 8.21278359 -19.85925015 6.59291374 -17.6875 2.5 C-17.3575 1.51 -17.0275 0.52 -16.6875 -0.5 C-11.55389374 -2.45511508 -4.78913012 -2.67300286 0 0 Z M32.3125 70.5 C33.3025 71.985 33.3025 71.985 34.3125 73.5 C37.43807959 73.86530232 37.43807959 73.86530232 40.9375 73.6875 C42.12601563 73.66042969 43.31453125 73.63335937 44.5390625 73.60546875 C45.45429688 73.57066406 46.36953125 73.53585938 47.3125 73.5 C46.6525 72.51 45.9925 71.52 45.3125 70.5 C42.18692041 70.13469768 42.18692041 70.13469768 38.6875 70.3125 C37.49898437 70.33957031 36.31046875 70.36664063 35.0859375 70.39453125 C33.71308594 70.44673828 33.71308594 70.44673828 32.3125 70.5 Z M43.3125 82.5 C47.68579034 88.74755763 52.6659375 94.23043573 57.9050293 99.75048828 C58.45843994 100.33556152 59.01185059 100.92063477 59.58203125 101.5234375 C60.08323486 102.04856934 60.58443848 102.57370117 61.10083008 103.11474609 C62.3125 104.5 62.3125 104.5 63.3125 106.5 C66.58805608 106.97001033 66.58805608 106.97001033 70.375 107.125 C71.66535156 107.19976562 72.95570313 107.27453125 74.28515625 107.3515625 C75.78369141 107.42503906 75.78369141 107.42503906 77.3125 107.5 C74.83204316 102.84694444 71.54844857 99.3401703 67.9375 95.5625 C66.80317699 94.3673172 65.67034578 93.17071667 64.5390625 91.97265625 C63.98790771 91.39612305 63.43675293 90.81958984 62.86889648 90.22558594 C61.38553809 88.58097777 60.12325872 86.872607 58.82421875 85.08203125 C56.51062088 82.199804 56.51062088 82.199804 52.98046875 81.9140625 C51.83191406 81.98367187 50.68335938 82.05328125 49.5 82.125 C48.33855469 82.17914063 47.17710937 82.23328125 45.98046875 82.2890625 C45.10003906 82.35867187 44.21960938 82.42828125 43.3125 82.5 Z M3.3125 103.5 C2.38050781 103.75394531 1.44851563 104.00789063 0.48828125 104.26953125 C-0.79938981 104.61751832 -2.08715744 104.96514814 -3.375 105.3125 C-4.0467627 105.49482178 -4.71852539 105.67714355 -5.41064453 105.86499023 C-10.98952428 107.36033979 -16.60453476 108.58107372 -22.2734375 109.69140625 C-23.46839844 110.09166016 -23.46839844 110.09166016 -24.6875 110.5 C-25.89679586 114.12788758 -25.39868971 115.86529209 -24.62353516 119.59204102 C-24.36641754 120.84666641 -24.10929993 122.10129181 -23.84439087 123.39393616 C-23.55536251 124.76397848 -23.26608028 126.13396727 -22.9765625 127.50390625 C-22.68546896 128.90717921 -22.3949803 130.31057777 -22.10507202 131.71409607 C-21.49600605 134.65472675 -20.88184675 137.5942299 -20.26367188 140.53295898 C-19.47064729 144.30336287 -18.68685099 148.07560685 -17.90641212 151.84863377 C-17.30663032 154.7461352 -16.7037232 157.64297847 -16.09968185 160.53959465 C-15.80966388 161.93057492 -15.52021576 163.32167412 -15.23134232 164.71289253 C-14.8272336 166.65498956 -14.41884732 168.59619506 -14.01025391 170.53735352 C-13.77851471 171.64305191 -13.54677551 172.74875031 -13.30801392 173.88795471 C-12.80147282 176.46237015 -12.80147282 176.46237015 -11.6875 178.5 C-9.3775 178.5 -7.0675 178.5 -4.6875 178.5 C-2.54272699 163.94742528 -0.60869445 149.37658298 1.15722656 134.77319336 C1.56934929 131.3811254 1.99175804 127.99042298 2.4140625 124.59960938 C2.67771332 122.42976395 2.94075785 120.25984476 3.203125 118.08984375 C3.3301178 117.08267807 3.4571106 116.07551239 3.58795166 115.03782654 C3.69846863 114.10487259 3.8089856 113.17191864 3.92285156 112.21069336 C4.02261292 111.39467148 4.12237427 110.5786496 4.22515869 109.73789978 C4.3146971 107.44370485 3.98413396 105.68464757 3.3125 103.5 Z M-47.6875 115.5 C-49.9975 116.16 -52.3075 116.82 -54.6875 117.5 C-50.75315573 137.92387542 -46.25765234 158.21111276 -41.6875 178.5 C-39.0475 178.5 -36.4075 178.5 -33.6875 178.5 C-35.21082355 170.87507532 -36.74032534 163.25141845 -38.27769279 155.62931442 C-38.99138577 152.08990211 -39.70295591 148.5500907 -40.40966797 145.00927734 C-41.09195555 141.59124506 -41.7798278 138.17438004 -42.47156143 134.75824738 C-42.86201902 132.82249845 -43.24670737 130.88558873 -43.63131714 128.94866943 C-43.8714151 127.76774719 -44.11151306 126.58682495 -44.35888672 125.37011719 C-44.56762421 124.33087097 -44.77636169 123.29162476 -44.99142456 122.22088623 C-45.62882085 119.72937067 -46.43336414 117.73362819 -47.6875 115.5 Z " fill="#000000" transform="translate(290.6875,153.5)"/>
<path d="M0 0 C0.88582764 0.00499512 1.77165527 0.00999023 2.68432617 0.01513672 C4.36619019 0.04244873 4.36619019 0.04244873 6.08203125 0.0703125 C9.65015625 0.1115625 13.21828125 0.1528125 16.89453125 0.1953125 C16.89453125 8.7753125 16.89453125 17.3553125 16.89453125 26.1953125 C18.21453125 26.1953125 19.53453125 26.1953125 20.89453125 26.1953125 C20.89453125 17.6153125 20.89453125 9.0353125 20.89453125 0.1953125 C22.54453125 0.1953125 24.19453125 0.1953125 25.89453125 0.1953125 C25.89453125 5.8053125 25.89453125 11.4153125 25.89453125 17.1953125 C27.21453125 17.1953125 28.53453125 17.1953125 29.89453125 17.1953125 C29.89453125 11.5853125 29.89453125 5.9753125 29.89453125 0.1953125 C36.36150924 -0.50382026 36.36150924 -0.50382026 39.89453125 0.1953125 C41.72408801 1.97717939 42.86483778 3.83426453 44.1943512 6.00798035 C49.0636266 12.27244783 58.66033555 14.27463004 66.0234375 16.23828125 C66.93915024 16.4928157 67.85486298 16.74735016 68.79832458 17.00959778 C71.68197772 17.81042167 74.56900053 18.59793489 77.45703125 19.3828125 C80.37692214 20.17927743 83.29580538 20.97877793 86.21214294 21.78816223 C88.0173505 22.28899472 89.82466237 22.78231511 91.63417053 23.26737976 C92.44268967 23.49133926 93.2512088 23.71529877 94.08422852 23.94604492 C95.15484276 24.23652962 95.15484276 24.23652962 96.24708557 24.53288269 C97.89453125 25.1953125 97.89453125 25.1953125 98.89453125 27.1953125 C97.90851108 29.65396269 96.85816665 31.99244223 95.703125 34.37109375 C95.36080338 35.09209763 95.01848175 35.8131015 94.66578674 36.55595398 C93.56192899 38.8768508 92.44728276 41.19237231 91.33203125 43.5078125 C90.60668042 45.02633876 89.88206269 46.54521543 89.15820312 48.06445312 C88.80340378 48.80863998 88.44860443 49.55282684 88.08305359 50.31956482 C87.55467644 51.42788414 87.55467644 51.42788414 87.015625 52.55859375 C86.31169188 54.03462811 85.60767311 55.51062163 84.90356445 56.98657227 C84.56660553 57.69331085 84.22964661 58.40004944 83.88247681 59.12820435 C83.24001626 60.47244384 82.59541632 61.81566365 81.94833374 63.15768433 C81.09309242 64.93269762 80.24744371 66.71232347 79.40234375 68.4921875 C78.92812988 69.48186523 78.45391602 70.47154297 77.96533203 71.49121094 C75.81578599 76.91947631 76.06195 81.18954859 78.26953125 86.5078125 C79.07390625 87.838125 79.07390625 87.838125 79.89453125 89.1953125 C80.56980449 90.52430771 81.23815804 91.85688191 81.89453125 93.1953125 C68.66449952 93.26476686 55.43451104 93.31810064 42.20433426 93.35074902 C36.06128763 93.36641714 29.91836556 93.38767656 23.77539062 93.42163086 C17.84911624 93.45418307 11.9229618 93.47215688 5.99660492 93.47994423 C3.73352927 93.48549515 1.47046031 93.4963345 -0.79256439 93.51250267 C-3.95788354 93.53422161 -7.12270449 93.5372817 -10.28808594 93.53588867 C-11.22748016 93.5466745 -12.16687439 93.55746033 -13.13473511 93.568573 C-19.44008266 93.53846771 -19.44008266 93.53846771 -22.69171143 91.86152649 C-24.10546875 90.1953125 -24.10546875 90.1953125 -24.54296875 87.1953125 C-24.10546875 84.1953125 -24.10546875 84.1953125 -23.00102234 82.52909851 C-20.1465289 80.52056473 -17.80014955 80.83609519 -14.33911133 80.85473633 C-13.3143293 80.85407921 -13.3143293 80.85407921 -12.2688446 80.85340881 C-10.01227163 80.85549768 -7.75644306 80.87883213 -5.5 80.90234375 C-3.93487453 80.90793939 -2.36974381 80.91220964 -0.80461121 80.91520691 C3.31369549 80.92665831 7.4316845 80.9561278 11.54986572 80.98931885 C15.75260114 81.02001349 19.95538791 81.03371094 24.15820312 81.04882812 C32.40379158 81.08099743 40.64912189 81.1321971 48.89453125 81.1953125 C48.23453125 80.2053125 47.57453125 79.2153125 46.89453125 78.1953125 C43.54839613 77.60843466 43.54839613 77.60843466 39.76953125 77.5078125 C38.48820312 77.44207031 37.206875 77.37632812 35.88671875 77.30859375 C34.89929688 77.27121094 33.911875 77.23382813 32.89453125 77.1953125 C32.22395238 75.4051064 31.55818435 73.61309761 30.89453125 71.8203125 C30.52328125 70.82257813 30.15203125 69.82484375 29.76953125 68.796875 C28.89453125 66.1953125 28.89453125 66.1953125 28.89453125 64.1953125 C27.90710938 64.7728125 26.9196875 65.3503125 25.90234375 65.9453125 C24.6082039 66.6955385 23.31392588 67.44552618 22.01953125 68.1953125 C21.36855469 68.576875 20.71757813 68.9584375 20.046875 69.3515625 C15.12109375 72.1953125 15.12109375 72.1953125 12.89453125 72.1953125 C13.22453125 73.8453125 13.55453125 75.4953125 13.89453125 77.1953125 C2.49677349 78.42935545 2.49677349 78.42935545 -1.28125 75.51953125 C-2.41265382 74.09682345 -3.51223954 72.64821471 -4.578125 71.17578125 C-7.42610386 67.48287772 -10.9433147 66.51671378 -15.41796875 65.8515625 C-22.17497187 65.42924981 -27.66009526 67.15955697 -33.10546875 71.1953125 C-37.59347082 76.48621402 -39.48387943 81.8237392 -39.3828125 88.71875 C-38.73471527 94.50598445 -36.3539424 98.85973604 -32.41796875 103.0703125 C-26.65211507 106.76916203 -20.97922896 109.06696533 -14.08203125 107.76171875 C-9.83456903 106.54456061 -5.41393623 105.25526469 -2.94921875 101.375 C-2.60890625 100.73820312 -2.26859375 100.10140625 -1.91796875 99.4453125 C-0.80078125 97.61328125 -0.80078125 97.61328125 0.89453125 96.1953125 C5.2828794 95.57836869 9.49220343 95.78924127 13.89453125 96.1953125 C13.77464844 96.94296875 13.65476562 97.690625 13.53125 98.4609375 C13.60376163 101.44072729 13.60376163 101.44072729 16.4140625 103.1796875 C17.50074219 103.76234375 18.58742188 104.345 19.70703125 104.9453125 C20.78597656 105.53828125 21.86492187 106.13125 22.9765625 106.7421875 C25.85089889 108.2584515 25.85089889 108.2584515 28.89453125 109.1953125 C29.09949219 108.42445313 29.30445312 107.65359375 29.515625 106.859375 C29.78503906 105.85648437 30.05445312 104.85359375 30.33203125 103.8203125 C30.59886719 102.82257813 30.86570312 101.82484375 31.140625 100.796875 C31.89453125 98.1953125 31.89453125 98.1953125 32.89453125 96.1953125 C37.84453125 96.1953125 42.79453125 96.1953125 47.89453125 96.1953125 C47.23750115 111.08799481 39.72487757 125.89496185 28.89453125 136.1953125 C13.20218839 149.63573305 -4.32476827 155.61984692 -24.84326172 154.40673828 C-42.58625442 152.74847887 -57.62562783 144.36335144 -69.79296875 131.5078125 C-83.59568155 114.75211547 -86.83809012 96.43793298 -85.10546875 75.1953125 C-83.09911237 60.08339671 -74.63866093 47.72850468 -64.10546875 37.1953125 C-67.40546875 35.5453125 -70.70546875 33.8953125 -74.10546875 32.1953125 C-64.51104 19.10363394 -46.68709274 11.61037477 -31.10546875 9.1953125 C-23.33023211 8.32442323 -15.82815246 7.77686039 -8.10546875 9.1953125 C-8.16734375 8.0815625 -8.22921875 6.9678125 -8.29296875 5.8203125 C-8.20015625 4.0259375 -8.20015625 4.0259375 -8.10546875 2.1953125 C-4.80258539 -0.00660974 -3.83084148 -0.04428718 0 0 Z M-32.79296875 37.0703125 C-33.93121094 37.41835938 -35.06945313 37.76640625 -36.2421875 38.125 C-39.18678578 39.00012563 -39.18678578 39.00012563 -41.10546875 41.1953125 C-38.46546875 45.8153125 -35.82546875 50.4353125 -33.10546875 55.1953125 C-25.72718082 54.43597524 -25.72718082 54.43597524 -21.10546875 53.1953125 C-21.10546875 47.2553125 -21.10546875 41.3153125 -21.10546875 35.1953125 C-25.67048155 35.1953125 -28.51184155 35.73276535 -32.79296875 37.0703125 Z M-15.10546875 35.1953125 C-15.10546875 41.1353125 -15.10546875 47.0753125 -15.10546875 53.1953125 C-11.47546875 54.1853125 -7.84546875 55.1753125 -4.10546875 56.1953125 C-1.13546875 51.2453125 1.83453125 46.2953125 4.89453125 41.1953125 C1.31215193 38.50852801 -0.40347371 37.59292285 -4.54296875 36.5078125 C-5.46980469 36.25644531 -6.39664063 36.00507813 -7.3515625 35.74609375 C-10.45454526 35.03188239 -10.45454526 35.03188239 -15.10546875 35.1953125 Z M-53.04296875 48.3828125 C-53.91824219 49.16011719 -54.79351562 49.93742187 -55.6953125 50.73828125 C-58.00387637 53.09174425 -59.54961358 55.30440009 -61.10546875 58.1953125 C-55.9367954 61.81689995 -51.00918982 64.93431294 -45.10546875 67.1953125 C-42.79546875 64.5553125 -40.48546875 61.9153125 -38.10546875 59.1953125 C-40.74546875 54.2453125 -43.38546875 49.2953125 -46.10546875 44.1953125 C-49.29923737 44.1953125 -50.72272297 46.29425059 -53.04296875 48.3828125 Z M9.89453125 44.1953125 C8.55594601 46.48405423 7.22352111 48.77600906 5.89453125 51.0703125 C5.51296875 51.72128906 5.13140625 52.37226563 4.73828125 53.04296875 C2.61901969 56.39881451 2.61901969 56.39881451 1.89453125 60.1953125 C3.53057321 61.56605036 5.20131186 62.89586506 6.89453125 64.1953125 C7.88453125 65.1853125 8.87453125 66.1753125 9.89453125 67.1953125 C14.51453125 64.5553125 19.13453125 61.9153125 23.89453125 59.1953125 C23.89453125 55.31098084 22.72373439 54.51925754 20.14453125 51.6953125 C19.4484375 50.921875 18.75234375 50.1484375 18.03515625 49.3515625 C16.08101879 47.38316127 14.2123355 45.71454553 11.89453125 44.1953125 C11.23453125 44.1953125 10.57453125 44.1953125 9.89453125 44.1953125 Z M-65.10546875 64.1953125 C-68.19984272 70.95975791 -69.6806454 76.76090386 -70.10546875 84.1953125 C-64.16546875 84.1953125 -58.22546875 84.1953125 -52.10546875 84.1953125 C-51.11546875 80.5653125 -50.12546875 76.9353125 -49.10546875 73.1953125 C-54.33724852 69.57331112 -59.16575631 66.47009599 -65.10546875 64.1953125 Z M-70.10546875 90.1953125 C-69.6806454 97.62972114 -68.19984272 103.43086709 -65.10546875 110.1953125 C-62.62251879 108.91051288 -60.14420966 107.6179256 -57.66796875 106.3203125 C-56.96091797 105.95550781 -56.25386719 105.59070313 -55.52539062 105.21484375 C-51.66537207 103.4072807 -51.66537207 103.4072807 -49.10546875 100.1953125 C-49.64910235 97.73367293 -49.64910235 97.73367293 -50.54296875 95.0703125 C-51.05859375 93.4615625 -51.57421875 91.8528125 -52.10546875 90.1953125 C-58.04546875 90.1953125 -63.98546875 90.1953125 -70.10546875 90.1953125 Z M-50.4609375 108.84765625 C-51.74435892 109.59908952 -53.02153009 110.36127751 -54.29296875 111.1328125 C-54.94716797 111.51888672 -55.60136719 111.90496094 -56.27539062 112.30273438 C-57.89082191 113.25784338 -59.498874 114.22541316 -61.10546875 115.1953125 C-58.37124267 120.98837597 -54.39113177 125.57880622 -49.10546875 129.1953125 C-48.11546875 129.1953125 -47.12546875 129.1953125 -46.10546875 129.1953125 C-43.46546875 124.5753125 -40.82546875 119.9553125 -38.10546875 115.1953125 C-39.03359375 114.0609375 -39.96171875 112.9265625 -40.91796875 111.7578125 C-41.44003906 111.11972656 -41.96210937 110.48164063 -42.5 109.82421875 C-45.47834958 106.80238962 -46.69819325 106.99475658 -50.4609375 108.84765625 Z M7.16796875 108.7265625 C6.22824219 109.70109375 6.22824219 109.70109375 5.26953125 110.6953125 C4.63789062 111.345 4.00625 111.9946875 3.35546875 112.6640625 C2.87335938 113.169375 2.39125 113.6746875 1.89453125 114.1953125 C3.32203106 117.98580957 5.05689667 121.46653706 7.01953125 125.0078125 C7.55835937 125.98363281 8.0971875 126.95945312 8.65234375 127.96484375 C9.06226562 128.70089844 9.4721875 129.43695313 9.89453125 130.1953125 C16.06926936 126.43022829 21.88164191 121.93000632 24.89453125 115.1953125 C22.60578952 113.85672726 20.31383469 112.52430236 18.01953125 111.1953125 C17.36855469 110.81375 16.71757813 110.4321875 16.046875 110.0390625 C11.54783182 106.91661458 11.54783182 106.91661458 7.16796875 108.7265625 Z M-33.10546875 118.1953125 C-34.44405399 120.48405423 -35.77647889 122.77600906 -37.10546875 125.0703125 C-37.48703125 125.72128906 -37.86859375 126.37226563 -38.26171875 127.04296875 C-40.38098031 130.39881451 -40.38098031 130.39881451 -41.10546875 134.1953125 C-39.27563734 134.85100209 -37.44137665 135.49433463 -35.60546875 136.1328125 C-34.58453125 136.49246094 -33.56359375 136.85210937 -32.51171875 137.22265625 C-28.39924476 138.49103211 -28.39924476 138.49103211 -21.10546875 139.1953125 C-21.10546875 133.2553125 -21.10546875 127.3153125 -21.10546875 121.1953125 C-22.52859375 120.7003125 -23.95171875 120.2053125 -25.41796875 119.6953125 C-26.21847656 119.416875 -27.01898438 119.1384375 -27.84375 118.8515625 C-30.19316297 118.05598143 -30.19316297 118.05598143 -33.10546875 118.1953125 Z M-15.10546875 120.1953125 C-15.10546875 126.4653125 -15.10546875 132.7353125 -15.10546875 139.1953125 C-8.26228008 138.19574562 -2.2969285 137.29104238 3.89453125 134.1953125 C3.32110631 129.898553 1.79294161 127.01051529 -0.54296875 123.3828125 C-1.16042969 122.40699219 -1.77789062 121.43117188 -2.4140625 120.42578125 C-3.25130859 119.32169922 -3.25130859 119.32169922 -4.10546875 118.1953125 C-7.83224871 118.1953125 -11.46743437 119.38686042 -15.10546875 120.1953125 Z " fill="#000000" transform="translate(85.10546875,250.8046875)"/>
<path d="M0 0 C0.91136719 0.42152344 1.82273437 0.84304688 2.76171875 1.27734375 C9.8448222 4.84359249 15.39715671 9.42603735 21 15 C21.62648438 15.59167969 22.25296875 16.18335938 22.8984375 16.79296875 C26.96587372 20.96163076 29.62079057 25.66679599 32.25 30.8125 C32.5795166 31.45195557 32.9090332 32.09141113 33.24853516 32.75024414 C37.80823555 42.09704686 39.56661537 51.32923112 39.5 61.6875 C39.49427979 62.73260742 39.48855957 63.77771484 39.48266602 64.85449219 C39.07323475 82.77021167 31.9563781 97.541138 19.60546875 110.52734375 C15.70183536 114.23199133 11.60697152 117.23145718 7 120 C6.24460937 120.46019531 5.48921875 120.92039062 4.7109375 121.39453125 C-11.03796979 130.11173578 -30.0755425 131.51652348 -47.30151367 126.9050293 C-64.96949659 121.60308479 -78.86178892 109.79254896 -87.78515625 93.80078125 C-96.05323382 76.95990582 -97.75309504 58.40346855 -92.26953125 40.44140625 C-89.24803135 32.25081729 -85.334402 24.90334377 -80 18 C-71.62224939 24.84810513 -71.62224939 24.84810513 -69 29 C-69.40625 31.1484375 -69.40625 31.1484375 -70 33 C-69.12601562 33.42345703 -69.12601562 33.42345703 -68.234375 33.85546875 C-60.41997285 38.04526613 -52.41664134 44.1095958 -48 52 C-47.54450316 55.38724014 -47.86088121 57.87337387 -48.5390625 61.20703125 C-49.45225847 66.74037972 -47.11780603 71.20352603 -44.25 75.8125 C-39.51232959 80.41856845 -34.87355182 82.64075277 -28.33203125 83.09765625 C-21.27001815 82.80192706 -15.91165495 79.91165495 -11 75 C-7.06434343 69.43579588 -6.10178553 63.70527546 -7 57 C-9.1044827 50.37186291 -12.01453463 46.18466103 -18.1328125 42.83984375 C-21.84272663 41.17115852 -24.2613798 41.05189948 -28.25 41.375 C-31.59268207 41.42376592 -33.41420113 41.3786261 -36.2421875 39.55078125 C-39.02431957 36.79750947 -40.75218957 34.7434313 -42 31 C-35.5 28 -35.5 28 -31 28 C-31 22.06 -31 16.12 -31 10 C-33.578125 10.61875 -36.15625 11.2375 -38.8125 11.875 C-40.02450073 12.16093018 -40.02450073 12.16093018 -41.26098633 12.45263672 C-44.64237805 13.28154644 -47.07845067 14.05230045 -50 16 C-49.48308594 16.84304688 -48.96617187 17.68609375 -48.43359375 18.5546875 C-47.77488281 19.65039062 -47.11617188 20.74609375 -46.4375 21.875 C-45.77621094 22.96554687 -45.11492187 24.05609375 -44.43359375 25.1796875 C-43.96050781 26.11039062 -43.48742187 27.04109375 -43 28 C-43.495 28.99 -43.495 28.99 -44 30 C-51.3353591 22.23972681 -58.51789753 14.49919175 -65 6 C-47.8957185 -8.696549 -19.80614682 -9.21852917 0 0 Z M-25 10 C-25 15.94 -25 21.88 -25 28 C-17.72760688 30.16169042 -17.72760688 30.16169042 -13 30 C-10.36 25.38 -7.72 20.76 -5 16 C-8.37706573 13.4672007 -10.03323292 12.44348751 -13.875 11.3125 C-14.69742188 11.06113281 -15.51984375 10.80976563 -16.3671875 10.55078125 C-19.53050977 9.79523391 -19.53050977 9.79523391 -25 10 Z M0 19 C-2.64 23.95 -5.28 28.9 -8 34 C-5.69 36.64 -3.38 39.28 -1 42 C1.29679188 40.90557567 3.58704964 39.80013339 5.875 38.6875 C6.85146484 38.2244043 6.85146484 38.2244043 7.84765625 37.75195312 C11.19676398 36.11192615 12.89005879 35.16491182 15 32 C13.58791833 30.39179588 12.17013964 28.78859292 10.75 27.1875 C9.96109375 26.29417969 9.1721875 25.40085937 8.359375 24.48046875 C6.33024614 22.34719585 4.46998087 20.58859881 2 19 C1.34 19 0.68 19 0 19 Z M-75 39 C-75.65568959 40.82983141 -76.29902213 42.6640921 -76.9375 44.5 C-77.29714844 45.5209375 -77.65679687 46.541875 -78.02734375 47.59375 C-79.29571961 51.70622399 -79.29571961 51.70622399 -80 59 C-74.06 59 -68.12 59 -62 59 C-60.29144399 53.02133952 -60.29144399 53.02133952 -59 47 C-61.28874173 45.66141476 -63.58069656 44.32898986 -65.875 43 C-66.52597656 42.6184375 -67.17695313 42.236875 -67.84765625 41.84375 C-71.20350201 39.72448844 -71.20350201 39.72448844 -75 39 Z M11 42.875 C10.34515625 43.23980469 9.6903125 43.60460937 9.015625 43.98046875 C5.40075537 45.86191981 5.40075537 45.86191981 3 49 C3.5436336 51.46163957 3.5436336 51.46163957 4.4375 54.125 C4.953125 55.73375 5.46875 57.3425 6 59 C11.94 59 17.88 59 24 59 C23.57517665 51.56559136 22.09437397 45.76444541 19 39 C16.37680697 39 13.30296156 41.56485061 11 42.875 Z M-80 65 C-79.05542371 71.76761128 -78.06997835 77.8600433 -75 84 C-71.08885974 83.32599282 -68.12880818 81.45743967 -64.75 79.4375 C-63.67234375 78.79683594 -62.5946875 78.15617187 -61.484375 77.49609375 C-60.66453125 77.00238281 -59.8446875 76.50867188 -59 76 C-59.30782496 74.35328588 -59.62139234 72.70764424 -59.9375 71.0625 C-60.11152344 70.14597656 -60.28554688 69.22945313 -60.46484375 68.28515625 C-60.77714988 66.04710156 -60.77714988 66.04710156 -62 65 C-63.34267413 64.91368126 -64.68974322 64.89293527 -66.03515625 64.90234375 C-66.84404297 64.90556641 -67.65292969 64.90878906 -68.48632812 64.91210938 C-69.33646484 64.92048828 -70.18660156 64.92886719 -71.0625 64.9375 C-71.91650391 64.94201172 -72.77050781 64.94652344 -73.65039062 64.95117188 C-75.76695663 64.96299627 -77.88348685 64.98093231 -80 65 Z M6 65 C4.515 70.445 4.515 70.445 3 76 C10.425 80.455 10.425 80.455 18 85 C20.68678449 81.41762068 21.60238965 79.70199504 22.6875 75.5625 C22.93886719 74.63566406 23.19023437 73.70882812 23.44921875 72.75390625 C24.16343011 69.65092349 24.16343011 69.65092349 24 65 C18.06 65 12.12 65 6 65 Z M-64.125 86 C-64.78371094 86.3815625 -65.44242187 86.763125 -66.12109375 87.15625 C-67.74962748 88.10032752 -69.37510657 89.04967068 -71 90 C-68.72223914 93.53652344 -66.49103913 96.78615213 -63.5 99.75 C-62.9328125 100.32234375 -62.365625 100.8946875 -61.78125 101.484375 C-59.9492767 103.0431593 -58.18850903 104.02093017 -56 105 C-54.60478444 102.76046944 -53.23437216 100.5111339 -51.875 98.25 C-51.27751953 97.29867187 -51.27751953 97.29867187 -50.66796875 96.328125 C-49.3816578 94.2418127 -49.3816578 94.2418127 -48 91 C-49.0313533 87.088894 -52.04171172 84.66245945 -55 82 C-58.44235117 82 -61.21759941 84.29586025 -64.125 86 Z M-3.5 84.3125 C-6.0699536 86.93098108 -6.0699536 86.93098108 -8 90 C-5.36 94.62 -2.72 99.24 0 104 C6.58747168 102.35313208 11.16176971 97.52705161 15 92 C15 91.34 15 90.68 15 90 C12.71125827 88.66141476 10.41930344 87.32898986 8.125 86 C7.47402344 85.6184375 6.82304687 85.236875 6.15234375 84.84375 C1.12250745 81.48688428 1.12250745 81.48688428 -3.5 84.3125 Z M-42 93 C-43.3416203 95.0992764 -44.67336839 97.2037832 -46 99.3125 C-46.3815625 99.90740234 -46.763125 100.50230469 -47.15625 101.11523438 C-49.46845234 104.76953654 -49.46845234 104.76953654 -50 109 C-48.33769459 109.65697732 -46.66985652 110.29995967 -45 110.9375 C-44.071875 111.29714844 -43.14375 111.65679687 -42.1875 112.02734375 C-38.26593861 113.32328365 -38.26593861 113.32328365 -31 114 C-31 107.73 -31 101.46 -31 95 C-36.445 94.01 -36.445 94.01 -42 93 Z M-20.6875 94.5 C-22.8221875 95.2425 -22.8221875 95.2425 -25 96 C-25 101.94 -25 107.88 -25 114 C-17.90235615 112.95148443 -11.60476461 111.79432349 -5 109 C-6.42749981 105.20950293 -8.16236542 101.72877544 -10.125 98.1875 C-10.66382813 97.21167969 -11.20265625 96.23585938 -11.7578125 95.23046875 C-12.16773438 94.49441406 -12.57765625 93.75835937 -13 93 C-16.01490557 93 -17.86864114 93.51952735 -20.6875 94.5 Z " fill="#000000" transform="translate(473,276)"/>
<path d="M0 0 C2.87838375 2.31522171 4.43617122 3.92702052 5.875 7.3125 C5.875 8.6325 5.875 9.9525 5.875 11.3125 C5.00617188 11.168125 4.13734375 11.02375 3.2421875 10.875 C2.08976562 10.689375 0.93734375 10.50375 -0.25 10.3125 C-1.38695312 10.126875 -2.52390625 9.94125 -3.6953125 9.75 C-10.7830826 8.71791586 -10.7830826 8.71791586 -17.125 11.3125 C-19.44955736 14.75925746 -20.13454896 16.75866045 -20.0625 20.9375 C-18.98820262 24.80497057 -18.24877086 25.85917281 -15.125 28.3125 C-12.42998354 29.33344327 -9.68857708 29.95603992 -6.875 30.5625 C-6.12992188 30.73523438 -5.38484375 30.90796875 -4.6171875 31.0859375 C-2.78939713 31.50773528 -0.95755208 31.91189559 0.875 32.3125 C-0.79638246 38.00271219 -3.39389764 43.13495671 -6 48.4375 C-9.63745561 55.93560394 -12.89186216 63.26320464 -15.125 71.3125 C-14.23425781 71.5084375 -13.34351563 71.704375 -12.42578125 71.90625 C-3.20947797 73.98153956 5.93633012 76.32223515 15.05532837 78.78833008 C16.9709795 79.30467777 18.88916495 79.81159327 20.80737305 80.31835938 C34.93019359 84.17770608 34.93019359 84.17770608 39.8125 89.375 C42.4794871 96.74843493 41.28026951 103.18110733 38.05078125 110.18359375 C36.79847129 112.72472621 35.49575811 115.23733868 34.1875 117.75 C33.15497579 119.79244743 32.13020253 121.83867518 31.10540771 123.88500977 C30.40573457 125.28035816 29.70344832 126.67439924 28.99859619 128.06713867 C24.82975427 136.31869835 21.01083135 144.72756657 17.17700195 153.13842773 C8.21997126 172.64001437 8.21997126 172.64001437 0.875 176.3125 C-3.83197417 176.88675085 -7.24644792 176.76804552 -11.5 174.5625 C-15.37902867 171.23761829 -16.75829476 169.53485081 -18.25 164.5625 C-18.7793645 156.88055928 -14.40622906 150.01468567 -11.125 143.3125 C-9.65246797 140.2679113 -8.18164958 137.2225064 -6.7118988 134.17657471 C-5.15479697 130.95206277 -3.59161128 127.73085399 -2.01342773 124.51660156 C0.91346618 118.53635614 3.70157884 112.61227148 5.875 106.3125 C5.28468994 106.22395752 4.69437988 106.13541504 4.08618164 106.04418945 C-4.23533696 104.67216887 -12.26234163 102.48121357 -20.35913086 100.16381836 C-22.68370861 99.50108093 -25.01245044 98.85473165 -27.34179688 98.20898438 C-49.59888914 91.93862859 -49.59888914 91.93862859 -55.125 82.3125 C-60.41814916 66.43305253 -52.99296496 45.46308041 -46.0703125 31.09375 C-32.09145608 3.4514575 -32.09145608 3.4514575 -19.6484375 -1.1328125 C-13.22190575 -2.5454557 -5.99478972 -3.11170229 0 0 Z " fill="#000000" transform="translate(182.125,167.6875)"/>
<path d="M0 0 C3.1555986 0.50202705 5.24782866 1.56707903 7.609375 3.7421875 C9.48862271 6.53531594 9.44750746 9.06974472 9.19140625 12.35546875 C8.75 14.4375 8.75 14.4375 7.3125 16.8125 C4.86024486 18.36758862 3.23845386 18.85971054 0.4765625 19.5625 C-4.99029322 21.35089334 -7.27888216 24.42563446 -10.4375 29.0625 C-11.54102539 30.59349036 -12.64791114 32.12206313 -13.7578125 33.6484375 C-14.3240332 34.43573242 -14.89025391 35.22302734 -15.47363281 36.03417969 C-18.43615876 40.04230303 -21.62060638 43.86125794 -24.8125 47.6875 C-25.95968367 49.06766823 -27.10682183 50.44787429 -28.25390625 51.828125 C-28.77227051 52.44880859 -29.29063477 53.06949219 -29.82470703 53.70898438 C-31.08528889 55.23774757 -32.30925453 56.79654354 -33.52734375 58.359375 C-35.25 60.4375 -35.25 60.4375 -37.25 61.4375 C-44.26881169 61.75076157 -50.77380594 60.88233483 -57.671875 59.64453125 C-58.73488831 59.45662521 -59.79790161 59.26871918 -60.89312744 59.07511902 C-63.12597778 58.67670931 -65.35804928 58.27391217 -67.58935547 57.86694336 C-71.00035576 57.24993565 -74.41568187 56.66273596 -77.83203125 56.07617188 C-80.00814128 55.68411217 -82.18393509 55.29029237 -84.359375 54.89453125 C-85.37715027 54.72347366 -86.39492554 54.55241608 -87.44354248 54.37617493 C-93.28695818 53.27202353 -96.62194491 52.26364151 -100.25 47.4375 C-101.15086767 44.639511 -100.93810183 42.28165421 -100.25 39.4375 C-98.375 36.4375 -98.375 36.4375 -95.25 34.4375 C-86.34016238 33.01837654 -76.80679065 35.77156588 -68.0625 37.4375 C-65.77727324 37.86983366 -63.49166169 38.29937825 -61.20451355 38.72143555 C-59.79198802 38.98232786 -58.38051665 39.24902377 -56.97041321 39.52270508 C-52.67361753 40.31935662 -48.61372653 40.8044897 -44.25 40.4375 C-42.35435806 39.27562935 -42.35435806 39.27562935 -41.109375 37.4296875 C-40.60164551 36.77935547 -40.09391602 36.12902344 -39.57080078 35.45898438 C-39.05243652 34.75064453 -38.53407227 34.04230469 -38 33.3125 C-37.44425293 32.59126953 -36.88850586 31.87003906 -36.31591797 31.12695312 C-35.16948471 29.63668784 -34.03196709 28.13952285 -32.90332031 26.63574219 C-29.99757121 22.77228015 -26.99483888 18.98472868 -23.99536133 15.19384766 C-22.08087945 12.7733679 -20.18601104 10.35006167 -18.36328125 7.859375 C-15.30916622 3.90112801 -13.14250496 2.02878085 -8.1875 0.9375 C-5.45494721 0.6026486 -2.72976149 0.36746789 0 0 Z " fill="#000000" transform="translate(263.25,143.5625)"/>
<path d="M0 0 C1.32401749 1.15131956 2.61632638 2.34008447 3.875 3.5625 C8.50326922 8.00030546 13.83089193 8.92040609 20 10 C20 11.32 20 12.64 20 14 C15.77317729 16.00733279 12.02509532 16.37736179 7.375 16.625 C6.06273437 16.69976562 4.75046875 16.77453125 3.3984375 16.8515625 C1.26708325 16.94465613 -0.86661364 17 -3 17 C-3.22816406 17.53109375 -3.45632812 18.0621875 -3.69140625 18.609375 C-9.21916849 28.70785409 -18.73106319 37.8655316 -29 43 C-33.75469749 43.65388767 -36.97307179 43.74288423 -40.9375 40.875 C-45.73210152 34.19161607 -45.74754876 26.94270556 -45 19 C-43.13742326 11.35920224 -39.34149011 4.90691077 -32.75390625 0.49609375 C-22.35747166 -5.49593998 -10.60365914 -6.22467363 0 0 Z " fill="#000000" transform="translate(210,111)"/>
<path d="M0 0 C5.09112526 4.50928238 7.00823137 10.08389602 7.42578125 16.73046875 C7.82224935 32.51205203 7.82224935 32.51205203 3.1875 38.9375 C-0.01887657 42.22609135 -2.32767145 43.32534668 -6.8125 43.9375 C-16.67896812 43.50046182 -26.41531368 40.8299876 -33.859375 34.08203125 C-37.71762027 29.47969582 -39.23316851 24.9320263 -38.8125 18.9375 C-37.82726398 12.91412523 -34.80708316 9.25011956 -30.12890625 5.4765625 C-21.8380098 -0.0320601 -9.67080671 -3.65341587 0 0 Z " fill="#000000" transform="translate(386.8125,186.0625)"/>
<path d="M0 0 C3.17940726 2.73374676 5.72731585 5.64656432 8.28515625 8.96484375 C6.30515625 10.94484375 4.32515625 12.92484375 2.28515625 14.96484375 C-1.23287049 13.43279985 -3.72409318 11.30774053 -6.58984375 8.77734375 C-22.78033009 -4.56104367 -42.13825903 -8.98568502 -62.71484375 -7.03515625 C-72.25609816 -5.69907349 -80.47819674 -1.97722522 -88.7890625 2.671875 C-91.71484375 3.96484375 -91.71484375 3.96484375 -93.96875 3.81640625 C-96.69509605 2.48677887 -98.03151301 0.4297209 -99.71484375 -2.03515625 C-99.71484375 -2.69515625 -99.71484375 -3.35515625 -99.71484375 -4.03515625 C-70.33215866 -26.65252784 -27.97709507 -21.30985371 0 0 Z " fill="#000000" transform="translate(497.71484375,273.03515625)"/>
<path d="M0 0 C2.6875 0.99609375 2.6875 0.99609375 4.0390625 2.6328125 C5.85980417 9.26864812 5.9830897 18.31675033 3 24.62109375 C1.00123193 27.8770375 -1.43464821 30.47797344 -4.3125 32.99609375 C-5.3334375 33.92421875 -5.3334375 33.92421875 -6.375 34.87109375 C-8.3125 35.99609375 -8.3125 35.99609375 -10.2421875 35.84375 C-14.56998225 34.07180385 -16.3410974 28.99947277 -18.3125 24.99609375 C-22.09324839 15.43542425 -22.09324839 15.43542425 -20.3125 10.99609375 C-14.76950371 2.40918711 -10.35189164 -1.37943839 0 0 Z " fill="#000000" transform="translate(220.3125,129.00390625)"/>
<path d="M0 0 C3.68802044 1.22934015 4.72356973 2.93859378 7 6 C5.70144891 9.63466997 4.13184303 12.29228012 1.75 15.3125 C-6.65064367 27.16090784 -9.1379845 40.8878825 -11 55 C-14.3 55 -17.6 55 -21 55 C-20.38603243 35.0767522 -14.46205599 14.46205599 0 0 Z " fill="#000000" transform="translate(383,283)"/>
<path d="M0 0 C0.23074219 0.7734375 0.46148437 1.546875 0.69921875 2.34375 C2.54974806 8.25374085 4.48420925 13.39010598 8.046875 18.4765625 C9 20 9 20 9 22 C-1.40476343 22.48772329 -8.85564209 22.50131318 -17 15.375 C-19 13 -19 13 -19 11 C-17.845 10.484375 -16.69 9.96875 -15.5 9.4375 C-11.27818703 7.36033802 -8.13124953 4.64396506 -4.76171875 1.390625 C-3 0 -3 0 0 0 Z " fill="#000000" transform="translate(198,145)"/>
</svg>
